<?xml version="1.0" encoding="utf-8" standalone="no"?>
<!DOCTYPE svg PUBLIC "-//W3C//DTD SVG 1.1//EN"
  "http://www.w3.org/Graphics/SVG/1.1/DTD/svg11.dtd">
<svg height="460.052696pt" version="1.1" viewBox="0 0 627.678125 460.052696" width="627.678125pt" xmlns="http://www.w3.org/2000/svg" xmlns:xlink="http://www.w3.org/1999/xlink">
 <metadata>
  <rdf:RDF xmlns:cc="http://creativecommons.org/ns#" xmlns:dc="http://purl.org/dc/elements/1.1/" xmlns:rdf="http://www.w3.org/1999/02/22-rdf-syntax-ns#">
   <cc:Work>
    <dc:type rdf:resource="http://purl.org/dc/dcmitype/StillImage"/>
    <dc:date>2022-01-26T23:34:49.161082</dc:date>
    <dc:format>image/svg+xml</dc:format>
    <dc:creator>
     <cc:Agent>
      <dc:title>Matplotlib v3.4.3, https://matplotlib.org/</dc:title>
     </cc:Agent>
    </dc:creator>
   </cc:Work>
  </rdf:RDF>
 </metadata>
 <defs>
  <style type="text/css">*{stroke-linecap:butt;stroke-linejoin:round;}</style>
 </defs>
 <g id="figure_1">
  <g id="patch_1">
   <path d="M 0 460.052696
L 627.678125 460.052696
L 627.678125 0
L 0 0
z
" style="fill:#ffffff;"/>
  </g>
  <g id="axes_1">
   <g id="patch_2">
    <path d="M 62.478125 394.735256
L 620.478125 394.735256
L 620.478125 52.015256
L 62.478125 52.015256
z
" style="fill:#ffffff;"/>
   </g>
   <g id="line2d_1">
    <path clip-path="url(#p056f72d309)" d="M 87.841761 379.157074
L 92.766739 379.157074
L 97.691717 376.525557
L 102.616695 375.952572
L 107.541673 375.318853
L 112.466651 373.835601
L 117.391629 372.876336
L 122.316607 372.876336
L 127.241585 372.876336
L 132.166563 370.426545
L 137.091541 369.716191
L 142.016519 369.018124
L 146.941497 367.874202
L 151.866475 366.98837
L 156.791452 366.98837
L 161.71643 366.98837
L 166.641408 364.282887
L 171.566386 363.370359
L 176.491364 362.000426
L 181.416342 360.141858
L 186.34132 358.336705
L 191.266298 358.336705
L 196.191276 358.336705
L 201.116254 352.32893
L 206.041232 350.643921
L 210.96621 347.510188
L 215.891188 343.841129
L 220.816166 343.841129
L 225.741144 343.841129
L 230.666121 343.841129
L 235.591099 333.090334
L 240.516077 329.758838
L 245.441055 326.354562
L 250.366033 321.909743
L 255.291011 321.909743
L 260.215989 321.909743
L 265.140967 321.909743
L 270.065945 308.171753
L 274.990923 305.362289
L 279.915901 301.618926
L 284.840879 296.024977
L 289.765857 290.97597
L 294.690835 290.97597
L 299.615813 290.97597
L 304.54079 282.021829
L 309.465768 279.633109
L 314.390746 276.470131
L 319.315724 273.17678
L 324.240702 270.524272
L 329.16568 270.524272
L 334.090658 270.524272
L 339.015636 270.524272
L 343.940614 262.467774
L 348.865592 260.811402
L 353.79057 259.111889
L 358.715548 254.887674
L 363.640526 254.887674
L 368.565504 254.887674
L 373.490482 249.594848
L 378.41546 248.98934
" style="fill:none;stroke:#ff0000;stroke-linecap:square;"/>
   </g>
   <g id="PolyCollection_1">
    <defs>
     <path d="M 378.41546 -224.666766
L 378.41546 -187.732283
L 383.340437 -190.117252
L 388.265415 -192.608535
L 393.190393 -195.263227
L 398.115371 -197.749421
L 403.040349 -200.248537
L 407.965327 -202.529636
L 412.890305 -204.519896
L 417.815283 -206.525975
L 422.740261 -208.636345
L 427.665239 -210.749779
L 432.590217 -212.865793
L 437.515195 -215.778531
L 442.440173 -218.861556
L 447.365151 -221.485829
L 452.290129 -223.368071
L 457.215106 -225.870623
L 462.140084 -228.728267
L 467.065062 -231.02626
L 471.99004 -233.324918
L 476.915018 -235.623645
L 481.839996 -237.768508
L 486.764974 -239.411
L 491.689952 -241.053524
L 496.61493 -242.824226
L 501.539908 -244.588136
L 506.464886 -246.839105
L 511.389864 -249.896388
L 516.314842 -252.962991
L 521.23982 -256.037597
L 526.164798 -258.898587
L 531.089775 -261.219878
L 536.014753 -263.271679
L 540.939731 -265.270221
L 545.864709 -267.255758
L 550.789687 -269.227909
L 555.714665 -271.186303
L 560.639643 -273.130583
L 565.564621 -275.060404
L 570.489599 -276.975433
L 575.414577 -278.875352
L 580.339555 -280.444005
L 585.264533 -281.911359
L 590.189511 -283.38697
L 595.114489 -285.340718
L 595.114489 -392.459258
L 595.114489 -392.459258
L 590.189511 -389.150517
L 585.264533 -385.237817
L 580.339555 -382.034037
L 575.414577 -379.219272
L 570.489599 -376.335888
L 565.564621 -373.126116
L 560.639643 -369.751083
L 555.714665 -366.28381
L 550.789687 -362.713111
L 545.864709 -359.089479
L 540.939731 -355.101518
L 536.014753 -351.050189
L 531.089775 -346.940715
L 526.164798 -342.774433
L 521.23982 -338.567804
L 516.314842 -334.323491
L 511.389864 -330.044263
L 506.464886 -325.732995
L 501.539908 -322.229944
L 496.61493 -317.553927
L 491.689952 -312.6371
L 486.764974 -308.228236
L 481.839996 -303.803001
L 476.915018 -299.36473
L 471.99004 -294.916804
L 467.065062 -290.847523
L 462.140084 -286.826447
L 457.215106 -283.847266
L 452.290129 -280.445861
L 447.365151 -276.509171
L 442.440173 -272.982066
L 437.515195 -269.407259
L 432.590217 -265.820963
L 427.665239 -262.220565
L 422.740261 -258.375866
L 417.815283 -254.193531
L 412.890305 -249.384916
L 407.965327 -244.578075
L 403.040349 -241.363221
L 398.115371 -238.211342
L 393.190393 -235.109268
L 388.265415 -232.003678
L 383.340437 -228.024251
L 378.41546 -224.666766
z
" id="md2b2a661ad"/>
    </defs>
    <g clip-path="url(#p056f72d309)">
     <use style="fill:#9467bd;fill-opacity:0.2;" x="0" xlink:href="#md2b2a661ad" y="460.052696"/>
    </g>
   </g>
   <g id="PolyCollection_2">
    <defs>
     <path d="M 378.41546 -224.666766
L 378.41546 -187.732283
L 383.340437 -190.117252
L 388.265415 -192.608535
L 393.190393 -195.263227
L 398.115371 -197.749421
L 403.040349 -200.248537
L 407.965327 -202.527531
L 412.890305 -204.502292
L 417.815283 -206.50186
L 422.740261 -208.465273
L 427.665239 -210.265826
L 432.590217 -211.891056
L 437.515195 -213.333064
L 442.440173 -214.588533
L 447.365151 -215.659709
L 452.290129 -216.568403
L 457.215106 -217.401414
L 462.140084 -218.447886
L 467.065062 -219.46291
L 471.99004 -220.319212
L 476.915018 -221.021164
L 481.839996 -221.686384
L 486.764974 -222.316874
L 491.689952 -222.914517
L 496.61493 -223.496459
L 501.539908 -224.061184
L 506.464886 -224.59748
L 511.389864 -225.106829
L 516.314842 -225.590628
L 521.23982 -225.972017
L 526.164798 -226.351559
L 531.089775 -226.865875
L 536.014753 -227.231963
L 540.939731 -227.483509
L 545.864709 -227.707732
L 550.789687 -227.918045
L 555.714665 -228.115322
L 560.639643 -228.300383
L 565.564621 -228.473995
L 570.489599 -228.636874
L 575.414577 -228.789692
L 580.339555 -228.933077
L 585.264533 -229.067618
L 590.189511 -229.193866
L 595.114489 -229.312338
L 595.114489 -289.222348
L 595.114489 -289.222348
L 590.189511 -289.044535
L 585.264533 -288.852792
L 580.339555 -288.324901
L 575.414577 -287.891973
L 570.489599 -287.200593
L 565.564621 -286.480725
L 560.639643 -285.835832
L 555.714665 -285.315097
L 550.789687 -284.765771
L 545.864709 -284.186228
L 540.939731 -283.574748
L 536.014753 -282.929504
L 531.089775 -282.248558
L 526.164798 -281.529851
L 521.23982 -280.771198
L 516.314842 -280.137505
L 511.389864 -279.677076
L 506.464886 -279.178198
L 501.539908 -278.637545
L 496.61493 -278.053443
L 491.689952 -277.467243
L 486.764974 -276.778069
L 481.839996 -276.025077
L 476.915018 -275.253647
L 471.99004 -274.413177
L 467.065062 -273.497269
L 462.140084 -272.473979
L 457.215106 -271.107251
L 452.290129 -269.502631
L 447.365151 -267.753884
L 442.440173 -265.844099
L 437.515195 -263.775024
L 432.590217 -261.394019
L 427.665239 -258.611258
L 422.740261 -255.722603
L 417.815283 -252.69799
L 412.890305 -249.24291
L 407.965327 -244.557341
L 403.040349 -241.363221
L 398.115371 -238.211342
L 393.190393 -235.109268
L 388.265415 -232.003678
L 383.340437 -228.024251
L 378.41546 -224.666766
z
" id="mbc05942681"/>
    </defs>
    <g clip-path="url(#p056f72d309)">
     <use style="fill:#ff7f0e;fill-opacity:0.2;" x="0" xlink:href="#mbc05942681" y="460.052696"/>
    </g>
   </g>
   <g id="PolyCollection_3">
    <defs>
     <path d="M 378.41546 -224.666766
L 378.41546 -187.732283
L 383.340437 -190.117252
L 388.265415 -192.608535
L 393.190393 -195.263227
L 398.115371 -197.749421
L 403.040349 -200.248537
L 407.965327 -202.525848
L 412.890305 -204.488242
L 417.815283 -206.482587
L 422.740261 -208.32909
L 427.665239 -209.884278
L 432.590217 -210.93159
L 437.515195 -211.598066
L 442.440173 -211.971318
L 447.365151 -212.144981
L 452.290129 -212.301384
L 457.215106 -212.442254
L 462.140084 -212.569145
L 467.065062 -212.683452
L 471.99004 -212.78643
L 476.915018 -212.879209
L 481.839996 -212.962803
L 486.764974 -213.038125
L 491.689952 -213.105999
L 496.61493 -213.167162
L 501.539908 -213.222282
L 506.464886 -213.271957
L 511.389864 -213.316727
L 516.314842 -213.357078
L 521.23982 -213.393447
L 526.164798 -213.426228
L 531.089775 -213.455777
L 536.014753 -213.482411
L 540.939731 -213.506421
L 545.864709 -213.528064
L 550.789687 -213.547575
L 555.714665 -213.565165
L 560.639643 -213.581021
L 565.564621 -213.595317
L 570.489599 -213.608205
L 575.414577 -213.619825
L 580.339555 -213.630301
L 585.264533 -213.639747
L 590.189511 -213.648263
L 595.114489 -213.655942
L 595.114489 -261.72693
L 595.114489 -261.72693
L 590.189511 -261.725236
L 585.264533 -261.723271
L 580.339555 -261.720991
L 575.414577 -261.718344
L 570.489599 -261.715267
L 565.564621 -261.711688
L 560.639643 -261.707522
L 555.714665 -261.702671
L 550.789687 -261.697015
L 545.864709 -261.690419
L 540.939731 -261.682719
L 536.014753 -261.673726
L 531.089775 -261.663213
L 526.164798 -261.650918
L 521.23982 -261.636526
L 516.314842 -261.619671
L 511.389864 -261.599918
L 506.464886 -261.576755
L 501.539908 -261.549575
L 496.61493 -261.517664
L 491.689952 -261.480175
L 486.764974 -261.436109
L 481.839996 -261.384281
L 476.915018 -261.323291
L 471.99004 -261.25148
L 467.065062 -261.166882
L 462.140084 -261.067167
L 457.215106 -260.949571
L 452.290129 -260.810816
L 447.365151 -260.596841
L 442.440173 -260.388253
L 437.515195 -260.15294
L 432.590217 -259.40874
L 427.665239 -257.117529
L 422.740261 -254.239338
L 417.815283 -251.527325
L 412.890305 -248.76368
L 407.965327 -244.540753
L 403.040349 -241.363221
L 398.115371 -238.211342
L 393.190393 -235.109268
L 388.265415 -232.003678
L 383.340437 -228.024251
L 378.41546 -224.666766
z
" id="mb59d2e39ff"/>
    </defs>
    <g clip-path="url(#p056f72d309)">
     <use style="fill:#2ca02c;fill-opacity:0.2;" x="0" xlink:href="#mb59d2e39ff" y="460.052696"/>
    </g>
   </g>
   <g id="PolyCollection_4">
    <defs>
     <path d="M 378.41546 -224.666766
L 378.41546 -187.732283
L 383.340437 -190.08276
L 388.265415 -192.576536
L 393.190393 -194.674707
L 398.115371 -196.335161
L 403.040349 -197.62923
L 407.965327 -198.564609
L 412.890305 -199.16799
L 417.815283 -199.483939
L 422.740261 -199.637871
L 427.665239 -199.770306
L 432.590217 -199.884262
L 437.515195 -199.982327
L 442.440173 -200.066726
L 447.365151 -200.13937
L 452.290129 -200.201903
L 457.215106 -200.255736
L 462.140084 -200.302083
L 467.065062 -200.341989
L 471.99004 -200.37635
L 476.915018 -200.405939
L 481.839996 -200.431421
L 486.764974 -200.453367
L 491.689952 -200.472269
L 496.61493 -200.48855
L 501.539908 -200.502575
L 506.464886 -200.514657
L 511.389864 -200.525065
L 516.314842 -200.534033
L 521.23982 -200.541759
L 526.164798 -200.548417
L 531.089775 -200.554154
L 536.014753 -200.559098
L 540.939731 -200.563359
L 545.864709 -200.567031
L 550.789687 -200.570197
L 555.714665 -200.572925
L 560.639643 -200.575277
L 565.564621 -200.577305
L 570.489599 -200.579053
L 575.414577 -200.580561
L 580.339555 -200.581861
L 585.264533 -200.582981
L 590.189511 -200.583948
L 595.114489 -200.584782
L 595.114489 -244.030386
L 595.114489 -244.030386
L 590.189511 -244.027254
L 585.264533 -244.023722
L 580.339555 -244.019736
L 575.414577 -244.015239
L 570.489599 -244.010165
L 565.564621 -244.00444
L 560.639643 -243.997981
L 555.714665 -243.990692
L 550.789687 -243.982468
L 545.864709 -243.973188
L 540.939731 -243.962716
L 536.014753 -243.9509
L 531.089775 -243.937566
L 526.164798 -243.922519
L 521.23982 -243.905538
L 516.314842 -243.886374
L 511.389864 -243.864747
L 506.464886 -243.84034
L 501.539908 -243.812793
L 496.61493 -243.781703
L 491.689952 -243.746612
L 486.764974 -243.707004
L 481.839996 -243.662297
L 476.915018 -243.611832
L 471.99004 -243.554865
L 467.065062 -243.490556
L 462.140084 -243.417955
L 457.215106 -243.335989
L 452.290129 -243.243444
L 447.365151 -243.138949
L 442.440173 -243.020952
L 437.515195 -242.887699
L 432.590217 -242.713195
L 427.665239 -242.445984
L 422.740261 -242.143564
L 417.815283 -241.45243
L 412.890305 -240.412487
L 407.965327 -239.378777
L 403.040349 -237.972524
L 398.115371 -236.639509
L 393.190393 -234.519579
L 388.265415 -231.907272
L 383.340437 -228.024251
L 378.41546 -224.666766
z
" id="ma2602f982b"/>
    </defs>
    <g clip-path="url(#p056f72d309)">
     <use style="fill-opacity:0.2;" x="0" xlink:href="#ma2602f982b" y="460.052696"/>
    </g>
   </g>
   <g id="matplotlib.axis_1">
    <g id="xtick_1">
     <g id="line2d_2">
      <defs>
       <path d="M 0 0
L 0 3.5
" id="m437a51f071" style="stroke:#000000;stroke-width:0.8;"/>
      </defs>
      <g>
       <use style="stroke:#000000;stroke-width:0.8;" x="107.541673" xlink:href="#m437a51f071" y="394.735256"/>
      </g>
     </g>
     <g id="text_1">
      <!-- 2021-12-01 -->
      <g transform="translate(56.172222 437.373509)rotate(-30)scale(0.1 -0.1)">
       <defs>
        <path d="M 1228 531
L 3431 531
L 3431 0
L 469 0
L 469 531
Q 828 903 1448 1529
Q 2069 2156 2228 2338
Q 2531 2678 2651 2914
Q 2772 3150 2772 3378
Q 2772 3750 2511 3984
Q 2250 4219 1831 4219
Q 1534 4219 1204 4116
Q 875 4013 500 3803
L 500 4441
Q 881 4594 1212 4672
Q 1544 4750 1819 4750
Q 2544 4750 2975 4387
Q 3406 4025 3406 3419
Q 3406 3131 3298 2873
Q 3191 2616 2906 2266
Q 2828 2175 2409 1742
Q 1991 1309 1228 531
z
" id="DejaVuSans-32" transform="scale(0.015625)"/>
        <path d="M 2034 4250
Q 1547 4250 1301 3770
Q 1056 3291 1056 2328
Q 1056 1369 1301 889
Q 1547 409 2034 409
Q 2525 409 2770 889
Q 3016 1369 3016 2328
Q 3016 3291 2770 3770
Q 2525 4250 2034 4250
z
M 2034 4750
Q 2819 4750 3233 4129
Q 3647 3509 3647 2328
Q 3647 1150 3233 529
Q 2819 -91 2034 -91
Q 1250 -91 836 529
Q 422 1150 422 2328
Q 422 3509 836 4129
Q 1250 4750 2034 4750
z
" id="DejaVuSans-30" transform="scale(0.015625)"/>
        <path d="M 794 531
L 1825 531
L 1825 4091
L 703 3866
L 703 4441
L 1819 4666
L 2450 4666
L 2450 531
L 3481 531
L 3481 0
L 794 0
L 794 531
z
" id="DejaVuSans-31" transform="scale(0.015625)"/>
        <path d="M 313 2009
L 1997 2009
L 1997 1497
L 313 1497
L 313 2009
z
" id="DejaVuSans-2d" transform="scale(0.015625)"/>
       </defs>
       <use xlink:href="#DejaVuSans-32"/>
       <use x="63.623047" xlink:href="#DejaVuSans-30"/>
       <use x="127.246094" xlink:href="#DejaVuSans-32"/>
       <use x="190.869141" xlink:href="#DejaVuSans-31"/>
       <use x="254.492188" xlink:href="#DejaVuSans-2d"/>
       <use x="290.576172" xlink:href="#DejaVuSans-31"/>
       <use x="354.199219" xlink:href="#DejaVuSans-32"/>
       <use x="417.822266" xlink:href="#DejaVuSans-2d"/>
       <use x="453.90625" xlink:href="#DejaVuSans-30"/>
       <use x="517.529297" xlink:href="#DejaVuSans-31"/>
      </g>
     </g>
    </g>
    <g id="xtick_2">
     <g id="line2d_3">
      <g>
       <use style="stroke:#000000;stroke-width:0.8;" x="176.491364" xlink:href="#m437a51f071" y="394.735256"/>
      </g>
     </g>
     <g id="text_2">
      <!-- 2021-12-15 -->
      <g transform="translate(125.121913 437.373509)rotate(-30)scale(0.1 -0.1)">
       <defs>
        <path d="M 691 4666
L 3169 4666
L 3169 4134
L 1269 4134
L 1269 2991
Q 1406 3038 1543 3061
Q 1681 3084 1819 3084
Q 2600 3084 3056 2656
Q 3513 2228 3513 1497
Q 3513 744 3044 326
Q 2575 -91 1722 -91
Q 1428 -91 1123 -41
Q 819 9 494 109
L 494 744
Q 775 591 1075 516
Q 1375 441 1709 441
Q 2250 441 2565 725
Q 2881 1009 2881 1497
Q 2881 1984 2565 2268
Q 2250 2553 1709 2553
Q 1456 2553 1204 2497
Q 953 2441 691 2322
L 691 4666
z
" id="DejaVuSans-35" transform="scale(0.015625)"/>
       </defs>
       <use xlink:href="#DejaVuSans-32"/>
       <use x="63.623047" xlink:href="#DejaVuSans-30"/>
       <use x="127.246094" xlink:href="#DejaVuSans-32"/>
       <use x="190.869141" xlink:href="#DejaVuSans-31"/>
       <use x="254.492188" xlink:href="#DejaVuSans-2d"/>
       <use x="290.576172" xlink:href="#DejaVuSans-31"/>
       <use x="354.199219" xlink:href="#DejaVuSans-32"/>
       <use x="417.822266" xlink:href="#DejaVuSans-2d"/>
       <use x="453.90625" xlink:href="#DejaVuSans-31"/>
       <use x="517.529297" xlink:href="#DejaVuSans-35"/>
      </g>
     </g>
    </g>
    <g id="xtick_3">
     <g id="line2d_4">
      <g>
       <use style="stroke:#000000;stroke-width:0.8;" x="260.215989" xlink:href="#m437a51f071" y="394.735256"/>
      </g>
     </g>
     <g id="text_3">
      <!-- 2022-01-01 -->
      <g transform="translate(208.846538 437.373509)rotate(-30)scale(0.1 -0.1)">
       <use xlink:href="#DejaVuSans-32"/>
       <use x="63.623047" xlink:href="#DejaVuSans-30"/>
       <use x="127.246094" xlink:href="#DejaVuSans-32"/>
       <use x="190.869141" xlink:href="#DejaVuSans-32"/>
       <use x="254.492188" xlink:href="#DejaVuSans-2d"/>
       <use x="290.576172" xlink:href="#DejaVuSans-30"/>
       <use x="354.199219" xlink:href="#DejaVuSans-31"/>
       <use x="417.822266" xlink:href="#DejaVuSans-2d"/>
       <use x="453.90625" xlink:href="#DejaVuSans-30"/>
       <use x="517.529297" xlink:href="#DejaVuSans-31"/>
      </g>
     </g>
    </g>
    <g id="xtick_4">
     <g id="line2d_5">
      <g>
       <use style="stroke:#000000;stroke-width:0.8;" x="329.16568" xlink:href="#m437a51f071" y="394.735256"/>
      </g>
     </g>
     <g id="text_4">
      <!-- 2022-01-15 -->
      <g transform="translate(277.796229 437.373509)rotate(-30)scale(0.1 -0.1)">
       <use xlink:href="#DejaVuSans-32"/>
       <use x="63.623047" xlink:href="#DejaVuSans-30"/>
       <use x="127.246094" xlink:href="#DejaVuSans-32"/>
       <use x="190.869141" xlink:href="#DejaVuSans-32"/>
       <use x="254.492188" xlink:href="#DejaVuSans-2d"/>
       <use x="290.576172" xlink:href="#DejaVuSans-30"/>
       <use x="354.199219" xlink:href="#DejaVuSans-31"/>
       <use x="417.822266" xlink:href="#DejaVuSans-2d"/>
       <use x="453.90625" xlink:href="#DejaVuSans-31"/>
       <use x="517.529297" xlink:href="#DejaVuSans-35"/>
      </g>
     </g>
    </g>
    <g id="xtick_5">
     <g id="line2d_6">
      <g>
       <use style="stroke:#000000;stroke-width:0.8;" x="412.890305" xlink:href="#m437a51f071" y="394.735256"/>
      </g>
     </g>
     <g id="text_5">
      <!-- 2022-02-01 -->
      <g transform="translate(361.520854 437.373509)rotate(-30)scale(0.1 -0.1)">
       <use xlink:href="#DejaVuSans-32"/>
       <use x="63.623047" xlink:href="#DejaVuSans-30"/>
       <use x="127.246094" xlink:href="#DejaVuSans-32"/>
       <use x="190.869141" xlink:href="#DejaVuSans-32"/>
       <use x="254.492188" xlink:href="#DejaVuSans-2d"/>
       <use x="290.576172" xlink:href="#DejaVuSans-30"/>
       <use x="354.199219" xlink:href="#DejaVuSans-32"/>
       <use x="417.822266" xlink:href="#DejaVuSans-2d"/>
       <use x="453.90625" xlink:href="#DejaVuSans-30"/>
       <use x="517.529297" xlink:href="#DejaVuSans-31"/>
      </g>
     </g>
    </g>
    <g id="xtick_6">
     <g id="line2d_7">
      <g>
       <use style="stroke:#000000;stroke-width:0.8;" x="481.839996" xlink:href="#m437a51f071" y="394.735256"/>
      </g>
     </g>
     <g id="text_6">
      <!-- 2022-02-15 -->
      <g transform="translate(430.470545 437.373509)rotate(-30)scale(0.1 -0.1)">
       <use xlink:href="#DejaVuSans-32"/>
       <use x="63.623047" xlink:href="#DejaVuSans-30"/>
       <use x="127.246094" xlink:href="#DejaVuSans-32"/>
       <use x="190.869141" xlink:href="#DejaVuSans-32"/>
       <use x="254.492188" xlink:href="#DejaVuSans-2d"/>
       <use x="290.576172" xlink:href="#DejaVuSans-30"/>
       <use x="354.199219" xlink:href="#DejaVuSans-32"/>
       <use x="417.822266" xlink:href="#DejaVuSans-2d"/>
       <use x="453.90625" xlink:href="#DejaVuSans-31"/>
       <use x="517.529297" xlink:href="#DejaVuSans-35"/>
      </g>
     </g>
    </g>
    <g id="xtick_7">
     <g id="line2d_8">
      <g>
       <use style="stroke:#000000;stroke-width:0.8;" x="550.789687" xlink:href="#m437a51f071" y="394.735256"/>
      </g>
     </g>
     <g id="text_7">
      <!-- 2022-03-01 -->
      <g transform="translate(499.420236 437.373509)rotate(-30)scale(0.1 -0.1)">
       <defs>
        <path d="M 2597 2516
Q 3050 2419 3304 2112
Q 3559 1806 3559 1356
Q 3559 666 3084 287
Q 2609 -91 1734 -91
Q 1441 -91 1130 -33
Q 819 25 488 141
L 488 750
Q 750 597 1062 519
Q 1375 441 1716 441
Q 2309 441 2620 675
Q 2931 909 2931 1356
Q 2931 1769 2642 2001
Q 2353 2234 1838 2234
L 1294 2234
L 1294 2753
L 1863 2753
Q 2328 2753 2575 2939
Q 2822 3125 2822 3475
Q 2822 3834 2567 4026
Q 2313 4219 1838 4219
Q 1578 4219 1281 4162
Q 984 4106 628 3988
L 628 4550
Q 988 4650 1302 4700
Q 1616 4750 1894 4750
Q 2613 4750 3031 4423
Q 3450 4097 3450 3541
Q 3450 3153 3228 2886
Q 3006 2619 2597 2516
z
" id="DejaVuSans-33" transform="scale(0.015625)"/>
       </defs>
       <use xlink:href="#DejaVuSans-32"/>
       <use x="63.623047" xlink:href="#DejaVuSans-30"/>
       <use x="127.246094" xlink:href="#DejaVuSans-32"/>
       <use x="190.869141" xlink:href="#DejaVuSans-32"/>
       <use x="254.492188" xlink:href="#DejaVuSans-2d"/>
       <use x="290.576172" xlink:href="#DejaVuSans-30"/>
       <use x="354.199219" xlink:href="#DejaVuSans-33"/>
       <use x="417.822266" xlink:href="#DejaVuSans-2d"/>
       <use x="453.90625" xlink:href="#DejaVuSans-30"/>
       <use x="517.529297" xlink:href="#DejaVuSans-31"/>
      </g>
     </g>
    </g>
    <g id="xtick_8">
     <g id="line2d_9">
      <g>
       <use style="stroke:#000000;stroke-width:0.8;" x="619.739378" xlink:href="#m437a51f071" y="394.735256"/>
      </g>
     </g>
     <g id="text_8">
      <!-- 2022-03-15 -->
      <g transform="translate(568.369927 437.373509)rotate(-30)scale(0.1 -0.1)">
       <use xlink:href="#DejaVuSans-32"/>
       <use x="63.623047" xlink:href="#DejaVuSans-30"/>
       <use x="127.246094" xlink:href="#DejaVuSans-32"/>
       <use x="190.869141" xlink:href="#DejaVuSans-32"/>
       <use x="254.492188" xlink:href="#DejaVuSans-2d"/>
       <use x="290.576172" xlink:href="#DejaVuSans-30"/>
       <use x="354.199219" xlink:href="#DejaVuSans-33"/>
       <use x="417.822266" xlink:href="#DejaVuSans-2d"/>
       <use x="453.90625" xlink:href="#DejaVuSans-31"/>
       <use x="517.529297" xlink:href="#DejaVuSans-35"/>
      </g>
     </g>
    </g>
    <g id="text_9">
     <!-- Time -->
     <g transform="translate(329.244531 450.773008)scale(0.1 -0.1)">
      <defs>
       <path d="M -19 4666
L 3928 4666
L 3928 4134
L 2272 4134
L 2272 0
L 1638 0
L 1638 4134
L -19 4134
L -19 4666
z
" id="DejaVuSans-54" transform="scale(0.015625)"/>
       <path d="M 603 3500
L 1178 3500
L 1178 0
L 603 0
L 603 3500
z
M 603 4863
L 1178 4863
L 1178 4134
L 603 4134
L 603 4863
z
" id="DejaVuSans-69" transform="scale(0.015625)"/>
       <path d="M 3328 2828
Q 3544 3216 3844 3400
Q 4144 3584 4550 3584
Q 5097 3584 5394 3201
Q 5691 2819 5691 2113
L 5691 0
L 5113 0
L 5113 2094
Q 5113 2597 4934 2840
Q 4756 3084 4391 3084
Q 3944 3084 3684 2787
Q 3425 2491 3425 1978
L 3425 0
L 2847 0
L 2847 2094
Q 2847 2600 2669 2842
Q 2491 3084 2119 3084
Q 1678 3084 1418 2786
Q 1159 2488 1159 1978
L 1159 0
L 581 0
L 581 3500
L 1159 3500
L 1159 2956
Q 1356 3278 1631 3431
Q 1906 3584 2284 3584
Q 2666 3584 2933 3390
Q 3200 3197 3328 2828
z
" id="DejaVuSans-6d" transform="scale(0.015625)"/>
       <path d="M 3597 1894
L 3597 1613
L 953 1613
Q 991 1019 1311 708
Q 1631 397 2203 397
Q 2534 397 2845 478
Q 3156 559 3463 722
L 3463 178
Q 3153 47 2828 -22
Q 2503 -91 2169 -91
Q 1331 -91 842 396
Q 353 884 353 1716
Q 353 2575 817 3079
Q 1281 3584 2069 3584
Q 2775 3584 3186 3129
Q 3597 2675 3597 1894
z
M 3022 2063
Q 3016 2534 2758 2815
Q 2500 3097 2075 3097
Q 1594 3097 1305 2825
Q 1016 2553 972 2059
L 3022 2063
z
" id="DejaVuSans-65" transform="scale(0.015625)"/>
      </defs>
      <use xlink:href="#DejaVuSans-54"/>
      <use x="57.958984" xlink:href="#DejaVuSans-69"/>
      <use x="85.742188" xlink:href="#DejaVuSans-6d"/>
      <use x="183.154297" xlink:href="#DejaVuSans-65"/>
     </g>
    </g>
   </g>
   <g id="matplotlib.axis_2">
    <g id="ytick_1">
     <g id="line2d_10">
      <defs>
       <path d="M 0 0
L -3.5 0
" id="m1c4e862c93" style="stroke:#000000;stroke-width:0.8;"/>
      </defs>
      <g>
       <use style="stroke:#000000;stroke-width:0.8;" x="62.478125" xlink:href="#m1c4e862c93" y="266.818276"/>
      </g>
     </g>
     <g id="text_10">
      <!-- $\mathdefault{10^{6}}$ -->
      <g transform="translate(37.878125 270.617495)scale(0.1 -0.1)">
       <defs>
        <path d="M 2113 2584
Q 1688 2584 1439 2293
Q 1191 2003 1191 1497
Q 1191 994 1439 701
Q 1688 409 2113 409
Q 2538 409 2786 701
Q 3034 994 3034 1497
Q 3034 2003 2786 2293
Q 2538 2584 2113 2584
z
M 3366 4563
L 3366 3988
Q 3128 4100 2886 4159
Q 2644 4219 2406 4219
Q 1781 4219 1451 3797
Q 1122 3375 1075 2522
Q 1259 2794 1537 2939
Q 1816 3084 2150 3084
Q 2853 3084 3261 2657
Q 3669 2231 3669 1497
Q 3669 778 3244 343
Q 2819 -91 2113 -91
Q 1303 -91 875 529
Q 447 1150 447 2328
Q 447 3434 972 4092
Q 1497 4750 2381 4750
Q 2619 4750 2861 4703
Q 3103 4656 3366 4563
z
" id="DejaVuSans-36" transform="scale(0.015625)"/>
       </defs>
       <use transform="translate(0 0.765625)" xlink:href="#DejaVuSans-31"/>
       <use transform="translate(63.623047 0.765625)" xlink:href="#DejaVuSans-30"/>
       <use transform="translate(128.203125 39.046875)scale(0.7)" xlink:href="#DejaVuSans-36"/>
      </g>
     </g>
    </g>
    <g id="ytick_2">
     <g id="line2d_11">
      <defs>
       <path d="M 0 0
L -2 0
" id="m8c1065e0b2" style="stroke:#000000;stroke-width:0.6;"/>
      </defs>
      <g>
       <use style="stroke:#000000;stroke-width:0.6;" x="62.478125" xlink:href="#m8c1065e0b2" y="366.736932"/>
      </g>
     </g>
    </g>
    <g id="ytick_3">
     <g id="line2d_12">
      <g>
       <use style="stroke:#000000;stroke-width:0.6;" x="62.478125" xlink:href="#m8c1065e0b2" y="329.329546"/>
      </g>
     </g>
    </g>
    <g id="ytick_4">
     <g id="line2d_13">
      <g>
       <use style="stroke:#000000;stroke-width:0.6;" x="62.478125" xlink:href="#m8c1065e0b2" y="296.333894"/>
      </g>
     </g>
    </g>
    <g id="ytick_5">
     <g id="line2d_14">
      <g>
       <use style="stroke:#000000;stroke-width:0.6;" x="62.478125" xlink:href="#m8c1065e0b2" y="72.640537"/>
      </g>
     </g>
     <g id="text_11">
      <!-- $\mathdefault{2\times10^{6}}$ -->
      <g transform="translate(20.878125 76.439756)scale(0.1 -0.1)">
       <defs>
        <path d="M 4488 3438
L 3059 2003
L 4488 575
L 4116 197
L 2681 1631
L 1247 197
L 878 575
L 2303 2003
L 878 3438
L 1247 3816
L 2681 2381
L 4116 3816
L 4488 3438
z
" id="DejaVuSans-d7" transform="scale(0.015625)"/>
       </defs>
       <use transform="translate(0 0.765625)" xlink:href="#DejaVuSans-32"/>
       <use transform="translate(83.105469 0.765625)" xlink:href="#DejaVuSans-d7"/>
       <use transform="translate(186.376953 0.765625)" xlink:href="#DejaVuSans-31"/>
       <use transform="translate(250 0.765625)" xlink:href="#DejaVuSans-30"/>
       <use transform="translate(314.580078 39.046875)scale(0.7)" xlink:href="#DejaVuSans-36"/>
      </g>
     </g>
    </g>
    <g id="text_12">
     <!-- Cumulative confirmed cases -->
     <g transform="translate(14.798438 294.405725)rotate(-90)scale(0.1 -0.1)">
      <defs>
       <path d="M 4122 4306
L 4122 3641
Q 3803 3938 3442 4084
Q 3081 4231 2675 4231
Q 1875 4231 1450 3742
Q 1025 3253 1025 2328
Q 1025 1406 1450 917
Q 1875 428 2675 428
Q 3081 428 3442 575
Q 3803 722 4122 1019
L 4122 359
Q 3791 134 3420 21
Q 3050 -91 2638 -91
Q 1578 -91 968 557
Q 359 1206 359 2328
Q 359 3453 968 4101
Q 1578 4750 2638 4750
Q 3056 4750 3426 4639
Q 3797 4528 4122 4306
z
" id="DejaVuSans-43" transform="scale(0.015625)"/>
       <path d="M 544 1381
L 544 3500
L 1119 3500
L 1119 1403
Q 1119 906 1312 657
Q 1506 409 1894 409
Q 2359 409 2629 706
Q 2900 1003 2900 1516
L 2900 3500
L 3475 3500
L 3475 0
L 2900 0
L 2900 538
Q 2691 219 2414 64
Q 2138 -91 1772 -91
Q 1169 -91 856 284
Q 544 659 544 1381
z
M 1991 3584
L 1991 3584
z
" id="DejaVuSans-75" transform="scale(0.015625)"/>
       <path d="M 603 4863
L 1178 4863
L 1178 0
L 603 0
L 603 4863
z
" id="DejaVuSans-6c" transform="scale(0.015625)"/>
       <path d="M 2194 1759
Q 1497 1759 1228 1600
Q 959 1441 959 1056
Q 959 750 1161 570
Q 1363 391 1709 391
Q 2188 391 2477 730
Q 2766 1069 2766 1631
L 2766 1759
L 2194 1759
z
M 3341 1997
L 3341 0
L 2766 0
L 2766 531
Q 2569 213 2275 61
Q 1981 -91 1556 -91
Q 1019 -91 701 211
Q 384 513 384 1019
Q 384 1609 779 1909
Q 1175 2209 1959 2209
L 2766 2209
L 2766 2266
Q 2766 2663 2505 2880
Q 2244 3097 1772 3097
Q 1472 3097 1187 3025
Q 903 2953 641 2809
L 641 3341
Q 956 3463 1253 3523
Q 1550 3584 1831 3584
Q 2591 3584 2966 3190
Q 3341 2797 3341 1997
z
" id="DejaVuSans-61" transform="scale(0.015625)"/>
       <path d="M 1172 4494
L 1172 3500
L 2356 3500
L 2356 3053
L 1172 3053
L 1172 1153
Q 1172 725 1289 603
Q 1406 481 1766 481
L 2356 481
L 2356 0
L 1766 0
Q 1100 0 847 248
Q 594 497 594 1153
L 594 3053
L 172 3053
L 172 3500
L 594 3500
L 594 4494
L 1172 4494
z
" id="DejaVuSans-74" transform="scale(0.015625)"/>
       <path d="M 191 3500
L 800 3500
L 1894 563
L 2988 3500
L 3597 3500
L 2284 0
L 1503 0
L 191 3500
z
" id="DejaVuSans-76" transform="scale(0.015625)"/>
       <path id="DejaVuSans-20" transform="scale(0.015625)"/>
       <path d="M 3122 3366
L 3122 2828
Q 2878 2963 2633 3030
Q 2388 3097 2138 3097
Q 1578 3097 1268 2742
Q 959 2388 959 1747
Q 959 1106 1268 751
Q 1578 397 2138 397
Q 2388 397 2633 464
Q 2878 531 3122 666
L 3122 134
Q 2881 22 2623 -34
Q 2366 -91 2075 -91
Q 1284 -91 818 406
Q 353 903 353 1747
Q 353 2603 823 3093
Q 1294 3584 2113 3584
Q 2378 3584 2631 3529
Q 2884 3475 3122 3366
z
" id="DejaVuSans-63" transform="scale(0.015625)"/>
       <path d="M 1959 3097
Q 1497 3097 1228 2736
Q 959 2375 959 1747
Q 959 1119 1226 758
Q 1494 397 1959 397
Q 2419 397 2687 759
Q 2956 1122 2956 1747
Q 2956 2369 2687 2733
Q 2419 3097 1959 3097
z
M 1959 3584
Q 2709 3584 3137 3096
Q 3566 2609 3566 1747
Q 3566 888 3137 398
Q 2709 -91 1959 -91
Q 1206 -91 779 398
Q 353 888 353 1747
Q 353 2609 779 3096
Q 1206 3584 1959 3584
z
" id="DejaVuSans-6f" transform="scale(0.015625)"/>
       <path d="M 3513 2113
L 3513 0
L 2938 0
L 2938 2094
Q 2938 2591 2744 2837
Q 2550 3084 2163 3084
Q 1697 3084 1428 2787
Q 1159 2491 1159 1978
L 1159 0
L 581 0
L 581 3500
L 1159 3500
L 1159 2956
Q 1366 3272 1645 3428
Q 1925 3584 2291 3584
Q 2894 3584 3203 3211
Q 3513 2838 3513 2113
z
" id="DejaVuSans-6e" transform="scale(0.015625)"/>
       <path d="M 2375 4863
L 2375 4384
L 1825 4384
Q 1516 4384 1395 4259
Q 1275 4134 1275 3809
L 1275 3500
L 2222 3500
L 2222 3053
L 1275 3053
L 1275 0
L 697 0
L 697 3053
L 147 3053
L 147 3500
L 697 3500
L 697 3744
Q 697 4328 969 4595
Q 1241 4863 1831 4863
L 2375 4863
z
" id="DejaVuSans-66" transform="scale(0.015625)"/>
       <path d="M 2631 2963
Q 2534 3019 2420 3045
Q 2306 3072 2169 3072
Q 1681 3072 1420 2755
Q 1159 2438 1159 1844
L 1159 0
L 581 0
L 581 3500
L 1159 3500
L 1159 2956
Q 1341 3275 1631 3429
Q 1922 3584 2338 3584
Q 2397 3584 2469 3576
Q 2541 3569 2628 3553
L 2631 2963
z
" id="DejaVuSans-72" transform="scale(0.015625)"/>
       <path d="M 2906 2969
L 2906 4863
L 3481 4863
L 3481 0
L 2906 0
L 2906 525
Q 2725 213 2448 61
Q 2172 -91 1784 -91
Q 1150 -91 751 415
Q 353 922 353 1747
Q 353 2572 751 3078
Q 1150 3584 1784 3584
Q 2172 3584 2448 3432
Q 2725 3281 2906 2969
z
M 947 1747
Q 947 1113 1208 752
Q 1469 391 1925 391
Q 2381 391 2643 752
Q 2906 1113 2906 1747
Q 2906 2381 2643 2742
Q 2381 3103 1925 3103
Q 1469 3103 1208 2742
Q 947 2381 947 1747
z
" id="DejaVuSans-64" transform="scale(0.015625)"/>
       <path d="M 2834 3397
L 2834 2853
Q 2591 2978 2328 3040
Q 2066 3103 1784 3103
Q 1356 3103 1142 2972
Q 928 2841 928 2578
Q 928 2378 1081 2264
Q 1234 2150 1697 2047
L 1894 2003
Q 2506 1872 2764 1633
Q 3022 1394 3022 966
Q 3022 478 2636 193
Q 2250 -91 1575 -91
Q 1294 -91 989 -36
Q 684 19 347 128
L 347 722
Q 666 556 975 473
Q 1284 391 1588 391
Q 1994 391 2212 530
Q 2431 669 2431 922
Q 2431 1156 2273 1281
Q 2116 1406 1581 1522
L 1381 1569
Q 847 1681 609 1914
Q 372 2147 372 2553
Q 372 3047 722 3315
Q 1072 3584 1716 3584
Q 2034 3584 2315 3537
Q 2597 3491 2834 3397
z
" id="DejaVuSans-73" transform="scale(0.015625)"/>
      </defs>
      <use xlink:href="#DejaVuSans-43"/>
      <use x="69.824219" xlink:href="#DejaVuSans-75"/>
      <use x="133.203125" xlink:href="#DejaVuSans-6d"/>
      <use x="230.615234" xlink:href="#DejaVuSans-75"/>
      <use x="293.994141" xlink:href="#DejaVuSans-6c"/>
      <use x="321.777344" xlink:href="#DejaVuSans-61"/>
      <use x="383.056641" xlink:href="#DejaVuSans-74"/>
      <use x="422.265625" xlink:href="#DejaVuSans-69"/>
      <use x="450.048828" xlink:href="#DejaVuSans-76"/>
      <use x="509.228516" xlink:href="#DejaVuSans-65"/>
      <use x="570.751953" xlink:href="#DejaVuSans-20"/>
      <use x="602.539062" xlink:href="#DejaVuSans-63"/>
      <use x="657.519531" xlink:href="#DejaVuSans-6f"/>
      <use x="718.701172" xlink:href="#DejaVuSans-6e"/>
      <use x="782.080078" xlink:href="#DejaVuSans-66"/>
      <use x="817.285156" xlink:href="#DejaVuSans-69"/>
      <use x="845.068359" xlink:href="#DejaVuSans-72"/>
      <use x="884.431641" xlink:href="#DejaVuSans-6d"/>
      <use x="981.84375" xlink:href="#DejaVuSans-65"/>
      <use x="1043.367188" xlink:href="#DejaVuSans-64"/>
      <use x="1106.84375" xlink:href="#DejaVuSans-20"/>
      <use x="1138.630859" xlink:href="#DejaVuSans-63"/>
      <use x="1193.611328" xlink:href="#DejaVuSans-61"/>
      <use x="1254.890625" xlink:href="#DejaVuSans-73"/>
      <use x="1306.990234" xlink:href="#DejaVuSans-65"/>
      <use x="1368.513672" xlink:href="#DejaVuSans-73"/>
     </g>
    </g>
   </g>
   <g id="line2d_15">
    <path clip-path="url(#p056f72d309)" d="M 378.41546 257.137572
L 383.340437 253.805213
L 388.265415 250.432772
L 393.190393 247.344135
L 398.115371 243.984308
L 403.040349 241.050287
L 407.965327 237.90217
L 412.890305 233.898423
L 417.815283 229.718227
L 422.740261 225.821511
L 427.665239 222.250051
L 432.590217 219.072478
L 437.515195 216.02098
L 442.440173 212.679285
L 447.365151 209.190384
L 452.290129 205.794681
L 457.215106 202.450548
L 462.140084 198.762226
L 467.065062 195.290892
L 471.99004 191.825431
L 476.915018 189.024382
L 481.839996 185.36592
L 486.764974 181.612797
L 491.689952 177.956519
L 496.61493 174.688158
L 501.539908 171.428795
L 506.464886 168.179911
L 511.389864 164.942967
L 516.314842 161.719404
L 521.23982 158.510637
L 526.164798 155.378888
L 531.089775 152.569656
L 536.014753 149.709869
L 540.939731 146.88246
L 545.864709 144.148201
L 550.789687 141.49996
L 555.714665 138.882691
L 560.639643 136.297098
L 565.564621 133.743838
L 570.489599 131.223515
L 575.414577 128.674767
L 580.339555 125.896836
L 585.264533 123.150186
L 590.189511 120.914325
L 595.114489 118.755539
" style="fill:none;stroke:#9467bd;stroke-dasharray:3.7,1.6;stroke-dashoffset:0;"/>
   </g>
   <g id="line2d_16">
    <path clip-path="url(#p056f72d309)" d="M 378.41546 257.137572
L 383.340437 253.805213
L 388.265415 250.432772
L 393.190393 247.344135
L 398.115371 243.984308
L 403.040349 241.050287
L 407.965327 237.955023
L 412.890305 234.192128
L 417.815283 230.577736
L 422.740261 227.578467
L 427.665239 224.947319
L 432.590217 222.633697
L 437.515195 220.792078
L 442.440173 219.445521
L 447.365151 217.853235
L 452.290129 216.331263
L 457.215106 215.089996
L 462.140084 213.823741
L 467.065062 212.53511
L 471.99004 211.537408
L 476.915018 210.616508
L 481.839996 209.758199
L 486.764974 208.707291
L 491.689952 207.681369
L 496.61493 206.707296
L 501.539908 205.782273
L 506.464886 204.903667
L 511.389864 204.068999
L 516.314842 203.275938
L 521.23982 202.533963
L 526.164798 201.957851
L 531.089775 201.411802
L 536.014753 200.894191
L 540.939731 200.403485
L 545.864709 199.938238
L 550.789687 199.598496
L 555.714665 199.285753
L 560.639643 198.991397
L 565.564621 198.714325
L 570.489599 198.4535
L 575.414577 198.207949
L 580.339555 197.97676
L 585.264533 197.676249
L 590.189511 197.360644
L 595.114489 197.06125
" style="fill:none;stroke:#ff7f0e;stroke-dasharray:3.7,1.6;stroke-dashoffset:0;"/>
   </g>
   <g id="line2d_17">
    <path clip-path="url(#p056f72d309)" d="M 378.41546 257.137572
L 383.340437 253.805213
L 388.265415 250.432772
L 393.190393 247.344135
L 398.115371 243.984308
L 403.040349 241.050287
L 407.965327 237.997312
L 412.890305 234.42617
L 417.815283 231.256078
L 422.740261 228.920691
L 427.665239 227.017952
L 432.590217 225.530147
L 437.515195 224.227427
L 442.440173 223.492442
L 447.365151 222.979617
L 452.290129 222.668519
L 457.215106 222.436526
L 462.140084 222.22531
L 467.065062 222.032899
L 471.99004 221.857516
L 476.915018 221.697566
L 481.839996 221.551609
L 486.764974 221.418348
L 491.689952 221.296614
L 496.61493 221.185352
L 501.539908 221.086191
L 506.464886 221.017818
L 511.389864 220.956836
L 516.314842 220.902443
L 521.23982 220.853926
L 526.164798 220.810648
L 531.089775 220.772042
L 536.014753 220.737604
L 540.939731 220.706883
L 545.864709 220.679476
L 550.789687 220.655026
L 555.714665 220.633213
L 560.639643 220.613753
L 565.564621 220.596391
L 570.489599 220.580901
L 575.414577 220.567081
L 580.339555 220.55475
L 585.264533 220.543749
L 590.189511 220.533933
L 595.114489 220.525174
" style="fill:none;stroke:#2ca02c;stroke-dasharray:3.7,1.6;stroke-dashoffset:0;"/>
   </g>
   <g id="line2d_18">
    <path clip-path="url(#p056f72d309)" d="M 378.41546 257.137572
L 383.340437 253.805213
L 388.265415 250.557727
L 393.190393 248.039261
L 398.115371 245.903986
L 403.040349 243.97858
L 407.965327 242.549324
L 412.890305 241.655835
L 417.815283 241.273169
L 422.740261 241.017089
L 427.665239 240.786824
L 432.590217 240.576036
L 437.515195 240.384092
L 442.440173 240.209746
L 447.365151 240.061077
L 452.290129 239.928688
L 457.215106 239.810785
L 462.140084 239.709393
L 467.065062 239.639462
L 471.99004 239.577936
L 476.915018 239.523799
L 481.839996 239.476159
L 486.764974 239.434231
L 491.689952 239.397326
L 496.61493 239.364839
L 501.539908 239.336239
L 506.464886 239.311057
L 511.389864 239.288884
L 516.314842 239.269358
L 521.23982 239.252161
L 526.164798 239.237014
L 531.089775 239.223672
L 536.014753 239.211918
L 540.939731 239.201563
L 545.864709 239.192439
L 550.789687 239.1844
L 555.714665 239.177315
L 560.639643 239.171072
L 565.564621 239.165568
L 570.489599 239.160718
L 575.414577 239.156442
L 580.339555 239.152672
L 585.264533 239.149349
L 590.189511 239.146418
L 595.114489 239.143834
" style="fill:none;stroke:#000000;stroke-dasharray:3.7,1.6;stroke-dashoffset:0;"/>
   </g>
   <g id="patch_3">
    <path d="M 62.478125 394.735256
L 62.478125 52.015256
" style="fill:none;stroke:#000000;stroke-linecap:square;stroke-linejoin:miter;stroke-width:0.8;"/>
   </g>
   <g id="patch_4">
    <path d="M 620.478125 394.735256
L 620.478125 52.015256
" style="fill:none;stroke:#000000;stroke-linecap:square;stroke-linejoin:miter;stroke-width:0.8;"/>
   </g>
   <g id="patch_5">
    <path d="M 62.478125 394.735256
L 620.478125 394.735256
" style="fill:none;stroke:#000000;stroke-linecap:square;stroke-linejoin:miter;stroke-width:0.8;"/>
   </g>
   <g id="patch_6">
    <path d="M 62.478125 52.015256
L 620.478125 52.015256
" style="fill:none;stroke:#000000;stroke-linecap:square;stroke-linejoin:miter;stroke-width:0.8;"/>
   </g>
   <g id="text_13">
    <!-- Cumulative Confirmed Cases in Cook County as of 11/27/21 to 1/25/22 -->
    <g transform="translate(75.471875 18.597656)scale(0.15 -0.15)">
     <defs>
      <path d="M 581 4863
L 1159 4863
L 1159 1991
L 2875 3500
L 3609 3500
L 1753 1863
L 3688 0
L 2938 0
L 1159 1709
L 1159 0
L 581 0
L 581 4863
z
" id="DejaVuSans-6b" transform="scale(0.015625)"/>
      <path d="M 2059 -325
Q 1816 -950 1584 -1140
Q 1353 -1331 966 -1331
L 506 -1331
L 506 -850
L 844 -850
Q 1081 -850 1212 -737
Q 1344 -625 1503 -206
L 1606 56
L 191 3500
L 800 3500
L 1894 763
L 2988 3500
L 3597 3500
L 2059 -325
z
" id="DejaVuSans-79" transform="scale(0.015625)"/>
      <path d="M 1625 4666
L 2156 4666
L 531 -594
L 0 -594
L 1625 4666
z
" id="DejaVuSans-2f" transform="scale(0.015625)"/>
      <path d="M 525 4666
L 3525 4666
L 3525 4397
L 1831 0
L 1172 0
L 2766 4134
L 525 4134
L 525 4666
z
" id="DejaVuSans-37" transform="scale(0.015625)"/>
     </defs>
     <use xlink:href="#DejaVuSans-43"/>
     <use x="69.824219" xlink:href="#DejaVuSans-75"/>
     <use x="133.203125" xlink:href="#DejaVuSans-6d"/>
     <use x="230.615234" xlink:href="#DejaVuSans-75"/>
     <use x="293.994141" xlink:href="#DejaVuSans-6c"/>
     <use x="321.777344" xlink:href="#DejaVuSans-61"/>
     <use x="383.056641" xlink:href="#DejaVuSans-74"/>
     <use x="422.265625" xlink:href="#DejaVuSans-69"/>
     <use x="450.048828" xlink:href="#DejaVuSans-76"/>
     <use x="509.228516" xlink:href="#DejaVuSans-65"/>
     <use x="570.751953" xlink:href="#DejaVuSans-20"/>
     <use x="602.539062" xlink:href="#DejaVuSans-43"/>
     <use x="672.363281" xlink:href="#DejaVuSans-6f"/>
     <use x="733.544922" xlink:href="#DejaVuSans-6e"/>
     <use x="796.923828" xlink:href="#DejaVuSans-66"/>
     <use x="832.128906" xlink:href="#DejaVuSans-69"/>
     <use x="859.912109" xlink:href="#DejaVuSans-72"/>
     <use x="899.275391" xlink:href="#DejaVuSans-6d"/>
     <use x="996.6875" xlink:href="#DejaVuSans-65"/>
     <use x="1058.210938" xlink:href="#DejaVuSans-64"/>
     <use x="1121.6875" xlink:href="#DejaVuSans-20"/>
     <use x="1153.474609" xlink:href="#DejaVuSans-43"/>
     <use x="1223.298828" xlink:href="#DejaVuSans-61"/>
     <use x="1284.578125" xlink:href="#DejaVuSans-73"/>
     <use x="1336.677734" xlink:href="#DejaVuSans-65"/>
     <use x="1398.201172" xlink:href="#DejaVuSans-73"/>
     <use x="1450.300781" xlink:href="#DejaVuSans-20"/>
     <use x="1482.087891" xlink:href="#DejaVuSans-69"/>
     <use x="1509.871094" xlink:href="#DejaVuSans-6e"/>
     <use x="1573.25" xlink:href="#DejaVuSans-20"/>
     <use x="1605.037109" xlink:href="#DejaVuSans-43"/>
     <use x="1674.861328" xlink:href="#DejaVuSans-6f"/>
     <use x="1736.042969" xlink:href="#DejaVuSans-6f"/>
     <use x="1797.224609" xlink:href="#DejaVuSans-6b"/>
     <use x="1855.134766" xlink:href="#DejaVuSans-20"/>
     <use x="1886.921875" xlink:href="#DejaVuSans-43"/>
     <use x="1956.746094" xlink:href="#DejaVuSans-6f"/>
     <use x="2017.927734" xlink:href="#DejaVuSans-75"/>
     <use x="2081.306641" xlink:href="#DejaVuSans-6e"/>
     <use x="2144.685547" xlink:href="#DejaVuSans-74"/>
     <use x="2183.894531" xlink:href="#DejaVuSans-79"/>
     <use x="2243.074219" xlink:href="#DejaVuSans-20"/>
     <use x="2274.861328" xlink:href="#DejaVuSans-61"/>
     <use x="2336.140625" xlink:href="#DejaVuSans-73"/>
     <use x="2388.240234" xlink:href="#DejaVuSans-20"/>
     <use x="2420.027344" xlink:href="#DejaVuSans-6f"/>
     <use x="2481.208984" xlink:href="#DejaVuSans-66"/>
     <use x="2516.414062" xlink:href="#DejaVuSans-20"/>
     <use x="2548.201172" xlink:href="#DejaVuSans-31"/>
     <use x="2611.824219" xlink:href="#DejaVuSans-31"/>
     <use x="2675.447266" xlink:href="#DejaVuSans-2f"/>
     <use x="2709.138672" xlink:href="#DejaVuSans-32"/>
     <use x="2772.761719" xlink:href="#DejaVuSans-37"/>
     <use x="2836.384766" xlink:href="#DejaVuSans-2f"/>
     <use x="2870.076172" xlink:href="#DejaVuSans-32"/>
     <use x="2933.699219" xlink:href="#DejaVuSans-31"/>
     <use x="2997.322266" xlink:href="#DejaVuSans-20"/>
     <use x="3029.109375" xlink:href="#DejaVuSans-74"/>
     <use x="3068.318359" xlink:href="#DejaVuSans-6f"/>
     <use x="3129.5" xlink:href="#DejaVuSans-20"/>
     <use x="3161.287109" xlink:href="#DejaVuSans-31"/>
     <use x="3224.910156" xlink:href="#DejaVuSans-2f"/>
     <use x="3258.601562" xlink:href="#DejaVuSans-32"/>
     <use x="3322.224609" xlink:href="#DejaVuSans-35"/>
     <use x="3385.847656" xlink:href="#DejaVuSans-2f"/>
     <use x="3419.539062" xlink:href="#DejaVuSans-32"/>
     <use x="3483.162109" xlink:href="#DejaVuSans-32"/>
    </g>
   </g>
   <g id="legend_1">
    <g id="patch_7">
     <path d="M 69.478125 178.197131
L 311.4375 178.197131
Q 313.4375 178.197131 313.4375 176.197131
L 313.4375 59.015256
Q 313.4375 57.015256 311.4375 57.015256
L 69.478125 57.015256
Q 67.478125 57.015256 67.478125 59.015256
L 67.478125 176.197131
Q 67.478125 178.197131 69.478125 178.197131
z
" style="fill:#ffffff;opacity:0.8;stroke:#cccccc;stroke-linejoin:miter;"/>
    </g>
    <g id="line2d_19">
     <path d="M 71.478125 65.113694
L 91.478125 65.113694
" style="fill:none;stroke:#ff0000;stroke-linecap:square;"/>
    </g>
    <g id="line2d_20"/>
    <g id="text_14">
     <!-- Reported confirmed cases -->
     <g transform="translate(99.478125 68.613694)scale(0.1 -0.1)">
      <defs>
       <path d="M 2841 2188
Q 3044 2119 3236 1894
Q 3428 1669 3622 1275
L 4263 0
L 3584 0
L 2988 1197
Q 2756 1666 2539 1819
Q 2322 1972 1947 1972
L 1259 1972
L 1259 0
L 628 0
L 628 4666
L 2053 4666
Q 2853 4666 3247 4331
Q 3641 3997 3641 3322
Q 3641 2881 3436 2590
Q 3231 2300 2841 2188
z
M 1259 4147
L 1259 2491
L 2053 2491
Q 2509 2491 2742 2702
Q 2975 2913 2975 3322
Q 2975 3731 2742 3939
Q 2509 4147 2053 4147
L 1259 4147
z
" id="DejaVuSans-52" transform="scale(0.015625)"/>
       <path d="M 1159 525
L 1159 -1331
L 581 -1331
L 581 3500
L 1159 3500
L 1159 2969
Q 1341 3281 1617 3432
Q 1894 3584 2278 3584
Q 2916 3584 3314 3078
Q 3713 2572 3713 1747
Q 3713 922 3314 415
Q 2916 -91 2278 -91
Q 1894 -91 1617 61
Q 1341 213 1159 525
z
M 3116 1747
Q 3116 2381 2855 2742
Q 2594 3103 2138 3103
Q 1681 3103 1420 2742
Q 1159 2381 1159 1747
Q 1159 1113 1420 752
Q 1681 391 2138 391
Q 2594 391 2855 752
Q 3116 1113 3116 1747
z
" id="DejaVuSans-70" transform="scale(0.015625)"/>
      </defs>
      <use xlink:href="#DejaVuSans-52"/>
      <use x="64.982422" xlink:href="#DejaVuSans-65"/>
      <use x="126.505859" xlink:href="#DejaVuSans-70"/>
      <use x="189.982422" xlink:href="#DejaVuSans-6f"/>
      <use x="251.164062" xlink:href="#DejaVuSans-72"/>
      <use x="292.277344" xlink:href="#DejaVuSans-74"/>
      <use x="331.486328" xlink:href="#DejaVuSans-65"/>
      <use x="393.009766" xlink:href="#DejaVuSans-64"/>
      <use x="456.486328" xlink:href="#DejaVuSans-20"/>
      <use x="488.273438" xlink:href="#DejaVuSans-63"/>
      <use x="543.253906" xlink:href="#DejaVuSans-6f"/>
      <use x="604.435547" xlink:href="#DejaVuSans-6e"/>
      <use x="667.814453" xlink:href="#DejaVuSans-66"/>
      <use x="703.019531" xlink:href="#DejaVuSans-69"/>
      <use x="730.802734" xlink:href="#DejaVuSans-72"/>
      <use x="770.166016" xlink:href="#DejaVuSans-6d"/>
      <use x="867.578125" xlink:href="#DejaVuSans-65"/>
      <use x="929.101562" xlink:href="#DejaVuSans-64"/>
      <use x="992.578125" xlink:href="#DejaVuSans-20"/>
      <use x="1024.365234" xlink:href="#DejaVuSans-63"/>
      <use x="1079.345703" xlink:href="#DejaVuSans-61"/>
      <use x="1140.625" xlink:href="#DejaVuSans-73"/>
      <use x="1192.724609" xlink:href="#DejaVuSans-65"/>
      <use x="1254.248047" xlink:href="#DejaVuSans-73"/>
     </g>
    </g>
    <g id="line2d_21">
     <path d="M 71.478125 86.430569
L 91.478125 86.430569
" style="fill:none;stroke:#9467bd;stroke-dasharray:3.7,1.6;stroke-dashoffset:0;"/>
    </g>
    <g id="line2d_22"/>
    <g id="text_15">
     <!-- Uncontrolled spreading -->
     <g transform="translate(99.478125 83.291819)scale(0.1 -0.1)">
      <defs>
       <path d="M 556 4666
L 1191 4666
L 1191 1831
Q 1191 1081 1462 751
Q 1734 422 2344 422
Q 2950 422 3222 751
Q 3494 1081 3494 1831
L 3494 4666
L 4128 4666
L 4128 1753
Q 4128 841 3676 375
Q 3225 -91 2344 -91
Q 1459 -91 1007 375
Q 556 841 556 1753
L 556 4666
z
" id="DejaVuSans-55" transform="scale(0.015625)"/>
       <path d="M 2906 1791
Q 2906 2416 2648 2759
Q 2391 3103 1925 3103
Q 1463 3103 1205 2759
Q 947 2416 947 1791
Q 947 1169 1205 825
Q 1463 481 1925 481
Q 2391 481 2648 825
Q 2906 1169 2906 1791
z
M 3481 434
Q 3481 -459 3084 -895
Q 2688 -1331 1869 -1331
Q 1566 -1331 1297 -1286
Q 1028 -1241 775 -1147
L 775 -588
Q 1028 -725 1275 -790
Q 1522 -856 1778 -856
Q 2344 -856 2625 -561
Q 2906 -266 2906 331
L 2906 616
Q 2728 306 2450 153
Q 2172 0 1784 0
Q 1141 0 747 490
Q 353 981 353 1791
Q 353 2603 747 3093
Q 1141 3584 1784 3584
Q 2172 3584 2450 3431
Q 2728 3278 2906 2969
L 2906 3500
L 3481 3500
L 3481 434
z
" id="DejaVuSans-67" transform="scale(0.015625)"/>
      </defs>
      <use xlink:href="#DejaVuSans-55"/>
      <use x="73.193359" xlink:href="#DejaVuSans-6e"/>
      <use x="136.572266" xlink:href="#DejaVuSans-63"/>
      <use x="191.552734" xlink:href="#DejaVuSans-6f"/>
      <use x="252.734375" xlink:href="#DejaVuSans-6e"/>
      <use x="316.113281" xlink:href="#DejaVuSans-74"/>
      <use x="355.322266" xlink:href="#DejaVuSans-72"/>
      <use x="394.185547" xlink:href="#DejaVuSans-6f"/>
      <use x="455.367188" xlink:href="#DejaVuSans-6c"/>
      <use x="483.150391" xlink:href="#DejaVuSans-6c"/>
      <use x="510.933594" xlink:href="#DejaVuSans-65"/>
      <use x="572.457031" xlink:href="#DejaVuSans-64"/>
      <use x="635.933594" xlink:href="#DejaVuSans-20"/>
      <use x="667.720703" xlink:href="#DejaVuSans-73"/>
      <use x="719.820312" xlink:href="#DejaVuSans-70"/>
      <use x="783.296875" xlink:href="#DejaVuSans-72"/>
      <use x="822.160156" xlink:href="#DejaVuSans-65"/>
      <use x="883.683594" xlink:href="#DejaVuSans-61"/>
      <use x="944.962891" xlink:href="#DejaVuSans-64"/>
      <use x="1008.439453" xlink:href="#DejaVuSans-69"/>
      <use x="1036.222656" xlink:href="#DejaVuSans-6e"/>
      <use x="1099.601562" xlink:href="#DejaVuSans-67"/>
     </g>
     <!-- (median and 90% prediction intervals) -->
     <g transform="translate(99.478125 94.489631)scale(0.1 -0.1)">
      <defs>
       <path d="M 1984 4856
Q 1566 4138 1362 3434
Q 1159 2731 1159 2009
Q 1159 1288 1364 580
Q 1569 -128 1984 -844
L 1484 -844
Q 1016 -109 783 600
Q 550 1309 550 2009
Q 550 2706 781 3412
Q 1013 4119 1484 4856
L 1984 4856
z
" id="DejaVuSans-28" transform="scale(0.015625)"/>
       <path d="M 703 97
L 703 672
Q 941 559 1184 500
Q 1428 441 1663 441
Q 2288 441 2617 861
Q 2947 1281 2994 2138
Q 2813 1869 2534 1725
Q 2256 1581 1919 1581
Q 1219 1581 811 2004
Q 403 2428 403 3163
Q 403 3881 828 4315
Q 1253 4750 1959 4750
Q 2769 4750 3195 4129
Q 3622 3509 3622 2328
Q 3622 1225 3098 567
Q 2575 -91 1691 -91
Q 1453 -91 1209 -44
Q 966 3 703 97
z
M 1959 2075
Q 2384 2075 2632 2365
Q 2881 2656 2881 3163
Q 2881 3666 2632 3958
Q 2384 4250 1959 4250
Q 1534 4250 1286 3958
Q 1038 3666 1038 3163
Q 1038 2656 1286 2365
Q 1534 2075 1959 2075
z
" id="DejaVuSans-39" transform="scale(0.015625)"/>
       <path d="M 4653 2053
Q 4381 2053 4226 1822
Q 4072 1591 4072 1178
Q 4072 772 4226 539
Q 4381 306 4653 306
Q 4919 306 5073 539
Q 5228 772 5228 1178
Q 5228 1588 5073 1820
Q 4919 2053 4653 2053
z
M 4653 2450
Q 5147 2450 5437 2106
Q 5728 1763 5728 1178
Q 5728 594 5436 251
Q 5144 -91 4653 -91
Q 4153 -91 3862 251
Q 3572 594 3572 1178
Q 3572 1766 3864 2108
Q 4156 2450 4653 2450
z
M 1428 4353
Q 1159 4353 1004 4120
Q 850 3888 850 3481
Q 850 3069 1003 2837
Q 1156 2606 1428 2606
Q 1700 2606 1854 2837
Q 2009 3069 2009 3481
Q 2009 3884 1853 4118
Q 1697 4353 1428 4353
z
M 4250 4750
L 4750 4750
L 1831 -91
L 1331 -91
L 4250 4750
z
M 1428 4750
Q 1922 4750 2215 4408
Q 2509 4066 2509 3481
Q 2509 2891 2217 2550
Q 1925 2209 1428 2209
Q 931 2209 642 2551
Q 353 2894 353 3481
Q 353 4063 643 4406
Q 934 4750 1428 4750
z
" id="DejaVuSans-25" transform="scale(0.015625)"/>
       <path d="M 513 4856
L 1013 4856
Q 1481 4119 1714 3412
Q 1947 2706 1947 2009
Q 1947 1309 1714 600
Q 1481 -109 1013 -844
L 513 -844
Q 928 -128 1133 580
Q 1338 1288 1338 2009
Q 1338 2731 1133 3434
Q 928 4138 513 4856
z
" id="DejaVuSans-29" transform="scale(0.015625)"/>
      </defs>
      <use xlink:href="#DejaVuSans-28"/>
      <use x="39.013672" xlink:href="#DejaVuSans-6d"/>
      <use x="136.425781" xlink:href="#DejaVuSans-65"/>
      <use x="197.949219" xlink:href="#DejaVuSans-64"/>
      <use x="261.425781" xlink:href="#DejaVuSans-69"/>
      <use x="289.208984" xlink:href="#DejaVuSans-61"/>
      <use x="350.488281" xlink:href="#DejaVuSans-6e"/>
      <use x="413.867188" xlink:href="#DejaVuSans-20"/>
      <use x="445.654297" xlink:href="#DejaVuSans-61"/>
      <use x="506.933594" xlink:href="#DejaVuSans-6e"/>
      <use x="570.3125" xlink:href="#DejaVuSans-64"/>
      <use x="633.789062" xlink:href="#DejaVuSans-20"/>
      <use x="665.576172" xlink:href="#DejaVuSans-39"/>
      <use x="729.199219" xlink:href="#DejaVuSans-30"/>
      <use x="792.822266" xlink:href="#DejaVuSans-25"/>
      <use x="887.841797" xlink:href="#DejaVuSans-20"/>
      <use x="919.628906" xlink:href="#DejaVuSans-70"/>
      <use x="983.105469" xlink:href="#DejaVuSans-72"/>
      <use x="1021.96875" xlink:href="#DejaVuSans-65"/>
      <use x="1083.492188" xlink:href="#DejaVuSans-64"/>
      <use x="1146.96875" xlink:href="#DejaVuSans-69"/>
      <use x="1174.751953" xlink:href="#DejaVuSans-63"/>
      <use x="1229.732422" xlink:href="#DejaVuSans-74"/>
      <use x="1268.941406" xlink:href="#DejaVuSans-69"/>
      <use x="1296.724609" xlink:href="#DejaVuSans-6f"/>
      <use x="1357.90625" xlink:href="#DejaVuSans-6e"/>
      <use x="1421.285156" xlink:href="#DejaVuSans-20"/>
      <use x="1453.072266" xlink:href="#DejaVuSans-69"/>
      <use x="1480.855469" xlink:href="#DejaVuSans-6e"/>
      <use x="1544.234375" xlink:href="#DejaVuSans-74"/>
      <use x="1583.443359" xlink:href="#DejaVuSans-65"/>
      <use x="1644.966797" xlink:href="#DejaVuSans-72"/>
      <use x="1686.080078" xlink:href="#DejaVuSans-76"/>
      <use x="1745.259766" xlink:href="#DejaVuSans-61"/>
      <use x="1806.539062" xlink:href="#DejaVuSans-6c"/>
      <use x="1834.322266" xlink:href="#DejaVuSans-73"/>
      <use x="1886.421875" xlink:href="#DejaVuSans-29"/>
     </g>
    </g>
    <g id="line2d_23">
     <path d="M 71.478125 112.306506
L 91.478125 112.306506
" style="fill:none;stroke:#ff7f0e;stroke-dasharray:3.7,1.6;stroke-dashoffset:0;"/>
    </g>
    <g id="line2d_24"/>
    <g id="text_16">
     <!-- Mild social distancing -->
     <g transform="translate(99.478125 109.167756)scale(0.1 -0.1)">
      <defs>
       <path d="M 628 4666
L 1569 4666
L 2759 1491
L 3956 4666
L 4897 4666
L 4897 0
L 4281 0
L 4281 4097
L 3078 897
L 2444 897
L 1241 4097
L 1241 0
L 628 0
L 628 4666
z
" id="DejaVuSans-4d" transform="scale(0.015625)"/>
      </defs>
      <use xlink:href="#DejaVuSans-4d"/>
      <use x="86.279297" xlink:href="#DejaVuSans-69"/>
      <use x="114.0625" xlink:href="#DejaVuSans-6c"/>
      <use x="141.845703" xlink:href="#DejaVuSans-64"/>
      <use x="205.322266" xlink:href="#DejaVuSans-20"/>
      <use x="237.109375" xlink:href="#DejaVuSans-73"/>
      <use x="289.208984" xlink:href="#DejaVuSans-6f"/>
      <use x="350.390625" xlink:href="#DejaVuSans-63"/>
      <use x="405.371094" xlink:href="#DejaVuSans-69"/>
      <use x="433.154297" xlink:href="#DejaVuSans-61"/>
      <use x="494.433594" xlink:href="#DejaVuSans-6c"/>
      <use x="522.216797" xlink:href="#DejaVuSans-20"/>
      <use x="554.003906" xlink:href="#DejaVuSans-64"/>
      <use x="617.480469" xlink:href="#DejaVuSans-69"/>
      <use x="645.263672" xlink:href="#DejaVuSans-73"/>
      <use x="697.363281" xlink:href="#DejaVuSans-74"/>
      <use x="736.572266" xlink:href="#DejaVuSans-61"/>
      <use x="797.851562" xlink:href="#DejaVuSans-6e"/>
      <use x="861.230469" xlink:href="#DejaVuSans-63"/>
      <use x="916.210938" xlink:href="#DejaVuSans-69"/>
      <use x="943.994141" xlink:href="#DejaVuSans-6e"/>
      <use x="1007.373047" xlink:href="#DejaVuSans-67"/>
     </g>
     <!-- (median and 90% prediction intervals) -->
     <g transform="translate(99.478125 120.365569)scale(0.1 -0.1)">
      <use xlink:href="#DejaVuSans-28"/>
      <use x="39.013672" xlink:href="#DejaVuSans-6d"/>
      <use x="136.425781" xlink:href="#DejaVuSans-65"/>
      <use x="197.949219" xlink:href="#DejaVuSans-64"/>
      <use x="261.425781" xlink:href="#DejaVuSans-69"/>
      <use x="289.208984" xlink:href="#DejaVuSans-61"/>
      <use x="350.488281" xlink:href="#DejaVuSans-6e"/>
      <use x="413.867188" xlink:href="#DejaVuSans-20"/>
      <use x="445.654297" xlink:href="#DejaVuSans-61"/>
      <use x="506.933594" xlink:href="#DejaVuSans-6e"/>
      <use x="570.3125" xlink:href="#DejaVuSans-64"/>
      <use x="633.789062" xlink:href="#DejaVuSans-20"/>
      <use x="665.576172" xlink:href="#DejaVuSans-39"/>
      <use x="729.199219" xlink:href="#DejaVuSans-30"/>
      <use x="792.822266" xlink:href="#DejaVuSans-25"/>
      <use x="887.841797" xlink:href="#DejaVuSans-20"/>
      <use x="919.628906" xlink:href="#DejaVuSans-70"/>
      <use x="983.105469" xlink:href="#DejaVuSans-72"/>
      <use x="1021.96875" xlink:href="#DejaVuSans-65"/>
      <use x="1083.492188" xlink:href="#DejaVuSans-64"/>
      <use x="1146.96875" xlink:href="#DejaVuSans-69"/>
      <use x="1174.751953" xlink:href="#DejaVuSans-63"/>
      <use x="1229.732422" xlink:href="#DejaVuSans-74"/>
      <use x="1268.941406" xlink:href="#DejaVuSans-69"/>
      <use x="1296.724609" xlink:href="#DejaVuSans-6f"/>
      <use x="1357.90625" xlink:href="#DejaVuSans-6e"/>
      <use x="1421.285156" xlink:href="#DejaVuSans-20"/>
      <use x="1453.072266" xlink:href="#DejaVuSans-69"/>
      <use x="1480.855469" xlink:href="#DejaVuSans-6e"/>
      <use x="1544.234375" xlink:href="#DejaVuSans-74"/>
      <use x="1583.443359" xlink:href="#DejaVuSans-65"/>
      <use x="1644.966797" xlink:href="#DejaVuSans-72"/>
      <use x="1686.080078" xlink:href="#DejaVuSans-76"/>
      <use x="1745.259766" xlink:href="#DejaVuSans-61"/>
      <use x="1806.539062" xlink:href="#DejaVuSans-6c"/>
      <use x="1834.322266" xlink:href="#DejaVuSans-73"/>
      <use x="1886.421875" xlink:href="#DejaVuSans-29"/>
     </g>
    </g>
    <g id="line2d_25">
     <path d="M 71.478125 138.182444
L 91.478125 138.182444
" style="fill:none;stroke:#2ca02c;stroke-dasharray:3.7,1.6;stroke-dashoffset:0;"/>
    </g>
    <g id="line2d_26"/>
    <g id="text_17">
     <!-- Strong social distancing -->
     <g transform="translate(99.478125 135.043694)scale(0.1 -0.1)">
      <defs>
       <path d="M 3425 4513
L 3425 3897
Q 3066 4069 2747 4153
Q 2428 4238 2131 4238
Q 1616 4238 1336 4038
Q 1056 3838 1056 3469
Q 1056 3159 1242 3001
Q 1428 2844 1947 2747
L 2328 2669
Q 3034 2534 3370 2195
Q 3706 1856 3706 1288
Q 3706 609 3251 259
Q 2797 -91 1919 -91
Q 1588 -91 1214 -16
Q 841 59 441 206
L 441 856
Q 825 641 1194 531
Q 1563 422 1919 422
Q 2459 422 2753 634
Q 3047 847 3047 1241
Q 3047 1584 2836 1778
Q 2625 1972 2144 2069
L 1759 2144
Q 1053 2284 737 2584
Q 422 2884 422 3419
Q 422 4038 858 4394
Q 1294 4750 2059 4750
Q 2388 4750 2728 4690
Q 3069 4631 3425 4513
z
" id="DejaVuSans-53" transform="scale(0.015625)"/>
      </defs>
      <use xlink:href="#DejaVuSans-53"/>
      <use x="63.476562" xlink:href="#DejaVuSans-74"/>
      <use x="102.685547" xlink:href="#DejaVuSans-72"/>
      <use x="141.548828" xlink:href="#DejaVuSans-6f"/>
      <use x="202.730469" xlink:href="#DejaVuSans-6e"/>
      <use x="266.109375" xlink:href="#DejaVuSans-67"/>
      <use x="329.585938" xlink:href="#DejaVuSans-20"/>
      <use x="361.373047" xlink:href="#DejaVuSans-73"/>
      <use x="413.472656" xlink:href="#DejaVuSans-6f"/>
      <use x="474.654297" xlink:href="#DejaVuSans-63"/>
      <use x="529.634766" xlink:href="#DejaVuSans-69"/>
      <use x="557.417969" xlink:href="#DejaVuSans-61"/>
      <use x="618.697266" xlink:href="#DejaVuSans-6c"/>
      <use x="646.480469" xlink:href="#DejaVuSans-20"/>
      <use x="678.267578" xlink:href="#DejaVuSans-64"/>
      <use x="741.744141" xlink:href="#DejaVuSans-69"/>
      <use x="769.527344" xlink:href="#DejaVuSans-73"/>
      <use x="821.626953" xlink:href="#DejaVuSans-74"/>
      <use x="860.835938" xlink:href="#DejaVuSans-61"/>
      <use x="922.115234" xlink:href="#DejaVuSans-6e"/>
      <use x="985.494141" xlink:href="#DejaVuSans-63"/>
      <use x="1040.474609" xlink:href="#DejaVuSans-69"/>
      <use x="1068.257812" xlink:href="#DejaVuSans-6e"/>
      <use x="1131.636719" xlink:href="#DejaVuSans-67"/>
     </g>
     <!-- (median and 90% prediction intervals) -->
     <g transform="translate(99.478125 146.241506)scale(0.1 -0.1)">
      <use xlink:href="#DejaVuSans-28"/>
      <use x="39.013672" xlink:href="#DejaVuSans-6d"/>
      <use x="136.425781" xlink:href="#DejaVuSans-65"/>
      <use x="197.949219" xlink:href="#DejaVuSans-64"/>
      <use x="261.425781" xlink:href="#DejaVuSans-69"/>
      <use x="289.208984" xlink:href="#DejaVuSans-61"/>
      <use x="350.488281" xlink:href="#DejaVuSans-6e"/>
      <use x="413.867188" xlink:href="#DejaVuSans-20"/>
      <use x="445.654297" xlink:href="#DejaVuSans-61"/>
      <use x="506.933594" xlink:href="#DejaVuSans-6e"/>
      <use x="570.3125" xlink:href="#DejaVuSans-64"/>
      <use x="633.789062" xlink:href="#DejaVuSans-20"/>
      <use x="665.576172" xlink:href="#DejaVuSans-39"/>
      <use x="729.199219" xlink:href="#DejaVuSans-30"/>
      <use x="792.822266" xlink:href="#DejaVuSans-25"/>
      <use x="887.841797" xlink:href="#DejaVuSans-20"/>
      <use x="919.628906" xlink:href="#DejaVuSans-70"/>
      <use x="983.105469" xlink:href="#DejaVuSans-72"/>
      <use x="1021.96875" xlink:href="#DejaVuSans-65"/>
      <use x="1083.492188" xlink:href="#DejaVuSans-64"/>
      <use x="1146.96875" xlink:href="#DejaVuSans-69"/>
      <use x="1174.751953" xlink:href="#DejaVuSans-63"/>
      <use x="1229.732422" xlink:href="#DejaVuSans-74"/>
      <use x="1268.941406" xlink:href="#DejaVuSans-69"/>
      <use x="1296.724609" xlink:href="#DejaVuSans-6f"/>
      <use x="1357.90625" xlink:href="#DejaVuSans-6e"/>
      <use x="1421.285156" xlink:href="#DejaVuSans-20"/>
      <use x="1453.072266" xlink:href="#DejaVuSans-69"/>
      <use x="1480.855469" xlink:href="#DejaVuSans-6e"/>
      <use x="1544.234375" xlink:href="#DejaVuSans-74"/>
      <use x="1583.443359" xlink:href="#DejaVuSans-65"/>
      <use x="1644.966797" xlink:href="#DejaVuSans-72"/>
      <use x="1686.080078" xlink:href="#DejaVuSans-76"/>
      <use x="1745.259766" xlink:href="#DejaVuSans-61"/>
      <use x="1806.539062" xlink:href="#DejaVuSans-6c"/>
      <use x="1834.322266" xlink:href="#DejaVuSans-73"/>
      <use x="1886.421875" xlink:href="#DejaVuSans-29"/>
     </g>
    </g>
    <g id="line2d_27">
     <path d="M 71.478125 164.058381
L 91.478125 164.058381
" style="fill:none;stroke:#000000;stroke-dasharray:3.7,1.6;stroke-dashoffset:0;"/>
    </g>
    <g id="line2d_28"/>
    <g id="text_18">
     <!-- Strong social distancing since 2022-01-20 -->
     <g transform="translate(99.478125 160.919631)scale(0.1 -0.1)">
      <use xlink:href="#DejaVuSans-53"/>
      <use x="63.476562" xlink:href="#DejaVuSans-74"/>
      <use x="102.685547" xlink:href="#DejaVuSans-72"/>
      <use x="141.548828" xlink:href="#DejaVuSans-6f"/>
      <use x="202.730469" xlink:href="#DejaVuSans-6e"/>
      <use x="266.109375" xlink:href="#DejaVuSans-67"/>
      <use x="329.585938" xlink:href="#DejaVuSans-20"/>
      <use x="361.373047" xlink:href="#DejaVuSans-73"/>
      <use x="413.472656" xlink:href="#DejaVuSans-6f"/>
      <use x="474.654297" xlink:href="#DejaVuSans-63"/>
      <use x="529.634766" xlink:href="#DejaVuSans-69"/>
      <use x="557.417969" xlink:href="#DejaVuSans-61"/>
      <use x="618.697266" xlink:href="#DejaVuSans-6c"/>
      <use x="646.480469" xlink:href="#DejaVuSans-20"/>
      <use x="678.267578" xlink:href="#DejaVuSans-64"/>
      <use x="741.744141" xlink:href="#DejaVuSans-69"/>
      <use x="769.527344" xlink:href="#DejaVuSans-73"/>
      <use x="821.626953" xlink:href="#DejaVuSans-74"/>
      <use x="860.835938" xlink:href="#DejaVuSans-61"/>
      <use x="922.115234" xlink:href="#DejaVuSans-6e"/>
      <use x="985.494141" xlink:href="#DejaVuSans-63"/>
      <use x="1040.474609" xlink:href="#DejaVuSans-69"/>
      <use x="1068.257812" xlink:href="#DejaVuSans-6e"/>
      <use x="1131.636719" xlink:href="#DejaVuSans-67"/>
      <use x="1195.113281" xlink:href="#DejaVuSans-20"/>
      <use x="1226.900391" xlink:href="#DejaVuSans-73"/>
      <use x="1279" xlink:href="#DejaVuSans-69"/>
      <use x="1306.783203" xlink:href="#DejaVuSans-6e"/>
      <use x="1370.162109" xlink:href="#DejaVuSans-63"/>
      <use x="1425.142578" xlink:href="#DejaVuSans-65"/>
      <use x="1486.666016" xlink:href="#DejaVuSans-20"/>
      <use x="1518.453125" xlink:href="#DejaVuSans-32"/>
      <use x="1582.076172" xlink:href="#DejaVuSans-30"/>
      <use x="1645.699219" xlink:href="#DejaVuSans-32"/>
      <use x="1709.322266" xlink:href="#DejaVuSans-32"/>
      <use x="1772.945312" xlink:href="#DejaVuSans-2d"/>
      <use x="1809.029297" xlink:href="#DejaVuSans-30"/>
      <use x="1872.652344" xlink:href="#DejaVuSans-31"/>
      <use x="1936.275391" xlink:href="#DejaVuSans-2d"/>
      <use x="1972.359375" xlink:href="#DejaVuSans-32"/>
      <use x="2035.982422" xlink:href="#DejaVuSans-30"/>
     </g>
     <!-- (median and 90% prediction intervals) -->
     <g transform="translate(99.478125 172.117444)scale(0.1 -0.1)">
      <use xlink:href="#DejaVuSans-28"/>
      <use x="39.013672" xlink:href="#DejaVuSans-6d"/>
      <use x="136.425781" xlink:href="#DejaVuSans-65"/>
      <use x="197.949219" xlink:href="#DejaVuSans-64"/>
      <use x="261.425781" xlink:href="#DejaVuSans-69"/>
      <use x="289.208984" xlink:href="#DejaVuSans-61"/>
      <use x="350.488281" xlink:href="#DejaVuSans-6e"/>
      <use x="413.867188" xlink:href="#DejaVuSans-20"/>
      <use x="445.654297" xlink:href="#DejaVuSans-61"/>
      <use x="506.933594" xlink:href="#DejaVuSans-6e"/>
      <use x="570.3125" xlink:href="#DejaVuSans-64"/>
      <use x="633.789062" xlink:href="#DejaVuSans-20"/>
      <use x="665.576172" xlink:href="#DejaVuSans-39"/>
      <use x="729.199219" xlink:href="#DejaVuSans-30"/>
      <use x="792.822266" xlink:href="#DejaVuSans-25"/>
      <use x="887.841797" xlink:href="#DejaVuSans-20"/>
      <use x="919.628906" xlink:href="#DejaVuSans-70"/>
      <use x="983.105469" xlink:href="#DejaVuSans-72"/>
      <use x="1021.96875" xlink:href="#DejaVuSans-65"/>
      <use x="1083.492188" xlink:href="#DejaVuSans-64"/>
      <use x="1146.96875" xlink:href="#DejaVuSans-69"/>
      <use x="1174.751953" xlink:href="#DejaVuSans-63"/>
      <use x="1229.732422" xlink:href="#DejaVuSans-74"/>
      <use x="1268.941406" xlink:href="#DejaVuSans-69"/>
      <use x="1296.724609" xlink:href="#DejaVuSans-6f"/>
      <use x="1357.90625" xlink:href="#DejaVuSans-6e"/>
      <use x="1421.285156" xlink:href="#DejaVuSans-20"/>
      <use x="1453.072266" xlink:href="#DejaVuSans-69"/>
      <use x="1480.855469" xlink:href="#DejaVuSans-6e"/>
      <use x="1544.234375" xlink:href="#DejaVuSans-74"/>
      <use x="1583.443359" xlink:href="#DejaVuSans-65"/>
      <use x="1644.966797" xlink:href="#DejaVuSans-72"/>
      <use x="1686.080078" xlink:href="#DejaVuSans-76"/>
      <use x="1745.259766" xlink:href="#DejaVuSans-61"/>
      <use x="1806.539062" xlink:href="#DejaVuSans-6c"/>
      <use x="1834.322266" xlink:href="#DejaVuSans-73"/>
      <use x="1886.421875" xlink:href="#DejaVuSans-29"/>
     </g>
    </g>
   </g>
  </g>
  <g id="text_19">
   <!-- With Reported Data From Past 2 Months and SIR Model Predictions -->
   <g transform="translate(132.977188 40.973381)scale(0.12 -0.12)">
    <defs>
     <path d="M 213 4666
L 850 4666
L 1831 722
L 2809 4666
L 3519 4666
L 4500 722
L 5478 4666
L 6119 4666
L 4947 0
L 4153 0
L 3169 4050
L 2175 0
L 1381 0
L 213 4666
z
" id="DejaVuSans-57" transform="scale(0.015625)"/>
     <path d="M 3513 2113
L 3513 0
L 2938 0
L 2938 2094
Q 2938 2591 2744 2837
Q 2550 3084 2163 3084
Q 1697 3084 1428 2787
Q 1159 2491 1159 1978
L 1159 0
L 581 0
L 581 4863
L 1159 4863
L 1159 2956
Q 1366 3272 1645 3428
Q 1925 3584 2291 3584
Q 2894 3584 3203 3211
Q 3513 2838 3513 2113
z
" id="DejaVuSans-68" transform="scale(0.015625)"/>
     <path d="M 1259 4147
L 1259 519
L 2022 519
Q 2988 519 3436 956
Q 3884 1394 3884 2338
Q 3884 3275 3436 3711
Q 2988 4147 2022 4147
L 1259 4147
z
M 628 4666
L 1925 4666
Q 3281 4666 3915 4102
Q 4550 3538 4550 2338
Q 4550 1131 3912 565
Q 3275 0 1925 0
L 628 0
L 628 4666
z
" id="DejaVuSans-44" transform="scale(0.015625)"/>
     <path d="M 628 4666
L 3309 4666
L 3309 4134
L 1259 4134
L 1259 2759
L 3109 2759
L 3109 2228
L 1259 2228
L 1259 0
L 628 0
L 628 4666
z
" id="DejaVuSans-46" transform="scale(0.015625)"/>
     <path d="M 1259 4147
L 1259 2394
L 2053 2394
Q 2494 2394 2734 2622
Q 2975 2850 2975 3272
Q 2975 3691 2734 3919
Q 2494 4147 2053 4147
L 1259 4147
z
M 628 4666
L 2053 4666
Q 2838 4666 3239 4311
Q 3641 3956 3641 3272
Q 3641 2581 3239 2228
Q 2838 1875 2053 1875
L 1259 1875
L 1259 0
L 628 0
L 628 4666
z
" id="DejaVuSans-50" transform="scale(0.015625)"/>
     <path d="M 628 4666
L 1259 4666
L 1259 0
L 628 0
L 628 4666
z
" id="DejaVuSans-49" transform="scale(0.015625)"/>
    </defs>
    <use xlink:href="#DejaVuSans-57"/>
    <use x="96.626953" xlink:href="#DejaVuSans-69"/>
    <use x="124.410156" xlink:href="#DejaVuSans-74"/>
    <use x="163.619141" xlink:href="#DejaVuSans-68"/>
    <use x="226.998047" xlink:href="#DejaVuSans-20"/>
    <use x="258.785156" xlink:href="#DejaVuSans-52"/>
    <use x="323.767578" xlink:href="#DejaVuSans-65"/>
    <use x="385.291016" xlink:href="#DejaVuSans-70"/>
    <use x="448.767578" xlink:href="#DejaVuSans-6f"/>
    <use x="509.949219" xlink:href="#DejaVuSans-72"/>
    <use x="551.0625" xlink:href="#DejaVuSans-74"/>
    <use x="590.271484" xlink:href="#DejaVuSans-65"/>
    <use x="651.794922" xlink:href="#DejaVuSans-64"/>
    <use x="715.271484" xlink:href="#DejaVuSans-20"/>
    <use x="747.058594" xlink:href="#DejaVuSans-44"/>
    <use x="824.060547" xlink:href="#DejaVuSans-61"/>
    <use x="885.339844" xlink:href="#DejaVuSans-74"/>
    <use x="924.548828" xlink:href="#DejaVuSans-61"/>
    <use x="985.828125" xlink:href="#DejaVuSans-20"/>
    <use x="1017.615234" xlink:href="#DejaVuSans-46"/>
    <use x="1067.884766" xlink:href="#DejaVuSans-72"/>
    <use x="1106.748047" xlink:href="#DejaVuSans-6f"/>
    <use x="1167.929688" xlink:href="#DejaVuSans-6d"/>
    <use x="1265.341797" xlink:href="#DejaVuSans-20"/>
    <use x="1297.128906" xlink:href="#DejaVuSans-50"/>
    <use x="1352.931641" xlink:href="#DejaVuSans-61"/>
    <use x="1414.210938" xlink:href="#DejaVuSans-73"/>
    <use x="1466.310547" xlink:href="#DejaVuSans-74"/>
    <use x="1505.519531" xlink:href="#DejaVuSans-20"/>
    <use x="1537.306641" xlink:href="#DejaVuSans-32"/>
    <use x="1600.929688" xlink:href="#DejaVuSans-20"/>
    <use x="1632.716797" xlink:href="#DejaVuSans-4d"/>
    <use x="1718.996094" xlink:href="#DejaVuSans-6f"/>
    <use x="1780.177734" xlink:href="#DejaVuSans-6e"/>
    <use x="1843.556641" xlink:href="#DejaVuSans-74"/>
    <use x="1882.765625" xlink:href="#DejaVuSans-68"/>
    <use x="1946.144531" xlink:href="#DejaVuSans-73"/>
    <use x="1998.244141" xlink:href="#DejaVuSans-20"/>
    <use x="2030.03125" xlink:href="#DejaVuSans-61"/>
    <use x="2091.310547" xlink:href="#DejaVuSans-6e"/>
    <use x="2154.689453" xlink:href="#DejaVuSans-64"/>
    <use x="2218.166016" xlink:href="#DejaVuSans-20"/>
    <use x="2249.953125" xlink:href="#DejaVuSans-53"/>
    <use x="2313.429688" xlink:href="#DejaVuSans-49"/>
    <use x="2342.921875" xlink:href="#DejaVuSans-52"/>
    <use x="2412.404297" xlink:href="#DejaVuSans-20"/>
    <use x="2444.191406" xlink:href="#DejaVuSans-4d"/>
    <use x="2530.470703" xlink:href="#DejaVuSans-6f"/>
    <use x="2591.652344" xlink:href="#DejaVuSans-64"/>
    <use x="2655.128906" xlink:href="#DejaVuSans-65"/>
    <use x="2716.652344" xlink:href="#DejaVuSans-6c"/>
    <use x="2744.435547" xlink:href="#DejaVuSans-20"/>
    <use x="2776.222656" xlink:href="#DejaVuSans-50"/>
    <use x="2834.775391" xlink:href="#DejaVuSans-72"/>
    <use x="2873.638672" xlink:href="#DejaVuSans-65"/>
    <use x="2935.162109" xlink:href="#DejaVuSans-64"/>
    <use x="2998.638672" xlink:href="#DejaVuSans-69"/>
    <use x="3026.421875" xlink:href="#DejaVuSans-63"/>
    <use x="3081.402344" xlink:href="#DejaVuSans-74"/>
    <use x="3120.611328" xlink:href="#DejaVuSans-69"/>
    <use x="3148.394531" xlink:href="#DejaVuSans-6f"/>
    <use x="3209.576172" xlink:href="#DejaVuSans-6e"/>
    <use x="3272.955078" xlink:href="#DejaVuSans-73"/>
   </g>
  </g>
 </g>
 <defs>
  <clipPath id="p056f72d309">
   <rect height="342.72" width="558" x="62.478125" y="52.015256"/>
  </clipPath>
 </defs>
</svg>
