<?xml version="1.0" encoding="utf-8" standalone="no"?>
<!DOCTYPE svg PUBLIC "-//W3C//DTD SVG 1.1//EN"
  "http://www.w3.org/Graphics/SVG/1.1/DTD/svg11.dtd">
<svg height="460.052696pt" version="1.1" viewBox="0 0 610.678125 460.052696" width="610.678125pt" xmlns="http://www.w3.org/2000/svg" xmlns:xlink="http://www.w3.org/1999/xlink">
 <metadata>
  <rdf:RDF xmlns:cc="http://creativecommons.org/ns#" xmlns:dc="http://purl.org/dc/elements/1.1/" xmlns:rdf="http://www.w3.org/1999/02/22-rdf-syntax-ns#">
   <cc:Work>
    <dc:type rdf:resource="http://purl.org/dc/dcmitype/StillImage"/>
    <dc:date>2022-01-26T23:34:48.694901</dc:date>
    <dc:format>image/svg+xml</dc:format>
    <dc:creator>
     <cc:Agent>
      <dc:title>Matplotlib v3.4.3, https://matplotlib.org/</dc:title>
     </cc:Agent>
    </dc:creator>
   </cc:Work>
  </rdf:RDF>
 </metadata>
 <defs>
  <style type="text/css">*{stroke-linecap:butt;stroke-linejoin:round;}</style>
 </defs>
 <g id="figure_1">
  <g id="patch_1">
   <path d="M 0 460.052696
L 610.678125 460.052696
L 610.678125 0
L 0 0
z
" style="fill:#ffffff;"/>
  </g>
  <g id="axes_1">
   <g id="patch_2">
    <path d="M 45.478125 394.735256
L 603.478125 394.735256
L 603.478125 52.015256
L 45.478125 52.015256
z
" style="fill:#ffffff;"/>
   </g>
   <g id="PolyCollection_1">
    <defs>
     <path d="M 70.841761 -327.128158
L 70.841761 -295.745864
L 75.815023 -297.269803
L 80.788285 -298.791757
L 85.761547 -300.31163
L 90.734809 -301.47055
L 95.708072 -302.740729
L 100.681334 -304.23318
L 105.654596 -305.723844
L 110.627858 -307.104516
L 115.60112 -308.021381
L 120.574382 -308.936005
L 125.547644 -309.852842
L 130.520906 -310.779154
L 135.494168 -311.703281
L 140.46743 -312.695369
L 145.440692 -314.118604
L 150.413954 -315.55798
L 155.387216 -316.994484
L 160.360478 -318.427985
L 165.33374 -319.618798
L 170.307002 -320.968665
L 175.280264 -322.013224
L 180.253526 -323.195846
L 185.226788 -324.488942
L 190.20005 -325.778557
L 195.173312 -326.944194
L 200.146574 -327.846755
L 205.119836 -328.745599
L 210.093098 -329.64062
L 215.06636 -330.531711
L 220.039622 -331.418761
L 225.012884 -332.30166
L 229.986146 -333.180291
L 234.959408 -334.054537
L 239.93267 -334.669409
L 244.905932 -335.605572
L 249.879195 -336.536964
L 254.852457 -337.164235
L 259.825719 -337.732227
L 264.798981 -338.293561
L 269.772243 -338.848116
L 274.745505 -339.419767
L 279.718767 -339.987432
L 284.692029 -340.54796
L 289.665291 -341.058777
L 294.638553 -341.408085
L 299.611815 -341.752056
L 304.585077 -342.5607
L 309.558339 -343.185916
L 314.531601 -343.673343
L 319.504863 -343.961609
L 324.478125 -344.180828
L 329.451387 -344.412008
L 334.424649 -344.791249
L 339.397911 -345.03389
L 344.371173 -345.176945
L 349.344435 -345.314706
L 354.317697 -345.447155
L 359.290959 -345.574276
L 359.290959 -374.822497
L 359.290959 -374.822497
L 354.317697 -373.801315
L 349.344435 -372.759248
L 344.371173 -371.85779
L 339.397911 -370.999224
L 334.424649 -369.9611
L 329.451387 -368.789981
L 324.478125 -367.603097
L 319.504863 -366.797996
L 314.531601 -365.79928
L 309.558339 -364.736428
L 304.585077 -363.645566
L 299.611815 -362.541812
L 294.638553 -361.42601
L 289.665291 -360.298563
L 284.692029 -359.224656
L 279.718767 -358.470289
L 274.745505 -357.876358
L 269.772243 -357.124586
L 264.798981 -356.181297
L 259.825719 -355.410588
L 254.852457 -354.6274
L 249.879195 -353.832042
L 244.905932 -352.979839
L 239.93267 -352.113919
L 234.959408 -351.236632
L 229.986146 -350.348281
L 225.012884 -349.382111
L 220.039622 -348.056769
L 215.06636 -347.571113
L 210.093098 -346.778743
L 205.119836 -345.883815
L 200.146574 -345.132065
L 195.173312 -344.353836
L 190.20005 -343.180241
L 185.226788 -342.471715
L 180.253526 -341.757085
L 175.280264 -341.036482
L 170.307002 -340.580695
L 165.33374 -339.802938
L 160.360478 -338.838502
L 155.387216 -338.038293
L 150.413954 -337.348335
L 145.440692 -336.59455
L 140.46743 -335.826403
L 135.494168 -335.053937
L 130.520906 -334.3291
L 125.547644 -333.580044
L 120.574382 -332.82491
L 115.60112 -332.214964
L 110.627858 -331.66266
L 105.654596 -331.106113
L 100.681334 -330.545394
L 95.708072 -329.980574
L 90.734809 -329.411722
L 85.761547 -328.838908
L 80.788285 -328.262199
L 75.815023 -327.681664
L 70.841761 -327.128158
z
" id="mcfa2dc7f45"/>
    </defs>
    <g clip-path="url(#pd310501a41)">
     <use style="fill:#ff0000;fill-opacity:0.2;" x="0" xlink:href="#mcfa2dc7f45" y="460.052696"/>
    </g>
   </g>
   <g id="PolyCollection_2">
    <defs>
     <path d="M 359.290959 -375.822142
L 359.290959 -345.704095
L 364.264221 -345.860498
L 369.237483 -346.010983
L 374.210745 -346.155528
L 379.184007 -346.626699
L 384.157269 -347.313232
L 389.130531 -347.995397
L 394.103793 -348.67319
L 399.077055 -349.344682
L 404.050318 -349.791194
L 409.02358 -350.013666
L 413.996842 -350.229149
L 418.970104 -350.437602
L 423.943366 -350.564531
L 428.916628 -350.526184
L 433.88989 -350.478688
L 438.863152 -350.422068
L 443.836414 -350.356352
L 448.809676 -350.281573
L 453.782938 -350.197764
L 458.7562 -350.104961
L 463.729462 -350.003204
L 468.702724 -349.892532
L 473.675986 -349.772991
L 478.649248 -349.644625
L 483.62251 -349.507482
L 488.595772 -349.361613
L 493.569034 -349.20707
L 498.542296 -349.186739
L 503.515558 -349.213014
L 508.48882 -349.232184
L 513.462082 -349.244253
L 518.435344 -349.249229
L 523.408606 -349.261674
L 528.381868 -349.272399
L 533.35513 -349.276143
L 538.328392 -349.272913
L 543.301654 -349.26272
L 548.274916 -349.245574
L 553.248178 -349.356446
L 558.221441 -349.496421
L 563.194703 -349.630127
L 568.167965 -349.757547
L 573.141227 -349.878662
L 578.114489 -349.993457
L 578.114489 -390.466398
L 578.114489 -390.466398
L 573.141227 -390.83536
L 568.167965 -391.173467
L 563.194703 -391.48021
L 558.221441 -391.755103
L 553.248178 -391.99769
L 548.274916 -392.207544
L 543.301654 -392.38427
L 538.328392 -392.459258
L 533.35513 -392.20334
L 528.381868 -391.902498
L 523.408606 -391.574607
L 518.435344 -391.219848
L 513.462082 -391.187651
L 508.48882 -391.033872
L 503.515558 -390.714895
L 498.542296 -390.366677
L 493.569034 -389.98943
L 488.595772 -389.583394
L 483.62251 -389.148832
L 478.649248 -388.679543
L 473.675986 -388.17503
L 468.702724 -387.64273
L 463.729462 -387.077054
L 458.7562 -386.476963
L 453.782938 -386.315116
L 448.809676 -386.249707
L 443.836414 -386.153358
L 438.863152 -386.026031
L 433.88989 -385.867719
L 428.916628 -385.572943
L 423.943366 -384.783333
L 418.970104 -383.970093
L 413.996842 -383.124496
L 409.02358 -382.242492
L 404.050318 -381.338448
L 399.077055 -380.786581
L 394.103793 -380.353589
L 389.130531 -379.893252
L 384.157269 -379.405895
L 379.184007 -378.891859
L 374.210745 -378.351508
L 369.237483 -377.657398
L 364.264221 -376.755761
L 359.290959 -375.822142
z
" id="m2fdf73e1e7"/>
    </defs>
    <g clip-path="url(#pd310501a41)">
     <use style="fill:#9467bd;fill-opacity:0.2;" x="0" xlink:href="#m2fdf73e1e7" y="460.052696"/>
    </g>
   </g>
   <g id="PolyCollection_3">
    <defs>
     <path d="M 359.290959 -375.822142
L 359.290959 -345.704095
L 364.264221 -345.860498
L 369.237483 -346.010983
L 374.210745 -346.155528
L 379.184007 -346.626699
L 384.157269 -347.313232
L 389.130531 -347.993881
L 394.103793 -346.641992
L 399.077055 -342.127937
L 404.050318 -334.731286
L 409.02358 -327.307505
L 413.996842 -318.782164
L 418.970104 -299.290022
L 423.943366 -280.545687
L 428.916628 -264.518753
L 433.88989 -260.14204
L 438.863152 -255.906445
L 443.836414 -251.672322
L 448.809676 -247.551375
L 453.782938 -243.132322
L 458.7562 -239.500713
L 463.729462 -234.552889
L 468.702724 -230.213636
L 473.675986 -225.352437
L 478.649248 -220.434823
L 483.62251 -215.517983
L 488.595772 -210.076697
L 493.569034 -204.447127
L 498.542296 -198.823511
L 503.515558 -194.337327
L 508.48882 -188.717003
L 513.462082 -183.096748
L 518.435344 -177.476553
L 523.408606 -171.85641
L 528.381868 -166.236313
L 533.35513 -160.616255
L 538.328392 -154.996233
L 543.301654 -149.376242
L 548.274916 -143.756279
L 553.248178 -138.13634
L 558.221441 -132.516425
L 563.194703 -126.896531
L 568.167965 -121.276655
L 573.141227 -115.656798
L 578.114489 -110.036956
L 578.114489 -213.984209
L 578.114489 -213.984209
L 573.141227 -216.728885
L 568.167965 -219.47364
L 563.194703 -222.218479
L 558.221441 -224.963408
L 553.248178 -227.708435
L 548.274916 -230.453566
L 543.301654 -233.198809
L 538.328392 -235.944173
L 533.35513 -238.689667
L 528.381868 -241.435301
L 523.408606 -244.181085
L 518.435344 -246.927033
L 513.462082 -249.65845
L 508.48882 -252.377538
L 503.515558 -255.097076
L 498.542296 -257.817078
L 493.569034 -260.566932
L 488.595772 -263.324921
L 483.62251 -266.051905
L 478.649248 -268.7793
L 473.675986 -271.291921
L 468.702724 -273.756857
L 463.729462 -276.823638
L 458.7562 -279.766864
L 453.782938 -282.539216
L 448.809676 -285.312522
L 443.836414 -288.056827
L 438.863152 -291.058791
L 433.88989 -297.824842
L 428.916628 -320.102471
L 423.943366 -336.178515
L 418.970104 -347.380313
L 413.996842 -357.655944
L 409.02358 -365.512447
L 404.050318 -369.924929
L 399.077055 -374.724642
L 394.103793 -377.882378
L 389.130531 -379.893252
L 384.157269 -379.405895
L 379.184007 -378.891859
L 374.210745 -378.351508
L 369.237483 -377.657398
L 364.264221 -376.755761
L 359.290959 -375.822142
z
" id="m1d30160841"/>
    </defs>
    <g clip-path="url(#pd310501a41)">
     <use style="fill:#ff7f0e;fill-opacity:0.2;" x="0" xlink:href="#m1d30160841" y="460.052696"/>
    </g>
   </g>
   <g id="PolyCollection_4">
    <defs>
     <path d="M 359.290959 -375.822142
L 359.290959 -345.704095
L 364.264221 -345.860498
L 369.237483 -346.010983
L 374.210745 -346.155528
L 379.184007 -346.626699
L 384.157269 -347.313232
L 389.130531 -347.995397
L 394.103793 -348.67319
L 399.077055 -349.344682
L 404.050318 -349.791194
L 409.02358 -350.013666
L 413.996842 -350.212518
L 418.970104 -347.505143
L 423.943366 -342.623561
L 428.916628 -335.697802
L 433.88989 -328.776113
L 438.863152 -320.527663
L 443.836414 -299.20925
L 448.809676 -281.076854
L 453.782938 -266.009785
L 458.7562 -261.031615
L 463.729462 -256.790228
L 468.702724 -252.550308
L 473.675986 -248.311841
L 478.649248 -244.483416
L 483.62251 -240.499264
L 488.595772 -235.450632
L 493.569034 -231.106132
L 498.542296 -226.764183
L 503.515558 -222.131255
L 508.48882 -217.20796
L 513.462082 -211.76535
L 518.435344 -206.116936
L 523.408606 -200.47216
L 528.381868 -195.104471
L 533.35513 -189.471449
L 538.328392 -183.838501
L 543.301654 -178.205617
L 548.274916 -172.572788
L 553.248178 -166.940008
L 558.221441 -161.307271
L 563.194703 -155.674572
L 568.167965 -150.041906
L 573.141227 -144.40927
L 578.114489 -138.776662
L 578.114489 -231.449633
L 578.114489 -231.449633
L 573.141227 -234.204198
L 568.167965 -236.958891
L 563.194703 -239.713721
L 558.221441 -242.4687
L 553.248178 -245.223838
L 548.274916 -247.978184
L 543.301654 -250.706162
L 538.328392 -253.434589
L 533.35513 -256.163479
L 528.381868 -258.735797
L 523.408606 -261.090588
L 518.435344 -264.290771
L 513.462082 -267.159925
L 508.48882 -269.73317
L 503.515558 -272.205403
L 498.542296 -274.678084
L 493.569034 -277.151242
L 488.595772 -279.624905
L 483.62251 -282.832891
L 478.649248 -286.117029
L 473.675986 -289.189196
L 468.702724 -291.940747
L 463.729462 -294.171895
L 458.7562 -300.958676
L 453.782938 -322.994403
L 448.809676 -338.889955
L 443.836414 -350.123178
L 438.863152 -360.629849
L 433.88989 -367.554912
L 428.916628 -373.941335
L 423.943366 -379.116875
L 418.970104 -381.665554
L 413.996842 -383.124496
L 409.02358 -382.242492
L 404.050318 -381.338448
L 399.077055 -380.786581
L 394.103793 -380.353589
L 389.130531 -379.893252
L 384.157269 -379.405895
L 379.184007 -378.891859
L 374.210745 -378.351508
L 369.237483 -377.657398
L 364.264221 -376.755761
L 359.290959 -375.822142
z
" id="m12003fd337"/>
    </defs>
    <g clip-path="url(#pd310501a41)">
     <use style="fill:#2ca02c;fill-opacity:0.2;" x="0" xlink:href="#m12003fd337" y="460.052696"/>
    </g>
   </g>
   <g id="PolyCollection_5">
    <defs>
     <path d="M 359.290959 -375.822142
L 359.290959 -345.704095
L 364.264221 -345.860498
L 369.237483 -344.571544
L 374.210745 -340.66208
L 379.184007 -333.834757
L 384.157269 -326.839164
L 389.130531 -316.532875
L 394.103793 -298.673444
L 399.077055 -279.813143
L 404.050318 -263.335885
L 409.02358 -259.036523
L 413.996842 -254.806704
L 418.970104 -250.862296
L 423.943366 -246.245349
L 428.916628 -241.984508
L 433.88989 -238.0484
L 438.863152 -233.158078
L 443.836414 -228.244818
L 448.809676 -223.332406
L 453.782938 -218.420805
L 458.7562 -213.273779
L 463.729462 -207.656772
L 468.702724 -202.077932
L 473.675986 -197.893185
L 478.649248 -192.629127
L 483.62251 -187.286948
L 488.595772 -181.806257
L 493.569034 -176.198257
L 498.542296 -170.590305
L 503.515558 -164.982396
L 508.48882 -159.374523
L 513.462082 -153.766683
L 518.435344 -148.158872
L 523.408606 -142.551086
L 528.381868 -136.943323
L 533.35513 -131.335581
L 538.328392 -125.727858
L 543.301654 -120.120153
L 548.274916 -114.512463
L 553.248178 -108.904789
L 558.221441 -103.297128
L 563.194703 -97.689481
L 568.167965 -92.086558
L 573.141227 -86.491065
L 578.114489 -80.895621
L 578.114489 -195.763634
L 578.114489 -195.763634
L 573.141227 -198.593917
L 568.167965 -201.424253
L 563.194703 -204.254644
L 558.221441 -207.047525
L 553.248178 -209.783886
L 548.274916 -212.520312
L 543.301654 -215.256807
L 538.328392 -217.993376
L 533.35513 -220.730025
L 528.381868 -223.466758
L 523.408606 -226.203582
L 518.435344 -228.940504
L 513.462082 -231.677531
L 508.48882 -234.414671
L 503.515558 -237.151931
L 498.542296 -239.889323
L 493.569034 -242.626855
L 488.595772 -245.364539
L 483.62251 -248.102388
L 478.649248 -250.826013
L 473.675986 -253.591377
L 468.702724 -256.743926
L 463.729462 -259.18664
L 458.7562 -261.733294
L 453.782938 -264.451948
L 448.809676 -267.170993
L 443.836414 -269.994413
L 438.863152 -272.670675
L 433.88989 -275.434259
L 428.916628 -278.198696
L 423.943366 -280.964028
L 418.970104 -283.808608
L 413.996842 -288.262515
L 409.02358 -295.135881
L 404.050318 -316.808636
L 399.077055 -332.871757
L 394.103793 -344.168966
L 389.130531 -354.887016
L 384.157269 -362.139406
L 379.184007 -366.809336
L 374.210745 -371.045832
L 369.237483 -373.915669
L 364.264221 -376.755761
L 359.290959 -375.822142
z
" id="m5222e39a98"/>
    </defs>
    <g clip-path="url(#pd310501a41)">
     <use style="fill-opacity:0.2;" x="0" xlink:href="#m5222e39a98" y="460.052696"/>
    </g>
   </g>
   <g id="matplotlib.axis_1">
    <g id="xtick_1">
     <g id="line2d_1">
      <defs>
       <path d="M 0 0
L 0 3.5
" id="md3cf0472ad" style="stroke:#000000;stroke-width:0.8;"/>
      </defs>
      <g>
       <use style="stroke:#000000;stroke-width:0.8;" x="85.761547" xlink:href="#md3cf0472ad" y="394.735256"/>
      </g>
     </g>
     <g id="text_1">
      <!-- 2021-12-01 -->
      <g transform="translate(34.392096 437.373509)rotate(-30)scale(0.1 -0.1)">
       <defs>
        <path d="M 1228 531
L 3431 531
L 3431 0
L 469 0
L 469 531
Q 828 903 1448 1529
Q 2069 2156 2228 2338
Q 2531 2678 2651 2914
Q 2772 3150 2772 3378
Q 2772 3750 2511 3984
Q 2250 4219 1831 4219
Q 1534 4219 1204 4116
Q 875 4013 500 3803
L 500 4441
Q 881 4594 1212 4672
Q 1544 4750 1819 4750
Q 2544 4750 2975 4387
Q 3406 4025 3406 3419
Q 3406 3131 3298 2873
Q 3191 2616 2906 2266
Q 2828 2175 2409 1742
Q 1991 1309 1228 531
z
" id="DejaVuSans-32" transform="scale(0.015625)"/>
        <path d="M 2034 4250
Q 1547 4250 1301 3770
Q 1056 3291 1056 2328
Q 1056 1369 1301 889
Q 1547 409 2034 409
Q 2525 409 2770 889
Q 3016 1369 3016 2328
Q 3016 3291 2770 3770
Q 2525 4250 2034 4250
z
M 2034 4750
Q 2819 4750 3233 4129
Q 3647 3509 3647 2328
Q 3647 1150 3233 529
Q 2819 -91 2034 -91
Q 1250 -91 836 529
Q 422 1150 422 2328
Q 422 3509 836 4129
Q 1250 4750 2034 4750
z
" id="DejaVuSans-30" transform="scale(0.015625)"/>
        <path d="M 794 531
L 1825 531
L 1825 4091
L 703 3866
L 703 4441
L 1819 4666
L 2450 4666
L 2450 531
L 3481 531
L 3481 0
L 794 0
L 794 531
z
" id="DejaVuSans-31" transform="scale(0.015625)"/>
        <path d="M 313 2009
L 1997 2009
L 1997 1497
L 313 1497
L 313 2009
z
" id="DejaVuSans-2d" transform="scale(0.015625)"/>
       </defs>
       <use xlink:href="#DejaVuSans-32"/>
       <use x="63.623047" xlink:href="#DejaVuSans-30"/>
       <use x="127.246094" xlink:href="#DejaVuSans-32"/>
       <use x="190.869141" xlink:href="#DejaVuSans-31"/>
       <use x="254.492188" xlink:href="#DejaVuSans-2d"/>
       <use x="290.576172" xlink:href="#DejaVuSans-31"/>
       <use x="354.199219" xlink:href="#DejaVuSans-32"/>
       <use x="417.822266" xlink:href="#DejaVuSans-2d"/>
       <use x="453.90625" xlink:href="#DejaVuSans-30"/>
       <use x="517.529297" xlink:href="#DejaVuSans-31"/>
      </g>
     </g>
    </g>
    <g id="xtick_2">
     <g id="line2d_2">
      <g>
       <use style="stroke:#000000;stroke-width:0.8;" x="155.387216" xlink:href="#md3cf0472ad" y="394.735256"/>
      </g>
     </g>
     <g id="text_2">
      <!-- 2021-12-15 -->
      <g transform="translate(104.017765 437.373509)rotate(-30)scale(0.1 -0.1)">
       <defs>
        <path d="M 691 4666
L 3169 4666
L 3169 4134
L 1269 4134
L 1269 2991
Q 1406 3038 1543 3061
Q 1681 3084 1819 3084
Q 2600 3084 3056 2656
Q 3513 2228 3513 1497
Q 3513 744 3044 326
Q 2575 -91 1722 -91
Q 1428 -91 1123 -41
Q 819 9 494 109
L 494 744
Q 775 591 1075 516
Q 1375 441 1709 441
Q 2250 441 2565 725
Q 2881 1009 2881 1497
Q 2881 1984 2565 2268
Q 2250 2553 1709 2553
Q 1456 2553 1204 2497
Q 953 2441 691 2322
L 691 4666
z
" id="DejaVuSans-35" transform="scale(0.015625)"/>
       </defs>
       <use xlink:href="#DejaVuSans-32"/>
       <use x="63.623047" xlink:href="#DejaVuSans-30"/>
       <use x="127.246094" xlink:href="#DejaVuSans-32"/>
       <use x="190.869141" xlink:href="#DejaVuSans-31"/>
       <use x="254.492188" xlink:href="#DejaVuSans-2d"/>
       <use x="290.576172" xlink:href="#DejaVuSans-31"/>
       <use x="354.199219" xlink:href="#DejaVuSans-32"/>
       <use x="417.822266" xlink:href="#DejaVuSans-2d"/>
       <use x="453.90625" xlink:href="#DejaVuSans-31"/>
       <use x="517.529297" xlink:href="#DejaVuSans-35"/>
      </g>
     </g>
    </g>
    <g id="xtick_3">
     <g id="line2d_3">
      <g>
       <use style="stroke:#000000;stroke-width:0.8;" x="239.93267" xlink:href="#md3cf0472ad" y="394.735256"/>
      </g>
     </g>
     <g id="text_3">
      <!-- 2022-01-01 -->
      <g transform="translate(188.563219 437.373509)rotate(-30)scale(0.1 -0.1)">
       <use xlink:href="#DejaVuSans-32"/>
       <use x="63.623047" xlink:href="#DejaVuSans-30"/>
       <use x="127.246094" xlink:href="#DejaVuSans-32"/>
       <use x="190.869141" xlink:href="#DejaVuSans-32"/>
       <use x="254.492188" xlink:href="#DejaVuSans-2d"/>
       <use x="290.576172" xlink:href="#DejaVuSans-30"/>
       <use x="354.199219" xlink:href="#DejaVuSans-31"/>
       <use x="417.822266" xlink:href="#DejaVuSans-2d"/>
       <use x="453.90625" xlink:href="#DejaVuSans-30"/>
       <use x="517.529297" xlink:href="#DejaVuSans-31"/>
      </g>
     </g>
    </g>
    <g id="xtick_4">
     <g id="line2d_4">
      <g>
       <use style="stroke:#000000;stroke-width:0.8;" x="309.558339" xlink:href="#md3cf0472ad" y="394.735256"/>
      </g>
     </g>
     <g id="text_4">
      <!-- 2022-01-15 -->
      <g transform="translate(258.188888 437.373509)rotate(-30)scale(0.1 -0.1)">
       <use xlink:href="#DejaVuSans-32"/>
       <use x="63.623047" xlink:href="#DejaVuSans-30"/>
       <use x="127.246094" xlink:href="#DejaVuSans-32"/>
       <use x="190.869141" xlink:href="#DejaVuSans-32"/>
       <use x="254.492188" xlink:href="#DejaVuSans-2d"/>
       <use x="290.576172" xlink:href="#DejaVuSans-30"/>
       <use x="354.199219" xlink:href="#DejaVuSans-31"/>
       <use x="417.822266" xlink:href="#DejaVuSans-2d"/>
       <use x="453.90625" xlink:href="#DejaVuSans-31"/>
       <use x="517.529297" xlink:href="#DejaVuSans-35"/>
      </g>
     </g>
    </g>
    <g id="xtick_5">
     <g id="line2d_5">
      <g>
       <use style="stroke:#000000;stroke-width:0.8;" x="394.103793" xlink:href="#md3cf0472ad" y="394.735256"/>
      </g>
     </g>
     <g id="text_5">
      <!-- 2022-02-01 -->
      <g transform="translate(342.734342 437.373509)rotate(-30)scale(0.1 -0.1)">
       <use xlink:href="#DejaVuSans-32"/>
       <use x="63.623047" xlink:href="#DejaVuSans-30"/>
       <use x="127.246094" xlink:href="#DejaVuSans-32"/>
       <use x="190.869141" xlink:href="#DejaVuSans-32"/>
       <use x="254.492188" xlink:href="#DejaVuSans-2d"/>
       <use x="290.576172" xlink:href="#DejaVuSans-30"/>
       <use x="354.199219" xlink:href="#DejaVuSans-32"/>
       <use x="417.822266" xlink:href="#DejaVuSans-2d"/>
       <use x="453.90625" xlink:href="#DejaVuSans-30"/>
       <use x="517.529297" xlink:href="#DejaVuSans-31"/>
      </g>
     </g>
    </g>
    <g id="xtick_6">
     <g id="line2d_6">
      <g>
       <use style="stroke:#000000;stroke-width:0.8;" x="463.729462" xlink:href="#md3cf0472ad" y="394.735256"/>
      </g>
     </g>
     <g id="text_6">
      <!-- 2022-02-15 -->
      <g transform="translate(412.360011 437.373509)rotate(-30)scale(0.1 -0.1)">
       <use xlink:href="#DejaVuSans-32"/>
       <use x="63.623047" xlink:href="#DejaVuSans-30"/>
       <use x="127.246094" xlink:href="#DejaVuSans-32"/>
       <use x="190.869141" xlink:href="#DejaVuSans-32"/>
       <use x="254.492188" xlink:href="#DejaVuSans-2d"/>
       <use x="290.576172" xlink:href="#DejaVuSans-30"/>
       <use x="354.199219" xlink:href="#DejaVuSans-32"/>
       <use x="417.822266" xlink:href="#DejaVuSans-2d"/>
       <use x="453.90625" xlink:href="#DejaVuSans-31"/>
       <use x="517.529297" xlink:href="#DejaVuSans-35"/>
      </g>
     </g>
    </g>
    <g id="xtick_7">
     <g id="line2d_7">
      <g>
       <use style="stroke:#000000;stroke-width:0.8;" x="533.35513" xlink:href="#md3cf0472ad" y="394.735256"/>
      </g>
     </g>
     <g id="text_7">
      <!-- 2022-03-01 -->
      <g transform="translate(481.985679 437.373509)rotate(-30)scale(0.1 -0.1)">
       <defs>
        <path d="M 2597 2516
Q 3050 2419 3304 2112
Q 3559 1806 3559 1356
Q 3559 666 3084 287
Q 2609 -91 1734 -91
Q 1441 -91 1130 -33
Q 819 25 488 141
L 488 750
Q 750 597 1062 519
Q 1375 441 1716 441
Q 2309 441 2620 675
Q 2931 909 2931 1356
Q 2931 1769 2642 2001
Q 2353 2234 1838 2234
L 1294 2234
L 1294 2753
L 1863 2753
Q 2328 2753 2575 2939
Q 2822 3125 2822 3475
Q 2822 3834 2567 4026
Q 2313 4219 1838 4219
Q 1578 4219 1281 4162
Q 984 4106 628 3988
L 628 4550
Q 988 4650 1302 4700
Q 1616 4750 1894 4750
Q 2613 4750 3031 4423
Q 3450 4097 3450 3541
Q 3450 3153 3228 2886
Q 3006 2619 2597 2516
z
" id="DejaVuSans-33" transform="scale(0.015625)"/>
       </defs>
       <use xlink:href="#DejaVuSans-32"/>
       <use x="63.623047" xlink:href="#DejaVuSans-30"/>
       <use x="127.246094" xlink:href="#DejaVuSans-32"/>
       <use x="190.869141" xlink:href="#DejaVuSans-32"/>
       <use x="254.492188" xlink:href="#DejaVuSans-2d"/>
       <use x="290.576172" xlink:href="#DejaVuSans-30"/>
       <use x="354.199219" xlink:href="#DejaVuSans-33"/>
       <use x="417.822266" xlink:href="#DejaVuSans-2d"/>
       <use x="453.90625" xlink:href="#DejaVuSans-30"/>
       <use x="517.529297" xlink:href="#DejaVuSans-31"/>
      </g>
     </g>
    </g>
    <g id="xtick_8">
     <g id="line2d_8">
      <g>
       <use style="stroke:#000000;stroke-width:0.8;" x="602.980799" xlink:href="#md3cf0472ad" y="394.735256"/>
      </g>
     </g>
     <g id="text_8">
      <!-- 2022-03-15 -->
      <g transform="translate(551.611347 437.373509)rotate(-30)scale(0.1 -0.1)">
       <use xlink:href="#DejaVuSans-32"/>
       <use x="63.623047" xlink:href="#DejaVuSans-30"/>
       <use x="127.246094" xlink:href="#DejaVuSans-32"/>
       <use x="190.869141" xlink:href="#DejaVuSans-32"/>
       <use x="254.492188" xlink:href="#DejaVuSans-2d"/>
       <use x="290.576172" xlink:href="#DejaVuSans-30"/>
       <use x="354.199219" xlink:href="#DejaVuSans-33"/>
       <use x="417.822266" xlink:href="#DejaVuSans-2d"/>
       <use x="453.90625" xlink:href="#DejaVuSans-31"/>
       <use x="517.529297" xlink:href="#DejaVuSans-35"/>
      </g>
     </g>
    </g>
    <g id="text_9">
     <!-- Time -->
     <g transform="translate(312.244531 450.773008)scale(0.1 -0.1)">
      <defs>
       <path d="M -19 4666
L 3928 4666
L 3928 4134
L 2272 4134
L 2272 0
L 1638 0
L 1638 4134
L -19 4134
L -19 4666
z
" id="DejaVuSans-54" transform="scale(0.015625)"/>
       <path d="M 603 3500
L 1178 3500
L 1178 0
L 603 0
L 603 3500
z
M 603 4863
L 1178 4863
L 1178 4134
L 603 4134
L 603 4863
z
" id="DejaVuSans-69" transform="scale(0.015625)"/>
       <path d="M 3328 2828
Q 3544 3216 3844 3400
Q 4144 3584 4550 3584
Q 5097 3584 5394 3201
Q 5691 2819 5691 2113
L 5691 0
L 5113 0
L 5113 2094
Q 5113 2597 4934 2840
Q 4756 3084 4391 3084
Q 3944 3084 3684 2787
Q 3425 2491 3425 1978
L 3425 0
L 2847 0
L 2847 2094
Q 2847 2600 2669 2842
Q 2491 3084 2119 3084
Q 1678 3084 1418 2786
Q 1159 2488 1159 1978
L 1159 0
L 581 0
L 581 3500
L 1159 3500
L 1159 2956
Q 1356 3278 1631 3431
Q 1906 3584 2284 3584
Q 2666 3584 2933 3390
Q 3200 3197 3328 2828
z
" id="DejaVuSans-6d" transform="scale(0.015625)"/>
       <path d="M 3597 1894
L 3597 1613
L 953 1613
Q 991 1019 1311 708
Q 1631 397 2203 397
Q 2534 397 2845 478
Q 3156 559 3463 722
L 3463 178
Q 3153 47 2828 -22
Q 2503 -91 2169 -91
Q 1331 -91 842 396
Q 353 884 353 1716
Q 353 2575 817 3079
Q 1281 3584 2069 3584
Q 2775 3584 3186 3129
Q 3597 2675 3597 1894
z
M 3022 2063
Q 3016 2534 2758 2815
Q 2500 3097 2075 3097
Q 1594 3097 1305 2825
Q 1016 2553 972 2059
L 3022 2063
z
" id="DejaVuSans-65" transform="scale(0.015625)"/>
      </defs>
      <use xlink:href="#DejaVuSans-54"/>
      <use x="57.958984" xlink:href="#DejaVuSans-69"/>
      <use x="85.742188" xlink:href="#DejaVuSans-6d"/>
      <use x="183.154297" xlink:href="#DejaVuSans-65"/>
     </g>
    </g>
   </g>
   <g id="matplotlib.axis_2">
    <g id="ytick_1">
     <g id="line2d_9">
      <defs>
       <path d="M 0 0
L -3.5 0
" id="md9e0dae52c" style="stroke:#000000;stroke-width:0.8;"/>
      </defs>
      <g>
       <use style="stroke:#000000;stroke-width:0.8;" x="45.478125" xlink:href="#md9e0dae52c" y="323.419486"/>
      </g>
     </g>
     <g id="text_10">
      <!-- $\mathdefault{10^{1}}$ -->
      <g transform="translate(20.878125 327.218705)scale(0.1 -0.1)">
       <use transform="translate(0 0.684375)" xlink:href="#DejaVuSans-31"/>
       <use transform="translate(63.623047 0.684375)" xlink:href="#DejaVuSans-30"/>
       <use transform="translate(128.203125 38.965625)scale(0.7)" xlink:href="#DejaVuSans-31"/>
      </g>
     </g>
    </g>
    <g id="ytick_2">
     <g id="line2d_10">
      <g>
       <use style="stroke:#000000;stroke-width:0.8;" x="45.478125" xlink:href="#md9e0dae52c" y="249.290681"/>
      </g>
     </g>
     <g id="text_11">
      <!-- $\mathdefault{10^{2}}$ -->
      <g transform="translate(20.878125 253.0899)scale(0.1 -0.1)">
       <use transform="translate(0 0.765625)" xlink:href="#DejaVuSans-31"/>
       <use transform="translate(63.623047 0.765625)" xlink:href="#DejaVuSans-30"/>
       <use transform="translate(128.203125 39.046875)scale(0.7)" xlink:href="#DejaVuSans-32"/>
      </g>
     </g>
    </g>
    <g id="ytick_3">
     <g id="line2d_11">
      <g>
       <use style="stroke:#000000;stroke-width:0.8;" x="45.478125" xlink:href="#md9e0dae52c" y="175.161876"/>
      </g>
     </g>
     <g id="text_12">
      <!-- $\mathdefault{10^{3}}$ -->
      <g transform="translate(20.878125 178.961094)scale(0.1 -0.1)">
       <use transform="translate(0 0.765625)" xlink:href="#DejaVuSans-31"/>
       <use transform="translate(63.623047 0.765625)" xlink:href="#DejaVuSans-30"/>
       <use transform="translate(128.203125 39.046875)scale(0.7)" xlink:href="#DejaVuSans-33"/>
      </g>
     </g>
    </g>
    <g id="ytick_4">
     <g id="line2d_12">
      <g>
       <use style="stroke:#000000;stroke-width:0.8;" x="45.478125" xlink:href="#md9e0dae52c" y="101.03307"/>
      </g>
     </g>
     <g id="text_13">
      <!-- $\mathdefault{10^{4}}$ -->
      <g transform="translate(20.878125 104.832289)scale(0.1 -0.1)">
       <defs>
        <path d="M 2419 4116
L 825 1625
L 2419 1625
L 2419 4116
z
M 2253 4666
L 3047 4666
L 3047 1625
L 3713 1625
L 3713 1100
L 3047 1100
L 3047 0
L 2419 0
L 2419 1100
L 313 1100
L 313 1709
L 2253 4666
z
" id="DejaVuSans-34" transform="scale(0.015625)"/>
       </defs>
       <use transform="translate(0 0.684375)" xlink:href="#DejaVuSans-31"/>
       <use transform="translate(63.623047 0.684375)" xlink:href="#DejaVuSans-30"/>
       <use transform="translate(128.203125 38.965625)scale(0.7)" xlink:href="#DejaVuSans-34"/>
      </g>
     </g>
    </g>
    <g id="ytick_5">
     <g id="line2d_13">
      <defs>
       <path d="M 0 0
L -2 0
" id="m8c169742a5" style="stroke:#000000;stroke-width:0.6;"/>
      </defs>
      <g>
       <use style="stroke:#000000;stroke-width:0.6;" x="45.478125" xlink:href="#m8c169742a5" y="375.233298"/>
      </g>
     </g>
    </g>
    <g id="ytick_6">
     <g id="line2d_14">
      <g>
       <use style="stroke:#000000;stroke-width:0.6;" x="45.478125" xlink:href="#m8c169742a5" y="362.179863"/>
      </g>
     </g>
    </g>
    <g id="ytick_7">
     <g id="line2d_15">
      <g>
       <use style="stroke:#000000;stroke-width:0.6;" x="45.478125" xlink:href="#m8c169742a5" y="352.918304"/>
      </g>
     </g>
    </g>
    <g id="ytick_8">
     <g id="line2d_16">
      <g>
       <use style="stroke:#000000;stroke-width:0.6;" x="45.478125" xlink:href="#m8c169742a5" y="345.73448"/>
      </g>
     </g>
    </g>
    <g id="ytick_9">
     <g id="line2d_17">
      <g>
       <use style="stroke:#000000;stroke-width:0.6;" x="45.478125" xlink:href="#m8c169742a5" y="339.864869"/>
      </g>
     </g>
    </g>
    <g id="ytick_10">
     <g id="line2d_18">
      <g>
       <use style="stroke:#000000;stroke-width:0.6;" x="45.478125" xlink:href="#m8c169742a5" y="334.902183"/>
      </g>
     </g>
    </g>
    <g id="ytick_11">
     <g id="line2d_19">
      <g>
       <use style="stroke:#000000;stroke-width:0.6;" x="45.478125" xlink:href="#m8c169742a5" y="330.60331"/>
      </g>
     </g>
    </g>
    <g id="ytick_12">
     <g id="line2d_20">
      <g>
       <use style="stroke:#000000;stroke-width:0.6;" x="45.478125" xlink:href="#m8c169742a5" y="326.811434"/>
      </g>
     </g>
    </g>
    <g id="ytick_13">
     <g id="line2d_21">
      <g>
       <use style="stroke:#000000;stroke-width:0.6;" x="45.478125" xlink:href="#m8c169742a5" y="301.104492"/>
      </g>
     </g>
    </g>
    <g id="ytick_14">
     <g id="line2d_22">
      <g>
       <use style="stroke:#000000;stroke-width:0.6;" x="45.478125" xlink:href="#m8c169742a5" y="288.051058"/>
      </g>
     </g>
    </g>
    <g id="ytick_15">
     <g id="line2d_23">
      <g>
       <use style="stroke:#000000;stroke-width:0.6;" x="45.478125" xlink:href="#m8c169742a5" y="278.789498"/>
      </g>
     </g>
    </g>
    <g id="ytick_16">
     <g id="line2d_24">
      <g>
       <use style="stroke:#000000;stroke-width:0.6;" x="45.478125" xlink:href="#m8c169742a5" y="271.605675"/>
      </g>
     </g>
    </g>
    <g id="ytick_17">
     <g id="line2d_25">
      <g>
       <use style="stroke:#000000;stroke-width:0.6;" x="45.478125" xlink:href="#m8c169742a5" y="265.736064"/>
      </g>
     </g>
    </g>
    <g id="ytick_18">
     <g id="line2d_26">
      <g>
       <use style="stroke:#000000;stroke-width:0.6;" x="45.478125" xlink:href="#m8c169742a5" y="260.773378"/>
      </g>
     </g>
    </g>
    <g id="ytick_19">
     <g id="line2d_27">
      <g>
       <use style="stroke:#000000;stroke-width:0.6;" x="45.478125" xlink:href="#m8c169742a5" y="256.474504"/>
      </g>
     </g>
    </g>
    <g id="ytick_20">
     <g id="line2d_28">
      <g>
       <use style="stroke:#000000;stroke-width:0.6;" x="45.478125" xlink:href="#m8c169742a5" y="252.682629"/>
      </g>
     </g>
    </g>
    <g id="ytick_21">
     <g id="line2d_29">
      <g>
       <use style="stroke:#000000;stroke-width:0.6;" x="45.478125" xlink:href="#m8c169742a5" y="226.975687"/>
      </g>
     </g>
    </g>
    <g id="ytick_22">
     <g id="line2d_30">
      <g>
       <use style="stroke:#000000;stroke-width:0.6;" x="45.478125" xlink:href="#m8c169742a5" y="213.922252"/>
      </g>
     </g>
    </g>
    <g id="ytick_23">
     <g id="line2d_31">
      <g>
       <use style="stroke:#000000;stroke-width:0.6;" x="45.478125" xlink:href="#m8c169742a5" y="204.660693"/>
      </g>
     </g>
    </g>
    <g id="ytick_24">
     <g id="line2d_32">
      <g>
       <use style="stroke:#000000;stroke-width:0.6;" x="45.478125" xlink:href="#m8c169742a5" y="197.47687"/>
      </g>
     </g>
    </g>
    <g id="ytick_25">
     <g id="line2d_33">
      <g>
       <use style="stroke:#000000;stroke-width:0.6;" x="45.478125" xlink:href="#m8c169742a5" y="191.607258"/>
      </g>
     </g>
    </g>
    <g id="ytick_26">
     <g id="line2d_34">
      <g>
       <use style="stroke:#000000;stroke-width:0.6;" x="45.478125" xlink:href="#m8c169742a5" y="186.644573"/>
      </g>
     </g>
    </g>
    <g id="ytick_27">
     <g id="line2d_35">
      <g>
       <use style="stroke:#000000;stroke-width:0.6;" x="45.478125" xlink:href="#m8c169742a5" y="182.345699"/>
      </g>
     </g>
    </g>
    <g id="ytick_28">
     <g id="line2d_36">
      <g>
       <use style="stroke:#000000;stroke-width:0.6;" x="45.478125" xlink:href="#m8c169742a5" y="178.553824"/>
      </g>
     </g>
    </g>
    <g id="ytick_29">
     <g id="line2d_37">
      <g>
       <use style="stroke:#000000;stroke-width:0.6;" x="45.478125" xlink:href="#m8c169742a5" y="152.846882"/>
      </g>
     </g>
    </g>
    <g id="ytick_30">
     <g id="line2d_38">
      <g>
       <use style="stroke:#000000;stroke-width:0.6;" x="45.478125" xlink:href="#m8c169742a5" y="139.793447"/>
      </g>
     </g>
    </g>
    <g id="ytick_31">
     <g id="line2d_39">
      <g>
       <use style="stroke:#000000;stroke-width:0.6;" x="45.478125" xlink:href="#m8c169742a5" y="130.531888"/>
      </g>
     </g>
    </g>
    <g id="ytick_32">
     <g id="line2d_40">
      <g>
       <use style="stroke:#000000;stroke-width:0.6;" x="45.478125" xlink:href="#m8c169742a5" y="123.348064"/>
      </g>
     </g>
    </g>
    <g id="ytick_33">
     <g id="line2d_41">
      <g>
       <use style="stroke:#000000;stroke-width:0.6;" x="45.478125" xlink:href="#m8c169742a5" y="117.478453"/>
      </g>
     </g>
    </g>
    <g id="ytick_34">
     <g id="line2d_42">
      <g>
       <use style="stroke:#000000;stroke-width:0.6;" x="45.478125" xlink:href="#m8c169742a5" y="112.515768"/>
      </g>
     </g>
    </g>
    <g id="ytick_35">
     <g id="line2d_43">
      <g>
       <use style="stroke:#000000;stroke-width:0.6;" x="45.478125" xlink:href="#m8c169742a5" y="108.216894"/>
      </g>
     </g>
    </g>
    <g id="ytick_36">
     <g id="line2d_44">
      <g>
       <use style="stroke:#000000;stroke-width:0.6;" x="45.478125" xlink:href="#m8c169742a5" y="104.425019"/>
      </g>
     </g>
    </g>
    <g id="ytick_37">
     <g id="line2d_45">
      <g>
       <use style="stroke:#000000;stroke-width:0.6;" x="45.478125" xlink:href="#m8c169742a5" y="78.718077"/>
      </g>
     </g>
    </g>
    <g id="ytick_38">
     <g id="line2d_46">
      <g>
       <use style="stroke:#000000;stroke-width:0.6;" x="45.478125" xlink:href="#m8c169742a5" y="65.664642"/>
      </g>
     </g>
    </g>
    <g id="ytick_39">
     <g id="line2d_47">
      <g>
       <use style="stroke:#000000;stroke-width:0.6;" x="45.478125" xlink:href="#m8c169742a5" y="56.403083"/>
      </g>
     </g>
    </g>
    <g id="text_14">
     <!-- Daily confirmed cases -->
     <g transform="translate(14.798438 278.519787)rotate(-90)scale(0.1 -0.1)">
      <defs>
       <path d="M 1259 4147
L 1259 519
L 2022 519
Q 2988 519 3436 956
Q 3884 1394 3884 2338
Q 3884 3275 3436 3711
Q 2988 4147 2022 4147
L 1259 4147
z
M 628 4666
L 1925 4666
Q 3281 4666 3915 4102
Q 4550 3538 4550 2338
Q 4550 1131 3912 565
Q 3275 0 1925 0
L 628 0
L 628 4666
z
" id="DejaVuSans-44" transform="scale(0.015625)"/>
       <path d="M 2194 1759
Q 1497 1759 1228 1600
Q 959 1441 959 1056
Q 959 750 1161 570
Q 1363 391 1709 391
Q 2188 391 2477 730
Q 2766 1069 2766 1631
L 2766 1759
L 2194 1759
z
M 3341 1997
L 3341 0
L 2766 0
L 2766 531
Q 2569 213 2275 61
Q 1981 -91 1556 -91
Q 1019 -91 701 211
Q 384 513 384 1019
Q 384 1609 779 1909
Q 1175 2209 1959 2209
L 2766 2209
L 2766 2266
Q 2766 2663 2505 2880
Q 2244 3097 1772 3097
Q 1472 3097 1187 3025
Q 903 2953 641 2809
L 641 3341
Q 956 3463 1253 3523
Q 1550 3584 1831 3584
Q 2591 3584 2966 3190
Q 3341 2797 3341 1997
z
" id="DejaVuSans-61" transform="scale(0.015625)"/>
       <path d="M 603 4863
L 1178 4863
L 1178 0
L 603 0
L 603 4863
z
" id="DejaVuSans-6c" transform="scale(0.015625)"/>
       <path d="M 2059 -325
Q 1816 -950 1584 -1140
Q 1353 -1331 966 -1331
L 506 -1331
L 506 -850
L 844 -850
Q 1081 -850 1212 -737
Q 1344 -625 1503 -206
L 1606 56
L 191 3500
L 800 3500
L 1894 763
L 2988 3500
L 3597 3500
L 2059 -325
z
" id="DejaVuSans-79" transform="scale(0.015625)"/>
       <path id="DejaVuSans-20" transform="scale(0.015625)"/>
       <path d="M 3122 3366
L 3122 2828
Q 2878 2963 2633 3030
Q 2388 3097 2138 3097
Q 1578 3097 1268 2742
Q 959 2388 959 1747
Q 959 1106 1268 751
Q 1578 397 2138 397
Q 2388 397 2633 464
Q 2878 531 3122 666
L 3122 134
Q 2881 22 2623 -34
Q 2366 -91 2075 -91
Q 1284 -91 818 406
Q 353 903 353 1747
Q 353 2603 823 3093
Q 1294 3584 2113 3584
Q 2378 3584 2631 3529
Q 2884 3475 3122 3366
z
" id="DejaVuSans-63" transform="scale(0.015625)"/>
       <path d="M 1959 3097
Q 1497 3097 1228 2736
Q 959 2375 959 1747
Q 959 1119 1226 758
Q 1494 397 1959 397
Q 2419 397 2687 759
Q 2956 1122 2956 1747
Q 2956 2369 2687 2733
Q 2419 3097 1959 3097
z
M 1959 3584
Q 2709 3584 3137 3096
Q 3566 2609 3566 1747
Q 3566 888 3137 398
Q 2709 -91 1959 -91
Q 1206 -91 779 398
Q 353 888 353 1747
Q 353 2609 779 3096
Q 1206 3584 1959 3584
z
" id="DejaVuSans-6f" transform="scale(0.015625)"/>
       <path d="M 3513 2113
L 3513 0
L 2938 0
L 2938 2094
Q 2938 2591 2744 2837
Q 2550 3084 2163 3084
Q 1697 3084 1428 2787
Q 1159 2491 1159 1978
L 1159 0
L 581 0
L 581 3500
L 1159 3500
L 1159 2956
Q 1366 3272 1645 3428
Q 1925 3584 2291 3584
Q 2894 3584 3203 3211
Q 3513 2838 3513 2113
z
" id="DejaVuSans-6e" transform="scale(0.015625)"/>
       <path d="M 2375 4863
L 2375 4384
L 1825 4384
Q 1516 4384 1395 4259
Q 1275 4134 1275 3809
L 1275 3500
L 2222 3500
L 2222 3053
L 1275 3053
L 1275 0
L 697 0
L 697 3053
L 147 3053
L 147 3500
L 697 3500
L 697 3744
Q 697 4328 969 4595
Q 1241 4863 1831 4863
L 2375 4863
z
" id="DejaVuSans-66" transform="scale(0.015625)"/>
       <path d="M 2631 2963
Q 2534 3019 2420 3045
Q 2306 3072 2169 3072
Q 1681 3072 1420 2755
Q 1159 2438 1159 1844
L 1159 0
L 581 0
L 581 3500
L 1159 3500
L 1159 2956
Q 1341 3275 1631 3429
Q 1922 3584 2338 3584
Q 2397 3584 2469 3576
Q 2541 3569 2628 3553
L 2631 2963
z
" id="DejaVuSans-72" transform="scale(0.015625)"/>
       <path d="M 2906 2969
L 2906 4863
L 3481 4863
L 3481 0
L 2906 0
L 2906 525
Q 2725 213 2448 61
Q 2172 -91 1784 -91
Q 1150 -91 751 415
Q 353 922 353 1747
Q 353 2572 751 3078
Q 1150 3584 1784 3584
Q 2172 3584 2448 3432
Q 2725 3281 2906 2969
z
M 947 1747
Q 947 1113 1208 752
Q 1469 391 1925 391
Q 2381 391 2643 752
Q 2906 1113 2906 1747
Q 2906 2381 2643 2742
Q 2381 3103 1925 3103
Q 1469 3103 1208 2742
Q 947 2381 947 1747
z
" id="DejaVuSans-64" transform="scale(0.015625)"/>
       <path d="M 2834 3397
L 2834 2853
Q 2591 2978 2328 3040
Q 2066 3103 1784 3103
Q 1356 3103 1142 2972
Q 928 2841 928 2578
Q 928 2378 1081 2264
Q 1234 2150 1697 2047
L 1894 2003
Q 2506 1872 2764 1633
Q 3022 1394 3022 966
Q 3022 478 2636 193
Q 2250 -91 1575 -91
Q 1294 -91 989 -36
Q 684 19 347 128
L 347 722
Q 666 556 975 473
Q 1284 391 1588 391
Q 1994 391 2212 530
Q 2431 669 2431 922
Q 2431 1156 2273 1281
Q 2116 1406 1581 1522
L 1381 1569
Q 847 1681 609 1914
Q 372 2147 372 2553
Q 372 3047 722 3315
Q 1072 3584 1716 3584
Q 2034 3584 2315 3537
Q 2597 3491 2834 3397
z
" id="DejaVuSans-73" transform="scale(0.015625)"/>
      </defs>
      <use xlink:href="#DejaVuSans-44"/>
      <use x="77.001953" xlink:href="#DejaVuSans-61"/>
      <use x="138.28125" xlink:href="#DejaVuSans-69"/>
      <use x="166.064453" xlink:href="#DejaVuSans-6c"/>
      <use x="193.847656" xlink:href="#DejaVuSans-79"/>
      <use x="253.027344" xlink:href="#DejaVuSans-20"/>
      <use x="284.814453" xlink:href="#DejaVuSans-63"/>
      <use x="339.794922" xlink:href="#DejaVuSans-6f"/>
      <use x="400.976562" xlink:href="#DejaVuSans-6e"/>
      <use x="464.355469" xlink:href="#DejaVuSans-66"/>
      <use x="499.560547" xlink:href="#DejaVuSans-69"/>
      <use x="527.34375" xlink:href="#DejaVuSans-72"/>
      <use x="566.707031" xlink:href="#DejaVuSans-6d"/>
      <use x="664.119141" xlink:href="#DejaVuSans-65"/>
      <use x="725.642578" xlink:href="#DejaVuSans-64"/>
      <use x="789.119141" xlink:href="#DejaVuSans-20"/>
      <use x="820.90625" xlink:href="#DejaVuSans-63"/>
      <use x="875.886719" xlink:href="#DejaVuSans-61"/>
      <use x="937.166016" xlink:href="#DejaVuSans-73"/>
      <use x="989.265625" xlink:href="#DejaVuSans-65"/>
      <use x="1050.789062" xlink:href="#DejaVuSans-73"/>
     </g>
    </g>
   </g>
   <g id="line2d_48">
    <path clip-path="url(#pd310501a41)" d="M 70.841761 176.924738
L 75.815023 166.493279
L 80.788285 166.711854
L 85.761547 166.230843
L 90.734809 155.626369
L 95.708072 150.235357
L 100.681334 150.235357
L 105.654596 150.235357
L 110.627858 150.888657
L 115.60112 150.097826
L 120.574382 149.69081
L 125.547644 151.322168
L 130.520906 151.615191
L 135.494168 151.615191
L 140.46743 151.615191
L 145.440692 149.950371
L 150.413954 148.814708
L 155.387216 145.455847
L 160.360478 142.161104
L 165.33374 138.389585
L 170.307002 138.389585
L 175.280264 138.389585
L 180.253526 127.47918
L 185.226788 125.313655
L 190.20005 120.875512
L 195.173312 116.766621
L 200.146574 120.442307
L 205.119836 120.442307
L 210.093098 120.442307
L 215.06636 110.363383
L 220.039622 107.430361
L 225.012884 106.640134
L 229.986146 105.013948
L 234.959408 105.013948
L 239.93267 105.013948
L 244.905932 105.013948
L 249.879195 99.493447
L 254.852457 99.822634
L 259.825719 98.967266
L 264.798981 96.927536
L 269.772243 90.895788
L 274.745505 90.895788
L 279.718767 90.895788
L 284.692029 95.00518
L 289.665291 95.229063
L 294.638553 95.567253
L 299.611815 98.14707
L 304.585077 101.27358
L 309.558339 101.27358
L 314.531601 101.27358
L 319.504863 119.305342
L 324.478125 105.800504
L 329.451387 108.481855
L 334.424649 111.651668
L 339.397911 107.845369
L 344.371173 107.845369
L 349.344435 107.845369
L 354.317697 98.152116
L 359.290959 111.826115
" style="fill:none;stroke:#ff0000;stroke-linecap:square;"/>
   </g>
   <g id="line2d_49">
    <path clip-path="url(#pd310501a41)" d="M 359.290959 97.111642
L 364.264221 96.597439
L 369.237483 96.096455
L 374.210745 95.46815
L 379.184007 94.808105
L 384.157269 94.163669
L 389.130531 93.535132
L 394.103793 93.034041
L 399.077055 92.547624
L 404.050318 92.00577
L 409.02358 91.481172
L 413.996842 91.0216
L 418.970104 90.633857
L 423.943366 90.263943
L 428.916628 89.878287
L 433.88989 89.50466
L 438.863152 89.191101
L 443.836414 88.8447
L 448.809676 88.402186
L 453.782938 87.97696
L 458.7562 87.715759
L 463.729462 87.478034
L 468.702724 87.221301
L 473.675986 86.899673
L 478.649248 86.580303
L 483.62251 86.474991
L 488.595772 86.434729
L 493.569034 86.415248
L 498.542296 86.338051
L 503.515558 86.097672
L 508.48882 85.875783
L 513.462082 85.672441
L 518.435344 85.658695
L 523.408606 85.795723
L 528.381868 85.95333
L 533.35513 86.131356
L 538.328392 86.246941
L 543.301654 86.110955
L 548.274916 85.991679
L 553.248178 85.784712
L 558.221441 85.826125
L 563.194703 85.882482
L 568.167965 85.953614
L 573.141227 86.039347
L 578.114489 86.121055
" style="fill:none;stroke:#9467bd;stroke-dasharray:3.7,1.6;stroke-dashoffset:0;"/>
   </g>
   <g id="line2d_50">
    <path clip-path="url(#pd310501a41)" d="M 359.290959 97.111642
L 364.264221 96.597439
L 369.237483 96.096455
L 374.210745 95.46815
L 379.184007 94.808105
L 384.157269 94.163669
L 389.130531 93.535132
L 394.103793 94.420991
L 399.077055 98.006912
L 404.050318 103.840594
L 409.02358 111.531027
L 413.996842 121.079989
L 418.970104 133.706197
L 423.943366 152.883987
L 428.916628 174.010356
L 433.88989 181.920692
L 438.863152 186.250153
L 443.836414 189.820016
L 448.809676 193.302788
L 453.782938 197.98745
L 458.7562 201.175322
L 463.729462 205.264463
L 468.702724 209.096041
L 473.675986 213.172069
L 478.649248 216.917813
L 483.62251 220.621741
L 488.595772 224.012206
L 493.569034 227.703529
L 498.542296 231.364875
L 503.515558 234.58075
L 508.48882 238.033747
L 513.462082 241.369999
L 518.435344 244.835561
L 523.408606 248.582851
L 528.381868 252.345779
L 533.35513 256.53456
L 538.328392 260.792859
L 543.301654 264.840887
L 548.274916 268.617357
L 553.248178 272.243888
L 558.221441 276.091113
L 563.194703 279.707287
L 568.167965 283.533536
L 573.141227 287.602174
L 578.114489 291.635371
" style="fill:none;stroke:#ff7f0e;stroke-dasharray:3.7,1.6;stroke-dashoffset:0;"/>
   </g>
   <g id="line2d_51">
    <path clip-path="url(#pd310501a41)" d="M 359.290959 97.111642
L 364.264221 96.597439
L 369.237483 96.096455
L 374.210745 95.46815
L 379.184007 94.808105
L 384.157269 94.163669
L 389.130531 93.535132
L 394.103793 93.034041
L 399.077055 92.547624
L 404.050318 92.00577
L 409.02358 91.481172
L 413.996842 91.246828
L 418.970104 92.146603
L 423.943366 95.368591
L 428.916628 101.558212
L 433.88989 108.890067
L 438.863152 119.329972
L 443.836414 131.488025
L 448.809676 150.586349
L 453.782938 171.436492
L 458.7562 179.786536
L 463.729462 184.027516
L 468.702724 187.811794
L 473.675986 191.979824
L 478.649248 195.809448
L 483.62251 199.440887
L 488.595772 203.386
L 493.569034 207.147811
L 498.542296 211.120638
L 503.515558 215.182313
L 508.48882 218.812469
L 513.462082 222.186174
L 518.435344 225.949982
L 523.408606 229.425634
L 528.381868 232.63446
L 533.35513 235.602386
L 538.328392 238.838829
L 543.301654 242.748666
L 548.274916 246.320285
L 553.248178 250.131066
L 558.221441 254.207981
L 563.194703 258.241971
L 568.167965 262.275534
L 573.141227 266.308676
L 578.114489 270.087026
" style="fill:none;stroke:#2ca02c;stroke-dasharray:3.7,1.6;stroke-dashoffset:0;"/>
   </g>
   <g id="line2d_52">
    <path clip-path="url(#pd310501a41)" d="M 359.290959 97.111642
L 364.264221 96.597439
L 369.237483 96.881427
L 374.210745 100.753053
L 379.184007 106.90442
L 384.157269 114.282908
L 389.130531 123.094793
L 394.103793 135.688513
L 399.077055 155.093668
L 404.050318 176.874233
L 409.02358 184.204646
L 413.996842 188.274426
L 418.970104 192.098252
L 423.943366 195.756344
L 428.916628 200.052924
L 433.88989 204.166456
L 438.863152 207.833901
L 443.836414 211.632576
L 448.809676 215.231531
L 453.782938 218.826066
L 458.7562 222.875799
L 463.729462 226.305187
L 468.702724 229.831131
L 473.675986 233.463814
L 478.649248 237.049381
L 483.62251 240.260551
L 488.595772 243.471641
L 493.569034 247.261268
L 498.542296 251.108895
L 503.515558 254.854525
L 508.48882 258.820243
L 513.462082 262.87027
L 518.435344 266.781513
L 523.408606 270.491153
L 528.381868 274.441936
L 533.35513 278.29395
L 538.328392 282.216793
L 543.301654 286.139609
L 548.274916 290.062399
L 553.248178 293.985167
L 558.221441 297.907916
L 563.194703 301.830647
L 568.167965 305.753363
L 573.141227 309.676065
L 578.114489 313.598754
" style="fill:none;stroke:#000000;stroke-dasharray:3.7,1.6;stroke-dashoffset:0;"/>
   </g>
   <g id="patch_3">
    <path d="M 45.478125 394.735256
L 45.478125 52.015256
" style="fill:none;stroke:#000000;stroke-linecap:square;stroke-linejoin:miter;stroke-width:0.8;"/>
   </g>
   <g id="patch_4">
    <path d="M 603.478125 394.735256
L 603.478125 52.015256
" style="fill:none;stroke:#000000;stroke-linecap:square;stroke-linejoin:miter;stroke-width:0.8;"/>
   </g>
   <g id="patch_5">
    <path d="M 45.478125 394.735256
L 603.478125 394.735256
" style="fill:none;stroke:#000000;stroke-linecap:square;stroke-linejoin:miter;stroke-width:0.8;"/>
   </g>
   <g id="patch_6">
    <path d="M 45.478125 52.015256
L 603.478125 52.015256
" style="fill:none;stroke:#000000;stroke-linecap:square;stroke-linejoin:miter;stroke-width:0.8;"/>
   </g>
   <g id="text_15">
    <!-- Daily Confirmed Cases in Cook County as of 11/27/21 to 1/25/22 -->
    <g transform="translate(82.300781 18.597656)scale(0.15 -0.15)">
     <defs>
      <path d="M 4122 4306
L 4122 3641
Q 3803 3938 3442 4084
Q 3081 4231 2675 4231
Q 1875 4231 1450 3742
Q 1025 3253 1025 2328
Q 1025 1406 1450 917
Q 1875 428 2675 428
Q 3081 428 3442 575
Q 3803 722 4122 1019
L 4122 359
Q 3791 134 3420 21
Q 3050 -91 2638 -91
Q 1578 -91 968 557
Q 359 1206 359 2328
Q 359 3453 968 4101
Q 1578 4750 2638 4750
Q 3056 4750 3426 4639
Q 3797 4528 4122 4306
z
" id="DejaVuSans-43" transform="scale(0.015625)"/>
      <path d="M 581 4863
L 1159 4863
L 1159 1991
L 2875 3500
L 3609 3500
L 1753 1863
L 3688 0
L 2938 0
L 1159 1709
L 1159 0
L 581 0
L 581 4863
z
" id="DejaVuSans-6b" transform="scale(0.015625)"/>
      <path d="M 544 1381
L 544 3500
L 1119 3500
L 1119 1403
Q 1119 906 1312 657
Q 1506 409 1894 409
Q 2359 409 2629 706
Q 2900 1003 2900 1516
L 2900 3500
L 3475 3500
L 3475 0
L 2900 0
L 2900 538
Q 2691 219 2414 64
Q 2138 -91 1772 -91
Q 1169 -91 856 284
Q 544 659 544 1381
z
M 1991 3584
L 1991 3584
z
" id="DejaVuSans-75" transform="scale(0.015625)"/>
      <path d="M 1172 4494
L 1172 3500
L 2356 3500
L 2356 3053
L 1172 3053
L 1172 1153
Q 1172 725 1289 603
Q 1406 481 1766 481
L 2356 481
L 2356 0
L 1766 0
Q 1100 0 847 248
Q 594 497 594 1153
L 594 3053
L 172 3053
L 172 3500
L 594 3500
L 594 4494
L 1172 4494
z
" id="DejaVuSans-74" transform="scale(0.015625)"/>
      <path d="M 1625 4666
L 2156 4666
L 531 -594
L 0 -594
L 1625 4666
z
" id="DejaVuSans-2f" transform="scale(0.015625)"/>
      <path d="M 525 4666
L 3525 4666
L 3525 4397
L 1831 0
L 1172 0
L 2766 4134
L 525 4134
L 525 4666
z
" id="DejaVuSans-37" transform="scale(0.015625)"/>
     </defs>
     <use xlink:href="#DejaVuSans-44"/>
     <use x="77.001953" xlink:href="#DejaVuSans-61"/>
     <use x="138.28125" xlink:href="#DejaVuSans-69"/>
     <use x="166.064453" xlink:href="#DejaVuSans-6c"/>
     <use x="193.847656" xlink:href="#DejaVuSans-79"/>
     <use x="253.027344" xlink:href="#DejaVuSans-20"/>
     <use x="284.814453" xlink:href="#DejaVuSans-43"/>
     <use x="354.638672" xlink:href="#DejaVuSans-6f"/>
     <use x="415.820312" xlink:href="#DejaVuSans-6e"/>
     <use x="479.199219" xlink:href="#DejaVuSans-66"/>
     <use x="514.404297" xlink:href="#DejaVuSans-69"/>
     <use x="542.1875" xlink:href="#DejaVuSans-72"/>
     <use x="581.550781" xlink:href="#DejaVuSans-6d"/>
     <use x="678.962891" xlink:href="#DejaVuSans-65"/>
     <use x="740.486328" xlink:href="#DejaVuSans-64"/>
     <use x="803.962891" xlink:href="#DejaVuSans-20"/>
     <use x="835.75" xlink:href="#DejaVuSans-43"/>
     <use x="905.574219" xlink:href="#DejaVuSans-61"/>
     <use x="966.853516" xlink:href="#DejaVuSans-73"/>
     <use x="1018.953125" xlink:href="#DejaVuSans-65"/>
     <use x="1080.476562" xlink:href="#DejaVuSans-73"/>
     <use x="1132.576172" xlink:href="#DejaVuSans-20"/>
     <use x="1164.363281" xlink:href="#DejaVuSans-69"/>
     <use x="1192.146484" xlink:href="#DejaVuSans-6e"/>
     <use x="1255.525391" xlink:href="#DejaVuSans-20"/>
     <use x="1287.3125" xlink:href="#DejaVuSans-43"/>
     <use x="1357.136719" xlink:href="#DejaVuSans-6f"/>
     <use x="1418.318359" xlink:href="#DejaVuSans-6f"/>
     <use x="1479.5" xlink:href="#DejaVuSans-6b"/>
     <use x="1537.410156" xlink:href="#DejaVuSans-20"/>
     <use x="1569.197266" xlink:href="#DejaVuSans-43"/>
     <use x="1639.021484" xlink:href="#DejaVuSans-6f"/>
     <use x="1700.203125" xlink:href="#DejaVuSans-75"/>
     <use x="1763.582031" xlink:href="#DejaVuSans-6e"/>
     <use x="1826.960938" xlink:href="#DejaVuSans-74"/>
     <use x="1866.169922" xlink:href="#DejaVuSans-79"/>
     <use x="1925.349609" xlink:href="#DejaVuSans-20"/>
     <use x="1957.136719" xlink:href="#DejaVuSans-61"/>
     <use x="2018.416016" xlink:href="#DejaVuSans-73"/>
     <use x="2070.515625" xlink:href="#DejaVuSans-20"/>
     <use x="2102.302734" xlink:href="#DejaVuSans-6f"/>
     <use x="2163.484375" xlink:href="#DejaVuSans-66"/>
     <use x="2198.689453" xlink:href="#DejaVuSans-20"/>
     <use x="2230.476562" xlink:href="#DejaVuSans-31"/>
     <use x="2294.099609" xlink:href="#DejaVuSans-31"/>
     <use x="2357.722656" xlink:href="#DejaVuSans-2f"/>
     <use x="2391.414062" xlink:href="#DejaVuSans-32"/>
     <use x="2455.037109" xlink:href="#DejaVuSans-37"/>
     <use x="2518.660156" xlink:href="#DejaVuSans-2f"/>
     <use x="2552.351562" xlink:href="#DejaVuSans-32"/>
     <use x="2615.974609" xlink:href="#DejaVuSans-31"/>
     <use x="2679.597656" xlink:href="#DejaVuSans-20"/>
     <use x="2711.384766" xlink:href="#DejaVuSans-74"/>
     <use x="2750.59375" xlink:href="#DejaVuSans-6f"/>
     <use x="2811.775391" xlink:href="#DejaVuSans-20"/>
     <use x="2843.5625" xlink:href="#DejaVuSans-31"/>
     <use x="2907.185547" xlink:href="#DejaVuSans-2f"/>
     <use x="2940.876953" xlink:href="#DejaVuSans-32"/>
     <use x="3004.5" xlink:href="#DejaVuSans-35"/>
     <use x="3068.123047" xlink:href="#DejaVuSans-2f"/>
     <use x="3101.814453" xlink:href="#DejaVuSans-32"/>
     <use x="3165.4375" xlink:href="#DejaVuSans-32"/>
    </g>
   </g>
   <g id="legend_1">
    <g id="patch_7">
     <path d="M 52.478125 389.735256
L 366.13125 389.735256
Q 368.13125 389.735256 368.13125 387.735256
L 368.13125 270.553381
Q 368.13125 268.553381 366.13125 268.553381
L 52.478125 268.553381
Q 50.478125 268.553381 50.478125 270.553381
L 50.478125 387.735256
Q 50.478125 389.735256 52.478125 389.735256
z
" style="fill:#ffffff;opacity:0.8;stroke:#cccccc;stroke-linejoin:miter;"/>
    </g>
    <g id="line2d_53">
     <path d="M 54.478125 276.651819
L 74.478125 276.651819
" style="fill:none;stroke:#ff0000;stroke-linecap:square;"/>
    </g>
    <g id="line2d_54"/>
    <g id="text_16">
     <!-- Reported daily confirmed cases (7-day moving average) -->
     <g transform="translate(82.478125 280.151819)scale(0.1 -0.1)">
      <defs>
       <path d="M 2841 2188
Q 3044 2119 3236 1894
Q 3428 1669 3622 1275
L 4263 0
L 3584 0
L 2988 1197
Q 2756 1666 2539 1819
Q 2322 1972 1947 1972
L 1259 1972
L 1259 0
L 628 0
L 628 4666
L 2053 4666
Q 2853 4666 3247 4331
Q 3641 3997 3641 3322
Q 3641 2881 3436 2590
Q 3231 2300 2841 2188
z
M 1259 4147
L 1259 2491
L 2053 2491
Q 2509 2491 2742 2702
Q 2975 2913 2975 3322
Q 2975 3731 2742 3939
Q 2509 4147 2053 4147
L 1259 4147
z
" id="DejaVuSans-52" transform="scale(0.015625)"/>
       <path d="M 1159 525
L 1159 -1331
L 581 -1331
L 581 3500
L 1159 3500
L 1159 2969
Q 1341 3281 1617 3432
Q 1894 3584 2278 3584
Q 2916 3584 3314 3078
Q 3713 2572 3713 1747
Q 3713 922 3314 415
Q 2916 -91 2278 -91
Q 1894 -91 1617 61
Q 1341 213 1159 525
z
M 3116 1747
Q 3116 2381 2855 2742
Q 2594 3103 2138 3103
Q 1681 3103 1420 2742
Q 1159 2381 1159 1747
Q 1159 1113 1420 752
Q 1681 391 2138 391
Q 2594 391 2855 752
Q 3116 1113 3116 1747
z
" id="DejaVuSans-70" transform="scale(0.015625)"/>
       <path d="M 1984 4856
Q 1566 4138 1362 3434
Q 1159 2731 1159 2009
Q 1159 1288 1364 580
Q 1569 -128 1984 -844
L 1484 -844
Q 1016 -109 783 600
Q 550 1309 550 2009
Q 550 2706 781 3412
Q 1013 4119 1484 4856
L 1984 4856
z
" id="DejaVuSans-28" transform="scale(0.015625)"/>
       <path d="M 191 3500
L 800 3500
L 1894 563
L 2988 3500
L 3597 3500
L 2284 0
L 1503 0
L 191 3500
z
" id="DejaVuSans-76" transform="scale(0.015625)"/>
       <path d="M 2906 1791
Q 2906 2416 2648 2759
Q 2391 3103 1925 3103
Q 1463 3103 1205 2759
Q 947 2416 947 1791
Q 947 1169 1205 825
Q 1463 481 1925 481
Q 2391 481 2648 825
Q 2906 1169 2906 1791
z
M 3481 434
Q 3481 -459 3084 -895
Q 2688 -1331 1869 -1331
Q 1566 -1331 1297 -1286
Q 1028 -1241 775 -1147
L 775 -588
Q 1028 -725 1275 -790
Q 1522 -856 1778 -856
Q 2344 -856 2625 -561
Q 2906 -266 2906 331
L 2906 616
Q 2728 306 2450 153
Q 2172 0 1784 0
Q 1141 0 747 490
Q 353 981 353 1791
Q 353 2603 747 3093
Q 1141 3584 1784 3584
Q 2172 3584 2450 3431
Q 2728 3278 2906 2969
L 2906 3500
L 3481 3500
L 3481 434
z
" id="DejaVuSans-67" transform="scale(0.015625)"/>
       <path d="M 513 4856
L 1013 4856
Q 1481 4119 1714 3412
Q 1947 2706 1947 2009
Q 1947 1309 1714 600
Q 1481 -109 1013 -844
L 513 -844
Q 928 -128 1133 580
Q 1338 1288 1338 2009
Q 1338 2731 1133 3434
Q 928 4138 513 4856
z
" id="DejaVuSans-29" transform="scale(0.015625)"/>
      </defs>
      <use xlink:href="#DejaVuSans-52"/>
      <use x="64.982422" xlink:href="#DejaVuSans-65"/>
      <use x="126.505859" xlink:href="#DejaVuSans-70"/>
      <use x="189.982422" xlink:href="#DejaVuSans-6f"/>
      <use x="251.164062" xlink:href="#DejaVuSans-72"/>
      <use x="292.277344" xlink:href="#DejaVuSans-74"/>
      <use x="331.486328" xlink:href="#DejaVuSans-65"/>
      <use x="393.009766" xlink:href="#DejaVuSans-64"/>
      <use x="456.486328" xlink:href="#DejaVuSans-20"/>
      <use x="488.273438" xlink:href="#DejaVuSans-64"/>
      <use x="551.75" xlink:href="#DejaVuSans-61"/>
      <use x="613.029297" xlink:href="#DejaVuSans-69"/>
      <use x="640.8125" xlink:href="#DejaVuSans-6c"/>
      <use x="668.595703" xlink:href="#DejaVuSans-79"/>
      <use x="727.775391" xlink:href="#DejaVuSans-20"/>
      <use x="759.5625" xlink:href="#DejaVuSans-63"/>
      <use x="814.542969" xlink:href="#DejaVuSans-6f"/>
      <use x="875.724609" xlink:href="#DejaVuSans-6e"/>
      <use x="939.103516" xlink:href="#DejaVuSans-66"/>
      <use x="974.308594" xlink:href="#DejaVuSans-69"/>
      <use x="1002.091797" xlink:href="#DejaVuSans-72"/>
      <use x="1041.455078" xlink:href="#DejaVuSans-6d"/>
      <use x="1138.867188" xlink:href="#DejaVuSans-65"/>
      <use x="1200.390625" xlink:href="#DejaVuSans-64"/>
      <use x="1263.867188" xlink:href="#DejaVuSans-20"/>
      <use x="1295.654297" xlink:href="#DejaVuSans-63"/>
      <use x="1350.634766" xlink:href="#DejaVuSans-61"/>
      <use x="1411.914062" xlink:href="#DejaVuSans-73"/>
      <use x="1464.013672" xlink:href="#DejaVuSans-65"/>
      <use x="1525.537109" xlink:href="#DejaVuSans-73"/>
      <use x="1577.636719" xlink:href="#DejaVuSans-20"/>
      <use x="1609.423828" xlink:href="#DejaVuSans-28"/>
      <use x="1648.4375" xlink:href="#DejaVuSans-37"/>
      <use x="1712.060547" xlink:href="#DejaVuSans-2d"/>
      <use x="1748.144531" xlink:href="#DejaVuSans-64"/>
      <use x="1811.621094" xlink:href="#DejaVuSans-61"/>
      <use x="1872.900391" xlink:href="#DejaVuSans-79"/>
      <use x="1932.080078" xlink:href="#DejaVuSans-20"/>
      <use x="1963.867188" xlink:href="#DejaVuSans-6d"/>
      <use x="2061.279297" xlink:href="#DejaVuSans-6f"/>
      <use x="2122.460938" xlink:href="#DejaVuSans-76"/>
      <use x="2181.640625" xlink:href="#DejaVuSans-69"/>
      <use x="2209.423828" xlink:href="#DejaVuSans-6e"/>
      <use x="2272.802734" xlink:href="#DejaVuSans-67"/>
      <use x="2336.279297" xlink:href="#DejaVuSans-20"/>
      <use x="2368.066406" xlink:href="#DejaVuSans-61"/>
      <use x="2429.345703" xlink:href="#DejaVuSans-76"/>
      <use x="2488.525391" xlink:href="#DejaVuSans-65"/>
      <use x="2550.048828" xlink:href="#DejaVuSans-72"/>
      <use x="2591.162109" xlink:href="#DejaVuSans-61"/>
      <use x="2652.441406" xlink:href="#DejaVuSans-67"/>
      <use x="2715.917969" xlink:href="#DejaVuSans-65"/>
      <use x="2777.441406" xlink:href="#DejaVuSans-29"/>
     </g>
    </g>
    <g id="line2d_55">
     <path d="M 54.478125 297.968694
L 74.478125 297.968694
" style="fill:none;stroke:#9467bd;stroke-dasharray:3.7,1.6;stroke-dashoffset:0;"/>
    </g>
    <g id="line2d_56"/>
    <g id="text_17">
     <!-- Uncontrolled spreading -->
     <g transform="translate(82.478125 294.829944)scale(0.1 -0.1)">
      <defs>
       <path d="M 556 4666
L 1191 4666
L 1191 1831
Q 1191 1081 1462 751
Q 1734 422 2344 422
Q 2950 422 3222 751
Q 3494 1081 3494 1831
L 3494 4666
L 4128 4666
L 4128 1753
Q 4128 841 3676 375
Q 3225 -91 2344 -91
Q 1459 -91 1007 375
Q 556 841 556 1753
L 556 4666
z
" id="DejaVuSans-55" transform="scale(0.015625)"/>
      </defs>
      <use xlink:href="#DejaVuSans-55"/>
      <use x="73.193359" xlink:href="#DejaVuSans-6e"/>
      <use x="136.572266" xlink:href="#DejaVuSans-63"/>
      <use x="191.552734" xlink:href="#DejaVuSans-6f"/>
      <use x="252.734375" xlink:href="#DejaVuSans-6e"/>
      <use x="316.113281" xlink:href="#DejaVuSans-74"/>
      <use x="355.322266" xlink:href="#DejaVuSans-72"/>
      <use x="394.185547" xlink:href="#DejaVuSans-6f"/>
      <use x="455.367188" xlink:href="#DejaVuSans-6c"/>
      <use x="483.150391" xlink:href="#DejaVuSans-6c"/>
      <use x="510.933594" xlink:href="#DejaVuSans-65"/>
      <use x="572.457031" xlink:href="#DejaVuSans-64"/>
      <use x="635.933594" xlink:href="#DejaVuSans-20"/>
      <use x="667.720703" xlink:href="#DejaVuSans-73"/>
      <use x="719.820312" xlink:href="#DejaVuSans-70"/>
      <use x="783.296875" xlink:href="#DejaVuSans-72"/>
      <use x="822.160156" xlink:href="#DejaVuSans-65"/>
      <use x="883.683594" xlink:href="#DejaVuSans-61"/>
      <use x="944.962891" xlink:href="#DejaVuSans-64"/>
      <use x="1008.439453" xlink:href="#DejaVuSans-69"/>
      <use x="1036.222656" xlink:href="#DejaVuSans-6e"/>
      <use x="1099.601562" xlink:href="#DejaVuSans-67"/>
     </g>
     <!-- (median and 95% prediction intervals) -->
     <g transform="translate(82.478125 306.027756)scale(0.1 -0.1)">
      <defs>
       <path d="M 703 97
L 703 672
Q 941 559 1184 500
Q 1428 441 1663 441
Q 2288 441 2617 861
Q 2947 1281 2994 2138
Q 2813 1869 2534 1725
Q 2256 1581 1919 1581
Q 1219 1581 811 2004
Q 403 2428 403 3163
Q 403 3881 828 4315
Q 1253 4750 1959 4750
Q 2769 4750 3195 4129
Q 3622 3509 3622 2328
Q 3622 1225 3098 567
Q 2575 -91 1691 -91
Q 1453 -91 1209 -44
Q 966 3 703 97
z
M 1959 2075
Q 2384 2075 2632 2365
Q 2881 2656 2881 3163
Q 2881 3666 2632 3958
Q 2384 4250 1959 4250
Q 1534 4250 1286 3958
Q 1038 3666 1038 3163
Q 1038 2656 1286 2365
Q 1534 2075 1959 2075
z
" id="DejaVuSans-39" transform="scale(0.015625)"/>
       <path d="M 4653 2053
Q 4381 2053 4226 1822
Q 4072 1591 4072 1178
Q 4072 772 4226 539
Q 4381 306 4653 306
Q 4919 306 5073 539
Q 5228 772 5228 1178
Q 5228 1588 5073 1820
Q 4919 2053 4653 2053
z
M 4653 2450
Q 5147 2450 5437 2106
Q 5728 1763 5728 1178
Q 5728 594 5436 251
Q 5144 -91 4653 -91
Q 4153 -91 3862 251
Q 3572 594 3572 1178
Q 3572 1766 3864 2108
Q 4156 2450 4653 2450
z
M 1428 4353
Q 1159 4353 1004 4120
Q 850 3888 850 3481
Q 850 3069 1003 2837
Q 1156 2606 1428 2606
Q 1700 2606 1854 2837
Q 2009 3069 2009 3481
Q 2009 3884 1853 4118
Q 1697 4353 1428 4353
z
M 4250 4750
L 4750 4750
L 1831 -91
L 1331 -91
L 4250 4750
z
M 1428 4750
Q 1922 4750 2215 4408
Q 2509 4066 2509 3481
Q 2509 2891 2217 2550
Q 1925 2209 1428 2209
Q 931 2209 642 2551
Q 353 2894 353 3481
Q 353 4063 643 4406
Q 934 4750 1428 4750
z
" id="DejaVuSans-25" transform="scale(0.015625)"/>
      </defs>
      <use xlink:href="#DejaVuSans-28"/>
      <use x="39.013672" xlink:href="#DejaVuSans-6d"/>
      <use x="136.425781" xlink:href="#DejaVuSans-65"/>
      <use x="197.949219" xlink:href="#DejaVuSans-64"/>
      <use x="261.425781" xlink:href="#DejaVuSans-69"/>
      <use x="289.208984" xlink:href="#DejaVuSans-61"/>
      <use x="350.488281" xlink:href="#DejaVuSans-6e"/>
      <use x="413.867188" xlink:href="#DejaVuSans-20"/>
      <use x="445.654297" xlink:href="#DejaVuSans-61"/>
      <use x="506.933594" xlink:href="#DejaVuSans-6e"/>
      <use x="570.3125" xlink:href="#DejaVuSans-64"/>
      <use x="633.789062" xlink:href="#DejaVuSans-20"/>
      <use x="665.576172" xlink:href="#DejaVuSans-39"/>
      <use x="729.199219" xlink:href="#DejaVuSans-35"/>
      <use x="792.822266" xlink:href="#DejaVuSans-25"/>
      <use x="887.841797" xlink:href="#DejaVuSans-20"/>
      <use x="919.628906" xlink:href="#DejaVuSans-70"/>
      <use x="983.105469" xlink:href="#DejaVuSans-72"/>
      <use x="1021.96875" xlink:href="#DejaVuSans-65"/>
      <use x="1083.492188" xlink:href="#DejaVuSans-64"/>
      <use x="1146.96875" xlink:href="#DejaVuSans-69"/>
      <use x="1174.751953" xlink:href="#DejaVuSans-63"/>
      <use x="1229.732422" xlink:href="#DejaVuSans-74"/>
      <use x="1268.941406" xlink:href="#DejaVuSans-69"/>
      <use x="1296.724609" xlink:href="#DejaVuSans-6f"/>
      <use x="1357.90625" xlink:href="#DejaVuSans-6e"/>
      <use x="1421.285156" xlink:href="#DejaVuSans-20"/>
      <use x="1453.072266" xlink:href="#DejaVuSans-69"/>
      <use x="1480.855469" xlink:href="#DejaVuSans-6e"/>
      <use x="1544.234375" xlink:href="#DejaVuSans-74"/>
      <use x="1583.443359" xlink:href="#DejaVuSans-65"/>
      <use x="1644.966797" xlink:href="#DejaVuSans-72"/>
      <use x="1686.080078" xlink:href="#DejaVuSans-76"/>
      <use x="1745.259766" xlink:href="#DejaVuSans-61"/>
      <use x="1806.539062" xlink:href="#DejaVuSans-6c"/>
      <use x="1834.322266" xlink:href="#DejaVuSans-73"/>
      <use x="1886.421875" xlink:href="#DejaVuSans-29"/>
     </g>
    </g>
    <g id="line2d_57">
     <path d="M 54.478125 323.844631
L 74.478125 323.844631
" style="fill:none;stroke:#ff7f0e;stroke-dasharray:3.7,1.6;stroke-dashoffset:0;"/>
    </g>
    <g id="line2d_58"/>
    <g id="text_18">
     <!-- Mild social distancing -->
     <g transform="translate(82.478125 320.705881)scale(0.1 -0.1)">
      <defs>
       <path d="M 628 4666
L 1569 4666
L 2759 1491
L 3956 4666
L 4897 4666
L 4897 0
L 4281 0
L 4281 4097
L 3078 897
L 2444 897
L 1241 4097
L 1241 0
L 628 0
L 628 4666
z
" id="DejaVuSans-4d" transform="scale(0.015625)"/>
      </defs>
      <use xlink:href="#DejaVuSans-4d"/>
      <use x="86.279297" xlink:href="#DejaVuSans-69"/>
      <use x="114.0625" xlink:href="#DejaVuSans-6c"/>
      <use x="141.845703" xlink:href="#DejaVuSans-64"/>
      <use x="205.322266" xlink:href="#DejaVuSans-20"/>
      <use x="237.109375" xlink:href="#DejaVuSans-73"/>
      <use x="289.208984" xlink:href="#DejaVuSans-6f"/>
      <use x="350.390625" xlink:href="#DejaVuSans-63"/>
      <use x="405.371094" xlink:href="#DejaVuSans-69"/>
      <use x="433.154297" xlink:href="#DejaVuSans-61"/>
      <use x="494.433594" xlink:href="#DejaVuSans-6c"/>
      <use x="522.216797" xlink:href="#DejaVuSans-20"/>
      <use x="554.003906" xlink:href="#DejaVuSans-64"/>
      <use x="617.480469" xlink:href="#DejaVuSans-69"/>
      <use x="645.263672" xlink:href="#DejaVuSans-73"/>
      <use x="697.363281" xlink:href="#DejaVuSans-74"/>
      <use x="736.572266" xlink:href="#DejaVuSans-61"/>
      <use x="797.851562" xlink:href="#DejaVuSans-6e"/>
      <use x="861.230469" xlink:href="#DejaVuSans-63"/>
      <use x="916.210938" xlink:href="#DejaVuSans-69"/>
      <use x="943.994141" xlink:href="#DejaVuSans-6e"/>
      <use x="1007.373047" xlink:href="#DejaVuSans-67"/>
     </g>
     <!-- (median and 95% prediction intervals) -->
     <g transform="translate(82.478125 331.903694)scale(0.1 -0.1)">
      <use xlink:href="#DejaVuSans-28"/>
      <use x="39.013672" xlink:href="#DejaVuSans-6d"/>
      <use x="136.425781" xlink:href="#DejaVuSans-65"/>
      <use x="197.949219" xlink:href="#DejaVuSans-64"/>
      <use x="261.425781" xlink:href="#DejaVuSans-69"/>
      <use x="289.208984" xlink:href="#DejaVuSans-61"/>
      <use x="350.488281" xlink:href="#DejaVuSans-6e"/>
      <use x="413.867188" xlink:href="#DejaVuSans-20"/>
      <use x="445.654297" xlink:href="#DejaVuSans-61"/>
      <use x="506.933594" xlink:href="#DejaVuSans-6e"/>
      <use x="570.3125" xlink:href="#DejaVuSans-64"/>
      <use x="633.789062" xlink:href="#DejaVuSans-20"/>
      <use x="665.576172" xlink:href="#DejaVuSans-39"/>
      <use x="729.199219" xlink:href="#DejaVuSans-35"/>
      <use x="792.822266" xlink:href="#DejaVuSans-25"/>
      <use x="887.841797" xlink:href="#DejaVuSans-20"/>
      <use x="919.628906" xlink:href="#DejaVuSans-70"/>
      <use x="983.105469" xlink:href="#DejaVuSans-72"/>
      <use x="1021.96875" xlink:href="#DejaVuSans-65"/>
      <use x="1083.492188" xlink:href="#DejaVuSans-64"/>
      <use x="1146.96875" xlink:href="#DejaVuSans-69"/>
      <use x="1174.751953" xlink:href="#DejaVuSans-63"/>
      <use x="1229.732422" xlink:href="#DejaVuSans-74"/>
      <use x="1268.941406" xlink:href="#DejaVuSans-69"/>
      <use x="1296.724609" xlink:href="#DejaVuSans-6f"/>
      <use x="1357.90625" xlink:href="#DejaVuSans-6e"/>
      <use x="1421.285156" xlink:href="#DejaVuSans-20"/>
      <use x="1453.072266" xlink:href="#DejaVuSans-69"/>
      <use x="1480.855469" xlink:href="#DejaVuSans-6e"/>
      <use x="1544.234375" xlink:href="#DejaVuSans-74"/>
      <use x="1583.443359" xlink:href="#DejaVuSans-65"/>
      <use x="1644.966797" xlink:href="#DejaVuSans-72"/>
      <use x="1686.080078" xlink:href="#DejaVuSans-76"/>
      <use x="1745.259766" xlink:href="#DejaVuSans-61"/>
      <use x="1806.539062" xlink:href="#DejaVuSans-6c"/>
      <use x="1834.322266" xlink:href="#DejaVuSans-73"/>
      <use x="1886.421875" xlink:href="#DejaVuSans-29"/>
     </g>
    </g>
    <g id="line2d_59">
     <path d="M 54.478125 349.720569
L 74.478125 349.720569
" style="fill:none;stroke:#2ca02c;stroke-dasharray:3.7,1.6;stroke-dashoffset:0;"/>
    </g>
    <g id="line2d_60"/>
    <g id="text_19">
     <!-- Strong social distancing -->
     <g transform="translate(82.478125 346.581819)scale(0.1 -0.1)">
      <defs>
       <path d="M 3425 4513
L 3425 3897
Q 3066 4069 2747 4153
Q 2428 4238 2131 4238
Q 1616 4238 1336 4038
Q 1056 3838 1056 3469
Q 1056 3159 1242 3001
Q 1428 2844 1947 2747
L 2328 2669
Q 3034 2534 3370 2195
Q 3706 1856 3706 1288
Q 3706 609 3251 259
Q 2797 -91 1919 -91
Q 1588 -91 1214 -16
Q 841 59 441 206
L 441 856
Q 825 641 1194 531
Q 1563 422 1919 422
Q 2459 422 2753 634
Q 3047 847 3047 1241
Q 3047 1584 2836 1778
Q 2625 1972 2144 2069
L 1759 2144
Q 1053 2284 737 2584
Q 422 2884 422 3419
Q 422 4038 858 4394
Q 1294 4750 2059 4750
Q 2388 4750 2728 4690
Q 3069 4631 3425 4513
z
" id="DejaVuSans-53" transform="scale(0.015625)"/>
      </defs>
      <use xlink:href="#DejaVuSans-53"/>
      <use x="63.476562" xlink:href="#DejaVuSans-74"/>
      <use x="102.685547" xlink:href="#DejaVuSans-72"/>
      <use x="141.548828" xlink:href="#DejaVuSans-6f"/>
      <use x="202.730469" xlink:href="#DejaVuSans-6e"/>
      <use x="266.109375" xlink:href="#DejaVuSans-67"/>
      <use x="329.585938" xlink:href="#DejaVuSans-20"/>
      <use x="361.373047" xlink:href="#DejaVuSans-73"/>
      <use x="413.472656" xlink:href="#DejaVuSans-6f"/>
      <use x="474.654297" xlink:href="#DejaVuSans-63"/>
      <use x="529.634766" xlink:href="#DejaVuSans-69"/>
      <use x="557.417969" xlink:href="#DejaVuSans-61"/>
      <use x="618.697266" xlink:href="#DejaVuSans-6c"/>
      <use x="646.480469" xlink:href="#DejaVuSans-20"/>
      <use x="678.267578" xlink:href="#DejaVuSans-64"/>
      <use x="741.744141" xlink:href="#DejaVuSans-69"/>
      <use x="769.527344" xlink:href="#DejaVuSans-73"/>
      <use x="821.626953" xlink:href="#DejaVuSans-74"/>
      <use x="860.835938" xlink:href="#DejaVuSans-61"/>
      <use x="922.115234" xlink:href="#DejaVuSans-6e"/>
      <use x="985.494141" xlink:href="#DejaVuSans-63"/>
      <use x="1040.474609" xlink:href="#DejaVuSans-69"/>
      <use x="1068.257812" xlink:href="#DejaVuSans-6e"/>
      <use x="1131.636719" xlink:href="#DejaVuSans-67"/>
     </g>
     <!-- (median and 95% prediction intervals) -->
     <g transform="translate(82.478125 357.779631)scale(0.1 -0.1)">
      <use xlink:href="#DejaVuSans-28"/>
      <use x="39.013672" xlink:href="#DejaVuSans-6d"/>
      <use x="136.425781" xlink:href="#DejaVuSans-65"/>
      <use x="197.949219" xlink:href="#DejaVuSans-64"/>
      <use x="261.425781" xlink:href="#DejaVuSans-69"/>
      <use x="289.208984" xlink:href="#DejaVuSans-61"/>
      <use x="350.488281" xlink:href="#DejaVuSans-6e"/>
      <use x="413.867188" xlink:href="#DejaVuSans-20"/>
      <use x="445.654297" xlink:href="#DejaVuSans-61"/>
      <use x="506.933594" xlink:href="#DejaVuSans-6e"/>
      <use x="570.3125" xlink:href="#DejaVuSans-64"/>
      <use x="633.789062" xlink:href="#DejaVuSans-20"/>
      <use x="665.576172" xlink:href="#DejaVuSans-39"/>
      <use x="729.199219" xlink:href="#DejaVuSans-35"/>
      <use x="792.822266" xlink:href="#DejaVuSans-25"/>
      <use x="887.841797" xlink:href="#DejaVuSans-20"/>
      <use x="919.628906" xlink:href="#DejaVuSans-70"/>
      <use x="983.105469" xlink:href="#DejaVuSans-72"/>
      <use x="1021.96875" xlink:href="#DejaVuSans-65"/>
      <use x="1083.492188" xlink:href="#DejaVuSans-64"/>
      <use x="1146.96875" xlink:href="#DejaVuSans-69"/>
      <use x="1174.751953" xlink:href="#DejaVuSans-63"/>
      <use x="1229.732422" xlink:href="#DejaVuSans-74"/>
      <use x="1268.941406" xlink:href="#DejaVuSans-69"/>
      <use x="1296.724609" xlink:href="#DejaVuSans-6f"/>
      <use x="1357.90625" xlink:href="#DejaVuSans-6e"/>
      <use x="1421.285156" xlink:href="#DejaVuSans-20"/>
      <use x="1453.072266" xlink:href="#DejaVuSans-69"/>
      <use x="1480.855469" xlink:href="#DejaVuSans-6e"/>
      <use x="1544.234375" xlink:href="#DejaVuSans-74"/>
      <use x="1583.443359" xlink:href="#DejaVuSans-65"/>
      <use x="1644.966797" xlink:href="#DejaVuSans-72"/>
      <use x="1686.080078" xlink:href="#DejaVuSans-76"/>
      <use x="1745.259766" xlink:href="#DejaVuSans-61"/>
      <use x="1806.539062" xlink:href="#DejaVuSans-6c"/>
      <use x="1834.322266" xlink:href="#DejaVuSans-73"/>
      <use x="1886.421875" xlink:href="#DejaVuSans-29"/>
     </g>
    </g>
    <g id="line2d_61">
     <path d="M 54.478125 375.596506
L 74.478125 375.596506
" style="fill:none;stroke:#000000;stroke-dasharray:3.7,1.6;stroke-dashoffset:0;"/>
    </g>
    <g id="line2d_62"/>
    <g id="text_20">
     <!-- Strong social distancing since 2022-01-20 -->
     <g transform="translate(82.478125 372.457756)scale(0.1 -0.1)">
      <use xlink:href="#DejaVuSans-53"/>
      <use x="63.476562" xlink:href="#DejaVuSans-74"/>
      <use x="102.685547" xlink:href="#DejaVuSans-72"/>
      <use x="141.548828" xlink:href="#DejaVuSans-6f"/>
      <use x="202.730469" xlink:href="#DejaVuSans-6e"/>
      <use x="266.109375" xlink:href="#DejaVuSans-67"/>
      <use x="329.585938" xlink:href="#DejaVuSans-20"/>
      <use x="361.373047" xlink:href="#DejaVuSans-73"/>
      <use x="413.472656" xlink:href="#DejaVuSans-6f"/>
      <use x="474.654297" xlink:href="#DejaVuSans-63"/>
      <use x="529.634766" xlink:href="#DejaVuSans-69"/>
      <use x="557.417969" xlink:href="#DejaVuSans-61"/>
      <use x="618.697266" xlink:href="#DejaVuSans-6c"/>
      <use x="646.480469" xlink:href="#DejaVuSans-20"/>
      <use x="678.267578" xlink:href="#DejaVuSans-64"/>
      <use x="741.744141" xlink:href="#DejaVuSans-69"/>
      <use x="769.527344" xlink:href="#DejaVuSans-73"/>
      <use x="821.626953" xlink:href="#DejaVuSans-74"/>
      <use x="860.835938" xlink:href="#DejaVuSans-61"/>
      <use x="922.115234" xlink:href="#DejaVuSans-6e"/>
      <use x="985.494141" xlink:href="#DejaVuSans-63"/>
      <use x="1040.474609" xlink:href="#DejaVuSans-69"/>
      <use x="1068.257812" xlink:href="#DejaVuSans-6e"/>
      <use x="1131.636719" xlink:href="#DejaVuSans-67"/>
      <use x="1195.113281" xlink:href="#DejaVuSans-20"/>
      <use x="1226.900391" xlink:href="#DejaVuSans-73"/>
      <use x="1279" xlink:href="#DejaVuSans-69"/>
      <use x="1306.783203" xlink:href="#DejaVuSans-6e"/>
      <use x="1370.162109" xlink:href="#DejaVuSans-63"/>
      <use x="1425.142578" xlink:href="#DejaVuSans-65"/>
      <use x="1486.666016" xlink:href="#DejaVuSans-20"/>
      <use x="1518.453125" xlink:href="#DejaVuSans-32"/>
      <use x="1582.076172" xlink:href="#DejaVuSans-30"/>
      <use x="1645.699219" xlink:href="#DejaVuSans-32"/>
      <use x="1709.322266" xlink:href="#DejaVuSans-32"/>
      <use x="1772.945312" xlink:href="#DejaVuSans-2d"/>
      <use x="1809.029297" xlink:href="#DejaVuSans-30"/>
      <use x="1872.652344" xlink:href="#DejaVuSans-31"/>
      <use x="1936.275391" xlink:href="#DejaVuSans-2d"/>
      <use x="1972.359375" xlink:href="#DejaVuSans-32"/>
      <use x="2035.982422" xlink:href="#DejaVuSans-30"/>
     </g>
     <!-- (median and 95% prediction intervals) -->
     <g transform="translate(82.478125 383.655569)scale(0.1 -0.1)">
      <use xlink:href="#DejaVuSans-28"/>
      <use x="39.013672" xlink:href="#DejaVuSans-6d"/>
      <use x="136.425781" xlink:href="#DejaVuSans-65"/>
      <use x="197.949219" xlink:href="#DejaVuSans-64"/>
      <use x="261.425781" xlink:href="#DejaVuSans-69"/>
      <use x="289.208984" xlink:href="#DejaVuSans-61"/>
      <use x="350.488281" xlink:href="#DejaVuSans-6e"/>
      <use x="413.867188" xlink:href="#DejaVuSans-20"/>
      <use x="445.654297" xlink:href="#DejaVuSans-61"/>
      <use x="506.933594" xlink:href="#DejaVuSans-6e"/>
      <use x="570.3125" xlink:href="#DejaVuSans-64"/>
      <use x="633.789062" xlink:href="#DejaVuSans-20"/>
      <use x="665.576172" xlink:href="#DejaVuSans-39"/>
      <use x="729.199219" xlink:href="#DejaVuSans-35"/>
      <use x="792.822266" xlink:href="#DejaVuSans-25"/>
      <use x="887.841797" xlink:href="#DejaVuSans-20"/>
      <use x="919.628906" xlink:href="#DejaVuSans-70"/>
      <use x="983.105469" xlink:href="#DejaVuSans-72"/>
      <use x="1021.96875" xlink:href="#DejaVuSans-65"/>
      <use x="1083.492188" xlink:href="#DejaVuSans-64"/>
      <use x="1146.96875" xlink:href="#DejaVuSans-69"/>
      <use x="1174.751953" xlink:href="#DejaVuSans-63"/>
      <use x="1229.732422" xlink:href="#DejaVuSans-74"/>
      <use x="1268.941406" xlink:href="#DejaVuSans-69"/>
      <use x="1296.724609" xlink:href="#DejaVuSans-6f"/>
      <use x="1357.90625" xlink:href="#DejaVuSans-6e"/>
      <use x="1421.285156" xlink:href="#DejaVuSans-20"/>
      <use x="1453.072266" xlink:href="#DejaVuSans-69"/>
      <use x="1480.855469" xlink:href="#DejaVuSans-6e"/>
      <use x="1544.234375" xlink:href="#DejaVuSans-74"/>
      <use x="1583.443359" xlink:href="#DejaVuSans-65"/>
      <use x="1644.966797" xlink:href="#DejaVuSans-72"/>
      <use x="1686.080078" xlink:href="#DejaVuSans-76"/>
      <use x="1745.259766" xlink:href="#DejaVuSans-61"/>
      <use x="1806.539062" xlink:href="#DejaVuSans-6c"/>
      <use x="1834.322266" xlink:href="#DejaVuSans-73"/>
      <use x="1886.421875" xlink:href="#DejaVuSans-29"/>
     </g>
    </g>
   </g>
  </g>
  <g id="text_21">
   <!-- With Reported Data From Past 2 Months and SIR Model Predictions -->
   <g transform="translate(115.977187 40.973381)scale(0.12 -0.12)">
    <defs>
     <path d="M 213 4666
L 850 4666
L 1831 722
L 2809 4666
L 3519 4666
L 4500 722
L 5478 4666
L 6119 4666
L 4947 0
L 4153 0
L 3169 4050
L 2175 0
L 1381 0
L 213 4666
z
" id="DejaVuSans-57" transform="scale(0.015625)"/>
     <path d="M 3513 2113
L 3513 0
L 2938 0
L 2938 2094
Q 2938 2591 2744 2837
Q 2550 3084 2163 3084
Q 1697 3084 1428 2787
Q 1159 2491 1159 1978
L 1159 0
L 581 0
L 581 4863
L 1159 4863
L 1159 2956
Q 1366 3272 1645 3428
Q 1925 3584 2291 3584
Q 2894 3584 3203 3211
Q 3513 2838 3513 2113
z
" id="DejaVuSans-68" transform="scale(0.015625)"/>
     <path d="M 628 4666
L 3309 4666
L 3309 4134
L 1259 4134
L 1259 2759
L 3109 2759
L 3109 2228
L 1259 2228
L 1259 0
L 628 0
L 628 4666
z
" id="DejaVuSans-46" transform="scale(0.015625)"/>
     <path d="M 1259 4147
L 1259 2394
L 2053 2394
Q 2494 2394 2734 2622
Q 2975 2850 2975 3272
Q 2975 3691 2734 3919
Q 2494 4147 2053 4147
L 1259 4147
z
M 628 4666
L 2053 4666
Q 2838 4666 3239 4311
Q 3641 3956 3641 3272
Q 3641 2581 3239 2228
Q 2838 1875 2053 1875
L 1259 1875
L 1259 0
L 628 0
L 628 4666
z
" id="DejaVuSans-50" transform="scale(0.015625)"/>
     <path d="M 628 4666
L 1259 4666
L 1259 0
L 628 0
L 628 4666
z
" id="DejaVuSans-49" transform="scale(0.015625)"/>
    </defs>
    <use xlink:href="#DejaVuSans-57"/>
    <use x="96.626953" xlink:href="#DejaVuSans-69"/>
    <use x="124.410156" xlink:href="#DejaVuSans-74"/>
    <use x="163.619141" xlink:href="#DejaVuSans-68"/>
    <use x="226.998047" xlink:href="#DejaVuSans-20"/>
    <use x="258.785156" xlink:href="#DejaVuSans-52"/>
    <use x="323.767578" xlink:href="#DejaVuSans-65"/>
    <use x="385.291016" xlink:href="#DejaVuSans-70"/>
    <use x="448.767578" xlink:href="#DejaVuSans-6f"/>
    <use x="509.949219" xlink:href="#DejaVuSans-72"/>
    <use x="551.0625" xlink:href="#DejaVuSans-74"/>
    <use x="590.271484" xlink:href="#DejaVuSans-65"/>
    <use x="651.794922" xlink:href="#DejaVuSans-64"/>
    <use x="715.271484" xlink:href="#DejaVuSans-20"/>
    <use x="747.058594" xlink:href="#DejaVuSans-44"/>
    <use x="824.060547" xlink:href="#DejaVuSans-61"/>
    <use x="885.339844" xlink:href="#DejaVuSans-74"/>
    <use x="924.548828" xlink:href="#DejaVuSans-61"/>
    <use x="985.828125" xlink:href="#DejaVuSans-20"/>
    <use x="1017.615234" xlink:href="#DejaVuSans-46"/>
    <use x="1067.884766" xlink:href="#DejaVuSans-72"/>
    <use x="1106.748047" xlink:href="#DejaVuSans-6f"/>
    <use x="1167.929688" xlink:href="#DejaVuSans-6d"/>
    <use x="1265.341797" xlink:href="#DejaVuSans-20"/>
    <use x="1297.128906" xlink:href="#DejaVuSans-50"/>
    <use x="1352.931641" xlink:href="#DejaVuSans-61"/>
    <use x="1414.210938" xlink:href="#DejaVuSans-73"/>
    <use x="1466.310547" xlink:href="#DejaVuSans-74"/>
    <use x="1505.519531" xlink:href="#DejaVuSans-20"/>
    <use x="1537.306641" xlink:href="#DejaVuSans-32"/>
    <use x="1600.929688" xlink:href="#DejaVuSans-20"/>
    <use x="1632.716797" xlink:href="#DejaVuSans-4d"/>
    <use x="1718.996094" xlink:href="#DejaVuSans-6f"/>
    <use x="1780.177734" xlink:href="#DejaVuSans-6e"/>
    <use x="1843.556641" xlink:href="#DejaVuSans-74"/>
    <use x="1882.765625" xlink:href="#DejaVuSans-68"/>
    <use x="1946.144531" xlink:href="#DejaVuSans-73"/>
    <use x="1998.244141" xlink:href="#DejaVuSans-20"/>
    <use x="2030.03125" xlink:href="#DejaVuSans-61"/>
    <use x="2091.310547" xlink:href="#DejaVuSans-6e"/>
    <use x="2154.689453" xlink:href="#DejaVuSans-64"/>
    <use x="2218.166016" xlink:href="#DejaVuSans-20"/>
    <use x="2249.953125" xlink:href="#DejaVuSans-53"/>
    <use x="2313.429688" xlink:href="#DejaVuSans-49"/>
    <use x="2342.921875" xlink:href="#DejaVuSans-52"/>
    <use x="2412.404297" xlink:href="#DejaVuSans-20"/>
    <use x="2444.191406" xlink:href="#DejaVuSans-4d"/>
    <use x="2530.470703" xlink:href="#DejaVuSans-6f"/>
    <use x="2591.652344" xlink:href="#DejaVuSans-64"/>
    <use x="2655.128906" xlink:href="#DejaVuSans-65"/>
    <use x="2716.652344" xlink:href="#DejaVuSans-6c"/>
    <use x="2744.435547" xlink:href="#DejaVuSans-20"/>
    <use x="2776.222656" xlink:href="#DejaVuSans-50"/>
    <use x="2834.775391" xlink:href="#DejaVuSans-72"/>
    <use x="2873.638672" xlink:href="#DejaVuSans-65"/>
    <use x="2935.162109" xlink:href="#DejaVuSans-64"/>
    <use x="2998.638672" xlink:href="#DejaVuSans-69"/>
    <use x="3026.421875" xlink:href="#DejaVuSans-63"/>
    <use x="3081.402344" xlink:href="#DejaVuSans-74"/>
    <use x="3120.611328" xlink:href="#DejaVuSans-69"/>
    <use x="3148.394531" xlink:href="#DejaVuSans-6f"/>
    <use x="3209.576172" xlink:href="#DejaVuSans-6e"/>
    <use x="3272.955078" xlink:href="#DejaVuSans-73"/>
   </g>
  </g>
 </g>
 <defs>
  <clipPath id="pd310501a41">
   <rect height="342.72" width="558" x="45.478125" y="52.015256"/>
  </clipPath>
 </defs>
</svg>
